<?xml version="1.0" encoding="UTF-8"?>
<svg width="48px" height="35px" viewBox="0 0 48 35" version="1.1" xmlns="http://www.w3.org/2000/svg" xmlns:xlink="http://www.w3.org/1999/xlink">
    <title>编组 13</title>
    <g id="pc" stroke="none" stroke-width="1" fill="none" fill-rule="evenodd">
        <g id="14" transform="translate(-1103.000000, -232.000000)">
            <g id="编组-53" transform="translate(101.000000, 76.000000)">
                <g id="编组-8" transform="translate(0.000000, 139.000000)">
                    <g id="编组-5" transform="translate(949.000000, 17.000000)">
                        <g id="编组-13" transform="translate(53.000000, 0.000000)">
                            <path d="M42.8722296,0.5 C44.5136685,0.5 45.1159211,0.653234454 45.717892,0.975172007 C46.2813208,1.27649702 46.723503,1.71867923 47.024828,2.28210802 C47.3467655,2.88407891 47.5,3.48633153 47.5,5.1277704 L47.5,5.1277704 L47.5,29.8722296 C47.5,31.5136685 47.3467655,32.1159211 47.024828,32.717892 C46.723503,33.2813208 46.2813208,33.723503 45.717892,34.024828 C45.1159211,34.3467655 44.5136685,34.5 42.8722296,34.5 L42.8722296,34.5 L5.1277704,34.5 C3.48633153,34.5 2.88407891,34.3467655 2.28210802,34.024828 C1.71867923,33.723503 1.27649702,33.2813208 0.975172007,32.717892 C0.653234454,32.1159211 0.5,31.5136685 0.5,29.8722296 L0.5,29.8722296 L0.5,5.1277704 C0.5,3.48633153 0.653234454,2.88407891 0.975172007,2.28210802 C1.27649702,1.71867923 1.71867923,1.27649702 2.28210802,0.975172007 C2.88407891,0.653234454 3.48633153,0.5 5.1277704,0.5 L5.1277704,0.5 Z" id="Shape" stroke="#E2E2EA" fill="#FFFFFF" transform="translate(24.000000, 17.500000) rotate(-360.000000) translate(-24.000000, -17.500000) "></path>
                            <g id="趋势" transform="translate(14.000000, 8.000000)" fill="#72727B" fill-rule="nonzero">
                                <path d="M19.7372109,16.8377687 C20.1123553,16.8377687 20.4160486,17.144009 20.4160486,17.5255335 L20.4160486,17.5255393 C20.4174567,17.9022768 20.1139364,18.209217 19.7372049,18.2120222 L0.678846768,18.2120222 L0.678846763,18.2120222 C0.30253,18.2106233 -0.00139959776,17.9044241 -4.79826653e-06,17.5281093 C-4.79826653e-06,17.5272506 -4.79826653e-06,17.526392 -4.79826653e-06,17.5255334 C-4.79826653e-06,17.1452849 0.304978816,16.8377686 0.678847251,16.8377686 L3.40311042,16.8377686 L3.40311042,12.7137318 L3.40311042,12.7137318 C3.38009096,12.3381189 3.66592486,12.0149615 4.04153783,11.9919417 C4.4171508,11.9689222 4.74030814,12.2547561 4.76332801,12.6303691 C4.76502934,12.6581301 4.76502935,12.6859692 4.76332801,12.7137302 L4.76332801,16.837767 L7.48631518,16.837767 L7.48631518,9.96649904 L7.48631518,9.9664991 C7.46329572,9.59088613 7.74912962,9.26772878 8.12474259,9.24470892 C8.50035556,9.22168945 8.8235129,9.50752336 8.84653277,9.88313632 C8.8482341,9.91089733 8.84823411,9.93873649 8.84653277,9.9664975 L8.84653277,16.8377655 L11.5695199,16.8377655 L11.5695199,11.3381991 L11.5695199,11.3381992 C11.5695199,10.9625862 11.8740158,10.6580904 12.2496287,10.6580904 C12.6252417,10.6580904 12.9297375,10.9625862 12.9297375,11.3381992 C12.9297375,11.3381992 12.9297375,11.3381992 12.9297375,11.3381992 L12.9297375,16.8377656 L15.6527247,16.8377656 L15.6527247,7.90575521 C15.6527247,7.52678277 15.953861,7.21926641 16.3328335,7.21926641 C16.7092539,7.21926641 17.0129423,7.52550676 17.0129423,7.90703121 L17.0129423,16.8377656 L19.7372054,16.8377656 L19.7372109,16.8377687 Z M12.5533225,8.71857123 L12.5533225,8.71857124 C12.3138131,8.96436102 11.9281775,8.99178907 11.6562935,8.78237131 L8.0592453,6.00068807 L1.85277408,11.8753989 L1.85277408,11.8753989 C1.58239535,12.1330774 1.15432277,12.1227817 0.896644236,11.8524032 C0.894638561,11.8502984 0.892646463,11.8481812 0.890668083,11.846051 L0.890668082,11.846051 C0.633535839,11.5684887 0.64718108,11.1358225 0.921292118,10.8750138 L7.53097981,4.59963853 L7.5309798,4.59963854 C7.7723933,4.37028325 8.14483819,4.35079631 8.40886882,4.55370248 L11.998261,7.35197374 L17.2809071,1.92131142 L15.0479045,2.17651172 L15.0479046,2.17651171 C14.673113,2.21748033 14.3360752,1.94686335 14.2951056,1.5720738 C14.2950915,1.57194498 14.2950774,1.57181615 14.2950634,1.57168732 L14.2950634,1.57168715 C14.2508789,1.196134 14.5192788,0.85578054 14.8947841,0.81119027 L18.8886688,0.354381738 L18.8886687,0.354381744 C19.2634682,0.313501647 19.6004443,0.584197586 19.6413242,0.958997103 C19.644151,0.984914089 19.645349,1.01097163 19.645349,1.03704194 L19.645349,4.66599016 L19.645349,4.66599334 C19.6474521,5.0437157 19.3429627,5.3516348 18.9652403,5.35374817 C18.9648098,5.35375059 18.9643793,5.35375259 18.9639488,5.35375419 L18.9639488,5.35375419 C18.5862265,5.35164599 18.2817326,5.04373368 18.28384,4.66601132 C18.2838401,4.66600418 18.2838401,4.66599703 18.2838402,4.66598989 L18.2838402,2.85023978 L12.5533175,8.71857061 L12.5533225,8.71857123 Z" id="形状"></path>
                            </g>
                        </g>
                    </g>
                </g>
            </g>
        </g>
    </g>
</svg>