<?xml version="1.0" encoding="UTF-8"?>
<svg width="48px" height="35px" viewBox="0 0 48 35" version="1.1" xmlns="http://www.w3.org/2000/svg" xmlns:xlink="http://www.w3.org/1999/xlink">
    <title>编组 12</title>
    <g id="pc" stroke="none" stroke-width="1" fill="none" fill-rule="evenodd">
        <g id="14" transform="translate(-1335.000000, -215.000000)">
            <g id="编组-53" transform="translate(101.000000, 76.000000)">
                <g id="编组-8" transform="translate(0.000000, 139.000000)">
                    <g id="编组-12" transform="translate(1234.000000, 0.000000)">
                        <path d="M42.8722296,0.5 C44.5136685,0.5 45.1159211,0.653234454 45.717892,0.975172007 C46.2813208,1.27649702 46.723503,1.71867923 47.024828,2.28210802 C47.3467655,2.88407891 47.5,3.48633153 47.5,5.1277704 L47.5,5.1277704 L47.5,29.8722296 C47.5,31.5136685 47.3467655,32.1159211 47.024828,32.717892 C46.723503,33.2813208 46.2813208,33.723503 45.717892,34.024828 C45.1159211,34.3467655 44.5136685,34.5 42.8722296,34.5 L42.8722296,34.5 L5.1277704,34.5 C3.48633153,34.5 2.88407891,34.3467655 2.28210802,34.024828 C1.71867923,33.723503 1.27649702,33.2813208 0.975172007,32.717892 C0.653234454,32.1159211 0.5,31.5136685 0.5,29.8722296 L0.5,29.8722296 L0.5,5.1277704 C0.5,3.48633153 0.653234454,2.88407891 0.975172007,2.28210802 C1.27649702,1.71867923 1.71867923,1.27649702 2.28210802,0.975172007 C2.88407891,0.653234454 3.48633153,0.5 5.1277704,0.5 L5.1277704,0.5 Z" id="Shape" stroke="#E2E2EA" fill="#FFFFFF" transform="translate(24.000000, 17.500000) rotate(-360.000000) translate(-24.000000, -17.500000) "></path>
                        <g id="表单-列表-03" transform="translate(15.000000, 8.000000)" fill="#72727B" fill-rule="nonzero">
                            <path d="M15.5000321,-2.16079909e-06 C16.6000334,-2.16079909e-06 17.5000149,0.800012442 17.5000149,1.90001372 L17.5000149,1.90001372 L17.5000149,16.9000136 C17.5000149,17.9000265 16.6000119,18.8000295 15.5000106,18.8000295 L15.5000106,18.8000295 L2.40000512,18.8000295 C1.30000384,18.8000295 0.400022324,17.9000265 0.400022324,16.8000252 L0.400022324,16.8000252 L0.400022324,1.90001372 C0.400022324,0.90000084 1.30000384,-2.16079909e-06 2.40000512,-2.16079909e-06 L2.40000512,-2.16079909e-06 Z M15.5000106,1.2999974 L2.40000512,1.2999974 C2.09999696,1.2999974 1.80001028,1.60000556 1.80001028,1.90001372 L1.80001028,1.90001372 L1.80001028,16.8000252 C1.80001028,17.1000119 2.09999696,17.40002 2.40000512,17.40002 L2.40000512,17.40002 L15.5000106,17.40002 C15.8000103,17.40002 16.1000269,17.1000119 16.1000269,16.8000252 L16.1000269,16.8000252 L16.1000269,1.90001372 C16.1000269,1.60000556 15.8000103,1.2999974 15.5000106,1.2999974 L15.5000106,1.2999974 Z M14.0000128,12.2000218 C14.4000093,12.2000218 14.7000175,12.5000085 14.7000175,12.9000265 C14.7000175,13.3000231 14.4000093,13.6000098 14.0000128,13.6000098 L14.0000128,13.6000098 L7.50001496,13.6000098 C7.2000068,13.6000098 6.90002012,13.3000231 6.80001024,12.9000265 C6.80001024,12.5000085 7.1000184,12.2000218 7.50001496,12.2000218 L7.50001496,12.2000218 Z M4.99998275,12.2000218 C5.39997931,12.2000218 5.6999832,12.5000085 5.6999832,12.9000265 C5.6999832,13.3000231 5.39997931,13.6000098 4.99998275,13.6000098 L4.99998275,13.6000098 L4.39998792,13.6000098 C3.99999136,13.6000098 3.6999832,13.3000231 3.6999832,12.9000265 C3.6999832,12.5000085 3.99999136,12.2000218 4.39998792,12.2000218 L4.39998792,12.2000218 Z M14.0000128,8.40001152 C14.4000093,8.40001152 14.7000175,8.6000098 14.7000175,9.00000636 C14.7000175,9.40001152 14.4000093,9.70001108 14.0000128,9.70001108 L14.0000128,9.70001108 L7.50001496,9.70001108 C7.2000068,9.70001108 6.80001024,9.5000128 6.80001024,9.10001624 C6.80001024,8.70001968 7.1000184,8.40001152 7.50001496,8.40001152 L7.50001496,8.40001152 Z M5.00000424,8.40001152 C5.4000008,8.40001152 5.69998748,8.6000098 5.69998748,9.00000636 C5.69998748,9.40001152 5.39997931,9.70001108 4.99998275,9.70001108 L4.99998275,9.70001108 L4.4000094,9.70001108 C4.00001284,9.70001108 3.70000468,9.5000128 3.70000468,9.10001624 C3.70000468,8.70001968 4.00001284,8.40001152 4.4000094,8.40001152 L4.4000094,8.40001152 Z M14.0000128,4.70001112 C14.4000093,4.70001112 14.7000175,5.00001928 14.7000175,5.40001584 C14.7000175,5.8000124 14.4000093,6.09999908 14.0000128,6.09999908 L14.0000128,6.09999908 L7.50001496,6.09999908 C7.1000184,6.09999908 6.80001024,5.80003389 6.80001024,5.40001584 C6.80001024,4.9999978 7.1000184,4.70001112 7.50001496,4.70001112 L7.50001496,4.70001112 Z M4.99998275,4.79999952 C5.29999092,4.79999952 5.6999832,5.00001928 5.6999832,5.40001584 C5.6999832,5.8000124 5.39997931,6.10002056 4.99998275,6.10002056 L4.99998275,6.10002056 L4.39998792,6.09999908 C3.99999136,6.09999908 3.6999832,5.700024 3.6999832,5.40001584 C3.6999832,5.10000768 3.99999136,4.79999952 4.39998792,4.79999952 L4.39998792,4.79999952 Z" id="形状结合"></path>
                        </g>
                    </g>
                </g>
            </g>
        </g>
    </g>
</svg>