<?xml version="1.0" encoding="UTF-8"?>
<svg width="48px" height="35px" viewBox="0 0 48 35" version="1.1" xmlns="http://www.w3.org/2000/svg" xmlns:xlink="http://www.w3.org/1999/xlink">
    <title>编组 12</title>
    <g id="pc" stroke="none" stroke-width="1" fill="none" fill-rule="evenodd">
        <g id="14" transform="translate(-1050.000000, -232.000000)">
            <g id="编组-53" transform="translate(101.000000, 76.000000)">
                <g id="编组-8" transform="translate(0.000000, 139.000000)">
                    <g id="编组-12" transform="translate(949.000000, 17.000000)">
                        <path d="M5.1277704,-4.28397322e-14 L42.8722296,-4.04220734e-14 C44.6552671,-4.39169229e-14 45.3018396,0.185651222 45.9536914,0.534265408 C46.6055433,0.882879593 47.1171204,1.39445674 47.4657346,2.04630859 C47.8143488,2.69816044 48,3.34473292 48,5.1277704 L48,29.8722296 C48,31.6552671 47.8143488,32.3018396 47.4657346,32.9536914 C47.1171204,33.6055433 46.6055433,34.1171204 45.9536914,34.4657346 C45.3018396,34.8143488 44.6552671,35 42.8722296,35 L5.1277704,35 C3.34473292,35 2.69816044,34.8143488 2.04630859,34.4657346 C1.39445674,34.1171204 0.882879593,33.6055433 0.534265408,32.9536914 C0.185651222,32.3018396 8.02470732e-17,31.6552671 -1.38112041e-16,29.8722296 L1.38112041e-16,5.1277704 C-8.02470732e-17,3.34473292 0.185651222,2.69816044 0.534265408,2.04630859 C0.882879593,1.39445674 1.39445674,0.882879593 2.04630859,0.534265408 C2.69816044,0.185651222 3.34473292,-4.25121935e-14 5.1277704,-4.28397322e-14 Z" id="Shape" fill="#FF117D" transform="translate(24.000000, 17.500000) rotate(-360.000000) translate(-24.000000, -17.500000) "></path>
                        <g id="表单-列表-03" transform="translate(15.000000, 8.000000)" fill="#FFFFFF" fill-rule="nonzero">
                            <path d="M15.5000321,-2.16079909e-06 C16.6000334,-2.16079909e-06 17.5000149,0.800012442 17.5000149,1.90001372 L17.5000149,1.90001372 L17.5000149,16.9000136 C17.5000149,17.9000265 16.6000119,18.8000295 15.5000106,18.8000295 L15.5000106,18.8000295 L2.40000512,18.8000295 C1.30000384,18.8000295 0.400022324,17.9000265 0.400022324,16.8000252 L0.400022324,16.8000252 L0.400022324,1.90001372 C0.400022324,0.90000084 1.30000384,-2.16079909e-06 2.40000512,-2.16079909e-06 L2.40000512,-2.16079909e-06 Z M15.5000106,1.2999974 L2.40000512,1.2999974 C2.09999696,1.2999974 1.80001028,1.60000556 1.80001028,1.90001372 L1.80001028,1.90001372 L1.80001028,16.8000252 C1.80001028,17.1000119 2.09999696,17.40002 2.40000512,17.40002 L2.40000512,17.40002 L15.5000106,17.40002 C15.8000103,17.40002 16.1000269,17.1000119 16.1000269,16.8000252 L16.1000269,16.8000252 L16.1000269,1.90001372 C16.1000269,1.60000556 15.8000103,1.2999974 15.5000106,1.2999974 L15.5000106,1.2999974 Z M14.0000128,12.2000218 C14.4000093,12.2000218 14.7000175,12.5000085 14.7000175,12.9000265 C14.7000175,13.3000231 14.4000093,13.6000098 14.0000128,13.6000098 L14.0000128,13.6000098 L7.50001496,13.6000098 C7.2000068,13.6000098 6.90002012,13.3000231 6.80001024,12.9000265 C6.80001024,12.5000085 7.1000184,12.2000218 7.50001496,12.2000218 L7.50001496,12.2000218 Z M4.99998275,12.2000218 C5.39997931,12.2000218 5.6999832,12.5000085 5.6999832,12.9000265 C5.6999832,13.3000231 5.39997931,13.6000098 4.99998275,13.6000098 L4.99998275,13.6000098 L4.39998792,13.6000098 C3.99999136,13.6000098 3.6999832,13.3000231 3.6999832,12.9000265 C3.6999832,12.5000085 3.99999136,12.2000218 4.39998792,12.2000218 L4.39998792,12.2000218 Z M14.0000128,8.40001152 C14.4000093,8.40001152 14.7000175,8.6000098 14.7000175,9.00000636 C14.7000175,9.40001152 14.4000093,9.70001108 14.0000128,9.70001108 L14.0000128,9.70001108 L7.50001496,9.70001108 C7.2000068,9.70001108 6.80001024,9.5000128 6.80001024,9.10001624 C6.80001024,8.70001968 7.1000184,8.40001152 7.50001496,8.40001152 L7.50001496,8.40001152 Z M5.00000424,8.40001152 C5.4000008,8.40001152 5.69998748,8.6000098 5.69998748,9.00000636 C5.69998748,9.40001152 5.39997931,9.70001108 4.99998275,9.70001108 L4.99998275,9.70001108 L4.4000094,9.70001108 C4.00001284,9.70001108 3.70000468,9.5000128 3.70000468,9.10001624 C3.70000468,8.70001968 4.00001284,8.40001152 4.4000094,8.40001152 L4.4000094,8.40001152 Z M14.0000128,4.70001112 C14.4000093,4.70001112 14.7000175,5.00001928 14.7000175,5.40001584 C14.7000175,5.8000124 14.4000093,6.09999908 14.0000128,6.09999908 L14.0000128,6.09999908 L7.50001496,6.09999908 C7.1000184,6.09999908 6.80001024,5.80003389 6.80001024,5.40001584 C6.80001024,4.9999978 7.1000184,4.70001112 7.50001496,4.70001112 L7.50001496,4.70001112 Z M4.99998275,4.79999952 C5.29999092,4.79999952 5.6999832,5.00001928 5.6999832,5.40001584 C5.6999832,5.8000124 5.39997931,6.10002056 4.99998275,6.10002056 L4.99998275,6.10002056 L4.39998792,6.09999908 C3.99999136,6.09999908 3.6999832,5.700024 3.6999832,5.40001584 C3.6999832,5.10000768 3.99999136,4.79999952 4.39998792,4.79999952 L4.39998792,4.79999952 Z" id="形状结合"></path>
                        </g>
                    </g>
                </g>
            </g>
        </g>
    </g>
</svg>