<?xml version="1.0" encoding="UTF-8"?>
<svg width="44px" height="44px" viewBox="0 0 44 44" version="1.1" xmlns="http://www.w3.org/2000/svg" xmlns:xlink="http://www.w3.org/1999/xlink">
    <title>编组 67</title>
    <defs>
        <rect id="path-1" x="0" y="0" width="36" height="36" rx="5"></rect>
        <filter x="-19.4%" y="-13.9%" width="138.9%" height="138.9%" filterUnits="objectBoundingBox" id="filter-2">
            <feOffset dx="0" dy="2" in="SourceAlpha" result="shadowOffsetOuter1"></feOffset>
            <feGaussianBlur stdDeviation="2" in="shadowOffsetOuter1" result="shadowBlurOuter1"></feGaussianBlur>
            <feColorMatrix values="0 0 0 0 0.756878397   0 0 0 0 0.756878397   0 0 0 0 0.756878397  0 0 0 0.5 0" type="matrix" in="shadowBlurOuter1"></feColorMatrix>
        </filter>
    </defs>
    <g id="pc" stroke="none" stroke-width="1" fill="none" fill-rule="evenodd">
        <g id="10" transform="translate(-274.000000, -273.000000)">
            <g id="编组-27" transform="translate(101.000000, 76.000000)">
                <g id="编组" transform="translate(15.000000, 195.000000)">
                    <g id="编组-67" transform="translate(162.000000, 4.000000)">
                        <g id="矩形备份-9">
                            <use fill="black" fill-opacity="1" filter="url(#filter-2)" xlink:href="#path-1"></use>
                            <use fill="#FFFFFF" fill-rule="evenodd" xlink:href="#path-1"></use>
                        </g>
                        <path d="M24.6133952,10.4086412 C24.365904,10.1469579 24.0302328,10.0000166 23.680245,10.0000166 L15.9771934,10.0000166 C15.6254921,9.99820596 15.2876355,10.1448324 15.0385483,10.4073961 C14.7895539,10.6700951 14.6499735,11.0269927 14.6507661,11.3989288 L14.6507661,12.7517547 L12.319755,12.7517547 C11.9698482,12.7517547 11.6340711,12.8986792 11.3866048,13.1603625 C11.139114,13.4220716 11,13.7770096 11,14.1471223 L11,25.6043267 C11,25.9749582 11.139531,26.3304408 11.387586,26.5923316 C11.6358257,26.8540759 11.9723378,27.0006397 12.3228949,26.9998514 L20.7128078,26.9998514 C21.0662471,27.0052973 21.4071265,26.8608631 21.6589103,26.5985572 C21.9108023,26.3363055 22.0526252,25.9781253 22.0525799,25.6043267 L22.0525799,23.1039127 L23.6635641,23.1039127 C24.0152785,23.1086188 24.3542178,22.9646627 24.6051383,22.7040024 C24.8560588,22.443342 24.9981975,22.0875462 25,21.7156009 L25,11.3951935 C25,11.0251845 24.8608615,10.6703245 24.6133952,10.4086412 Z M19.7082241,20.093621 C19.7082241,20.4478584 19.5408262,20.6248733 19.2058341,20.6248733 L17.0288762,20.6248733 L17.0288762,22.9268978 C17.0288762,23.2811352 16.8614783,23.4581501 16.5264862,23.4581501 L16.1914941,23.4581501 C15.8565021,23.4581501 15.6891041,23.2811352 15.6891041,22.9268978 L15.6891041,20.6248733 L13.5121462,20.6248733 C13.1771542,20.6248733 13.0097562,20.4476509 13.0097562,20.093621 L13.0097562,19.7393835 C13.0097562,19.3851461 13.1773504,19.2081312 13.5121462,19.2081312 L15.6891041,19.2081312 L15.6891041,16.9061067 C15.6891041,16.5518693 15.8566983,16.3748544 16.1914941,16.3748544 L16.5264862,16.3748544 C16.8614783,16.3748544 17.0288762,16.5518693 17.0288762,16.9061067 L17.0288762,19.2081312 L19.2058341,19.2081312 C19.5408262,19.2081312 19.7082241,19.3851461 19.7082241,19.7393835 L19.7082241,20.093621 L19.7082241,20.093621 Z M23.7273441,21.3650988 C23.7267553,21.5719967 23.5854582,21.7485966 23.392352,21.783045 L22.0525799,21.783045 L22.0525799,14.1471223 C22.0525799,13.7733779 21.9108903,13.4151976 21.6589103,13.1528918 C21.4071137,12.8905242 21.0662654,12.7460083 20.7128078,12.7517547 L15.9000687,12.7517547 L15.9000687,11.8805838 C15.9000687,11.567643 16.1398814,11.3138455 16.4358205,11.3138455 L23.1911998,11.3138455 C23.4871389,11.3138455 23.7271478,11.567643 23.7271478,11.8805838 L23.7271478,21.3650988 L23.7273441,21.3650988 Z" id="形状" fill="#FF127D" fill-rule="nonzero"></path>
                    </g>
                </g>
            </g>
        </g>
    </g>
</svg>