<?xml version="1.0" encoding="UTF-8"?>
<svg width="14px" height="14px" viewBox="0 0 14 14" version="1.1" xmlns="http://www.w3.org/2000/svg" xmlns:xlink="http://www.w3.org/1999/xlink">
    <title>形状</title>
    <g id="pc" stroke="none" stroke-width="1" fill="none" fill-rule="evenodd">
        <g id="10" transform="translate(-653.000000, -989.000000)">
            <g id="编组-52备份" transform="translate(101.000000, 856.000000)">
                <g id="编组-61" transform="translate(21.000000, 80.250000)">
                    <g id="编组-60" transform="translate(0.000000, 0.750000)">
                        <g id="编组-29" transform="translate(172.000000, 2.000000)">
                            <g id="编组-56" transform="translate(2.000000, 44.000000)">
                                <g id="编组-20" transform="translate(168.000000, 0.000000)">
                                    <rect id="矩形" fill="#A68795" opacity="0.120464" x="0" y="0" width="214" height="26" rx="2.9568"></rect>
                                    <path d="M193.349102,15.5038872 L193.349802,15.5038872 C193.636802,15.7908871 194.1023,15.7908871 194.389299,15.5038872 L202.43648,7.45740377 C202.72418,7.16970388 202.72418,6.70280541 202.43648,6.41510688 L202.43438,6.4130069 L202.43438,6.41300691 C202.146781,6.12653748 201.681407,6.1274535 201.394938,6.41505159 C201.394919,6.41507002 201.394901,6.41508844 201.394883,6.41510687 L193.349096,14.4615903 L193.349096,14.4615902 C193.061705,14.7495909 193.061705,15.2158864 193.349096,15.5038871 L193.349102,15.5038872 Z M202.263586,11.893994 L202.260086,11.893994 C201.854787,11.893994 201.526487,12.2222939 201.526487,12.6268923 L201.526487,18.5257848 L190.473518,18.5257848 L190.473518,7.47140787 L196.371699,7.47420786 L196.372399,7.47420786 L196.372399,7.47420786 C196.778326,7.473051 197.106457,7.14304508 197.105301,6.73711769 C197.1053,6.73688158 197.105299,6.73664547 197.105298,6.73640936 L197.105298,6.73360938 C197.105998,6.32831089 196.776998,6.00000548 196.3717,6.00000548 L189.732215,6.00000548 L189.732215,6.00000548 C189.329383,5.99845998 189.001565,6.32376226 189.000009,6.72659571 C189.000009,6.72870031 189.000009,6.73080493 189.000009,6.73290954 L189.000009,19.2677859 L189.000009,19.2677846 C188.998077,19.6702284 189.32275,19.9980471 189.725194,20.0000055 C189.727767,20.0000055 189.730341,20.0000055 189.732914,20.0000055 L202.267792,20.0000055 L202.267792,20.0000055 C202.671012,20.0011499 202.998832,19.6752191 203.000009,19.2719987 C203.000009,19.2701278 203.000009,19.2682569 203.000009,19.266386 L203.000009,12.6275994 L203.000009,12.6276054 C202.998837,12.2219501 202.669255,11.8939305 202.263599,11.8947015 L202.263586,11.893994 Z" id="形状" fill="#FF117D" fill-rule="nonzero"></path>
                                </g>
                            </g>
                        </g>
                    </g>
                </g>
            </g>
        </g>
    </g>
</svg>