<?xml version="1.0" encoding="UTF-8"?>
<svg width="20px" height="20px" viewBox="0 0 20 20" version="1.1" xmlns="http://www.w3.org/2000/svg" xmlns:xlink="http://www.w3.org/1999/xlink">
    <title>形状备份 3</title>
    <g id="pc" stroke="none" stroke-width="1" fill="none" fill-rule="evenodd">
        <g id="10" transform="translate(-529.000000, -272.000000)" fill="#ADADAD" fill-rule="nonzero">
            <g id="编组-8" transform="translate(349.000000, 76.000000)">
                <g id="编组-30" transform="translate(26.000000, 78.000000)">
                    <g id="编组-29" transform="translate(22.000000, 111.000000)">
                        <g id="编组-47备份" transform="translate(121.000000, 0.000000)">
                            <g id="编组-12" transform="translate(11.000000, 7.000000)">
                                <path d="M9.36475,3 L9.36475,9.36475 L3,9.36475 L3,3 L9.36475,3 Z M9.36475,10.63525 L9.36475,17 L3,17 L3,10.63525 L9.36475,10.63525 Z M4.2705,8.089 L8.089,8.089 L8.089,4.2705 L4.2705,4.2705 L4.2705,8.089 L4.2705,8.089 Z M4.2705,15.719 L8.089,15.719 L8.089,11.911 L4.2705,11.911 L4.2705,15.719 L4.2705,15.719 Z M6.81675,5.54625 L6.81675,6.8185 L5.54625,6.8185 L5.54625,5.54625 L6.81675,5.54625 Z M6.81675,13.18325 L6.81675,14.4555 L5.54625,14.4555 L5.54625,13.18325 L6.81675,13.18325 Z M17,3 L17,9.36475 L10.63525,9.36475 L10.63525,3 L17,3 Z M17,10.63525 L17,14.45375 L13.1815,14.45375 L13.1815,13.1815 L11.90925,13.1815 L11.90925,17 L10.637,17 L10.637,10.63525 L14.45725,10.63525 L14.45725,11.9075 L15.7295,11.9075 L15.7295,10.63525 L17,10.63525 Z M11.911,8.089 L15.7295,8.089 L15.7295,4.2705 L11.911,4.2705 L11.911,8.089 L11.911,8.089 Z M14.45375,5.54625 L14.45375,6.8185 L13.1815,6.8185 L13.1815,5.54625 L14.45375,5.54625 Z M14.45375,15.7295 L14.45375,17 L13.1815,17 L13.1815,15.72775 L14.45375,15.7295 Z M17,15.7295 L17,17 L15.72775,17 L15.72775,15.72775 L17,15.7295 Z" id="形状"></path>
                            </g>
                        </g>
                    </g>
                </g>
            </g>
        </g>
    </g>
</svg>