<?xml version="1.0" encoding="UTF-8"?>
<svg width="16px" height="17px" viewBox="0 0 16 17" version="1.1" xmlns="http://www.w3.org/2000/svg" xmlns:xlink="http://www.w3.org/1999/xlink">
    <title>形状</title>
    <g id="pc" stroke="none" stroke-width="1" fill="none" fill-rule="evenodd">
        <g id="14" transform="translate(-1212.000000, -146.000000)" fill-rule="nonzero">
            <g id="编组-53" transform="translate(101.000000, 76.000000)">
                <g id="编组-7" transform="translate(22.000000, 61.000000)">
                    <g id="编组-2" transform="translate(883.000000, 0.000000)">
                        <g id="btn_Dropdown_outline备份-2" transform="translate(183.000000, 0.000000)">
                            <g id="编组" transform="translate(22.450949, 9.500000)">
                                <g id="导出" transform="translate(0.549051, 0.000000)">
                                    <rect id="矩形" fill="#000000" opacity="0" x="0" y="0" width="16" height="16"></rect>
                                    <path d="M11.7336272,15.9999949 L3.05846947,15.9999949 C2.38718602,16.0010232 1.74512997,15.7254418 1.28345782,15.2381212 C0.82178567,14.7508006 0.581286992,14.0947965 0.618581359,13.424549 L0.618581359,2.71615122 C0.554458863,2.03793191 0.748030547,1.36043102 1.16077872,0.818460469 C1.73574009,0.252191302 2.5240367,-0.0434199245 3.32956814,0.0051644375 L10.9203311,0.0051644375 L11.4625285,0.276263109 L14.0379659,3.25834856 C14.2086265,3.386344 14.3090646,3.5872202 14.3090646,3.80054592 L14.3090646,4.61384195 C14.2544107,4.96302234 13.9804983,5.23693472 13.6313179,5.29158866 C13.2570087,5.29158865 12.9535712,4.98815112 12.9535712,4.61384195 L12.9535712,4.07164461 L10.6492325,1.36065783 L3.32956814,1.36065783 C2.92547569,1.32719422 2.52762317,1.47638891 2.24517342,1.76730584 C2.05873246,2.04788389 1.96400572,2.37942746 1.97407475,2.71615122 L1.97407475,13.424549 C1.97407475,14.644493 2.92292013,14.644493 3.05846947,14.644493 L11.7336272,14.644493 C12.3880062,14.6576897 12.9583512,14.2014137 13.0891206,13.5600983 C13.2155809,13.2358202 13.5671179,13.0600517 13.9024166,13.1534503 C14.3090646,13.1534503 14.444614,13.5600983 14.444614,13.9667464 C14.051238,15.1419754 12.9719923,15.9514097 11.7336272,15.9999949 Z M14.5801633,9.76471684 L6.85385095,9.76471684 C6.4795418,9.76471684 6.17610427,9.46127931 6.17610427,9.08697016 C6.17610427,8.71266099 6.47954179,8.40922346 6.85385095,8.40922345 L13.0891206,8.40922345 L11.8691765,7.18927941 C11.7336272,6.91818073 11.7336272,6.37598337 12.0047258,6.24043403 C12.2682632,5.98211571 12.6900338,5.98211571 12.9535712,6.24043403 L15.1223606,8.68032214 C15.2541643,8.72959145 15.3511304,8.84349855 15.3787262,8.98147731 C15.4063219,9.11945608 15.3606251,9.26189575 15.25791,9.35806883 C15.1425974,9.62495315 14.8699142,9.78856305 14.5801633,9.76471684 L14.5801633,9.76471684 Z M12.2758245,11.9335063 L11.7336272,11.9335063 C11.4341799,11.8960753 11.2217736,11.6229816 11.2592045,11.3235343 C11.2966354,11.0240869 11.5697292,10.8116807 11.8691765,10.8491116 L14.1735153,8.68032214 C14.44334,8.47795365 14.8209089,8.50478667 15.0594025,8.74328026 C15.2978961,8.98177385 15.3247291,9.35934278 15.1223606,9.6291675 L12.6824725,11.7979569 L12.2758245,11.9335063 Z" id="形状" fill="#72727B"></path>
                                </g>
                            </g>
                        </g>
                    </g>
                </g>
            </g>
        </g>
    </g>
</svg>