<?xml version="1.0" encoding="UTF-8"?>
<svg width="102px" height="33px" viewBox="0 0 102 33" version="1.1" xmlns="http://www.w3.org/2000/svg" xmlns:xlink="http://www.w3.org/1999/xlink">
    <!-- Generator: Sketch 60.1 (88133) - https://sketch.com -->
    <title>编组 16</title>
    <desc>Created with Sketch.</desc>
    <defs>
        <linearGradient x1="50%" y1="0%" x2="50%" y2="100%" id="linearGradient-1">
            <stop stop-color="#FF757A" offset="0%"></stop>
            <stop stop-color="#FF3451" offset="100%"></stop>
        </linearGradient>
        <linearGradient x1="50%" y1="0%" x2="50%" y2="100%" id="linearGradient-2">
            <stop stop-color="#FF9D3C" offset="0%"></stop>
            <stop stop-color="#FF641C" offset="100%"></stop>
        </linearGradient>
        <rect id="path-3" x="0" y="0" width="95" height="25" rx="2"></rect>
    </defs>
    <g id="pc" stroke="none" stroke-width="1" fill="none" fill-rule="evenodd">
        <g id="桃子搜索-pc-03" transform="translate(-1106.000000, -138.000000)">
            <g id="编组-45" transform="translate(0.000000, 134.000000)">
                <g id="编组-44" transform="translate(952.000000, 4.500000)">
                    <g id="编组-19">
                        <g id="编组-17">
                            <g id="编组-22" transform="translate(153.000000, 0.000000)">
                                <g id="编组-16">
                                    <g id="编组-6备份" transform="translate(8.000000, 6.500000)">
                                        <g id="矩形">
                                            <use fill="url(#linearGradient-1)" xlink:href="#path-3"></use>
                                            <use fill="url(#linearGradient-2)" xlink:href="#path-3"></use>
                                        </g>
                                    </g>
                                    <g id="红包" fill-rule="nonzero">
                                        <path d="M2.49480691,7.77232242 C2.49480691,7.77232242 2.58524483,7.76280262 2.63284367,7.81992125 C2.6804425,7.88179987 2.74232112,8.71954048 2.96127687,8.94801599 C3.18023178,9.17649067 4.07033152,9.04797368 4.07033152,9.34784675 C4.07033152,9.58584121 3.24686988,9.61440051 2.96603689,9.84287519 C2.6852039,10.0713499 2.84703966,11.0423675 2.5043286,11.0042873 C2.23777484,10.975728 2.42341044,10.2046258 2.09497779,9.89523268 C1.76654459,9.58583956 0.96688305,9.64771846 0.96688305,9.36688409 C0.96688305,9.0860511 1.78558467,9.25740663 2.06641766,8.9384932 C2.34249063,8.62434006 2.22349396,7.77232104 2.49480855,7.77232104 L2.49480691,7.77232242 Z" id="路径" fill="#FFBB5A"></path>
                                        <path d="M32.482142,1.00375949 C32.482142,1.00375949 32.5440206,0.99899961 32.5773396,1.03707882 C32.6106589,1.07515788 32.6534978,1.64158499 32.8010546,1.79866018 C32.9486111,1.95573648 33.5483586,1.86529855 33.5483586,2.06997396 C33.5483586,2.23181027 32.9914527,2.25084981 32.8010546,2.40316718 C32.6106589,2.56024347 32.7201364,3.21234876 32.4869014,3.18854865 C32.3060256,3.16950906 32.4345426,2.65068002 32.2108285,2.4412446 C31.9871135,2.23180945 31.4492471,2.27464854 31.4492471,2.08425402 C31.4492471,1.8938584 32.001393,2.00809588 32.1917911,1.79390099 C32.3821867,1.57970581 32.3012686,1.00375949 32.4821442,1.00375949 L32.482142,1.00375949 Z" id="路径" fill="#E94151"></path>
                                        <path d="M37.1467976,11.3850739 C37.1467976,11.3850739 37.2372355,11.3755541 37.2895944,11.4374327 C37.3419532,11.4993114 37.3990718,12.351332 37.6227876,12.5845676 C37.8465025,12.8178023 38.7461223,12.6845253 38.7461223,12.9891584 C38.7461223,13.2319128 37.9083806,13.2604721 37.6227876,13.4937068 C37.3371946,13.7269415 37.4990304,14.7122392 37.1515593,14.6741591 C36.8802455,14.6455998 37.0706411,13.8649775 36.7374484,13.5508243 C36.4042552,13.2366712 35.5903136,13.2985501 35.5903136,13.0129557 C35.5903136,12.7273627 36.4232953,12.9034783 36.7041283,12.5750448 C36.9944813,12.2466116 36.8754844,11.3850725 37.1467992,11.3850725 L37.1467976,11.3850739 Z" id="路径" fill="#FF0000"></path>
                                        <path d="M6.19801252,1.00375949 C6.19801252,1.52258804 6.62164339,1.94621891 7.14047193,1.94621891 C7.65930048,1.94621891 8.08293135,1.52258804 8.08293135,1.00375949 C8.08293135,0.48493095 7.65930048,0.0613000776 7.14047193,0.0613000776 C6.61688337,0.0613000776 6.19801252,0.48493095 6.19801252,1.00375949 M31.5682344,9.39068557 C31.5682344,9.90475409 31.9871053,10.3188649 32.4964138,10.3188649 C33.0104823,10.3188649 33.4293531,9.89999407 33.4293531,9.39068557 C33.4293531,8.87661705 33.0104823,8.4577462 32.4964138,8.4577462 C31.9823452,8.46250608 31.5682344,8.87661705 31.5682344,9.39068557" id="形状" fill="#FFEB00"></path>
                                        <path d="M6.67876089,8.82900859 C6.67876089,12.4132054 12.0241105,15.3167358 18.6165747,15.3167358 C25.2090113,15.3167358 30.5543884,12.4132054 30.5543884,8.82900859 C30.5543884,5.24481175 25.2137933,2.34603593 18.6213567,2.34603593 C12.024138,2.34603593 6.67876089,5.24956627 6.67876089,8.82900859 L6.67876089,8.82900859 Z" id="路径" fill="#C00738"></path>
                                        <path d="M20.8157483,9.94283151 C20.8157483,12.3370561 22.7577847,14.2743407 25.1472575,14.2743407 C27.541482,14.2743407 29.4787666,12.3323043 29.4787666,9.94283151 C29.4787666,7.55336695 27.5367303,5.61132237 25.1472575,5.61132237 C22.7530329,5.61132237 20.8157483,7.54859868 20.8157483,9.94283151" id="路径" fill="#F4AD51"></path>
                                        <path d="M21.5202149,9.94283151 C21.5202149,11.2375215 22.2103987,12.4370138 23.3337334,13.0843629 C24.4570682,13.7317093 25.8374358,13.7317093 26.960776,13.0843629 C28.0841107,12.4370165 28.7742945,11.2375242 28.7742945,9.94283151 C28.7742945,8.64814154 28.0841107,7.44864923 26.960776,6.80130013 L26.9607761,6.80130022 C25.8384171,6.15395111 24.4560982,6.15395111 23.3337336,6.80130003 C22.2103989,7.44864639 21.5202149,8.64813869 21.5202149,9.94283141" id="路径" fill="#F4E476"></path>
                                        <path d="M26.58928,10.4188336 L25.5087854,10.4188336 L25.5087854,9.66677228 L26.58928,9.66677228 C26.7891954,9.66677228 26.9462706,9.50493597 26.9462706,9.3097817 C26.9462706,9.10986632 26.7844342,8.95279112 26.58928,8.95279112 L25.9704937,8.95279112 L26.3655645,8.27212736 C26.4607624,8.10077128 26.3988838,7.88657666 26.2322875,7.79137899 C26.0656914,7.69618104 25.8467368,7.7485399 25.7467791,7.91513624 L25.1470329,8.93851326 L24.5568068,7.91037621 C24.4568491,7.74378015 24.2378937,7.68666128 24.0712984,7.78661897 C23.9047024,7.88181691 23.8428237,8.09601209 23.9380214,8.26736734 L24.3283321,8.9480311 L23.7095459,8.9480311 C23.5096305,8.9480311 23.3525553,9.10986742 23.3525553,9.30502168 C23.3525553,9.50493707 23.5143916,9.66201226 23.7095459,9.66201226 L24.7900404,9.66201226 L24.7900404,10.4140763 L23.7095459,10.4140763 C23.5096305,10.4140763 23.3525553,10.5759126 23.3525553,10.7710669 C23.3525553,10.9709823 23.5143916,11.1280575 23.7095459,11.1280575 L24.7900404,11.1280575 L24.7900404,11.7849211 C24.7900404,11.9848365 24.9518767,12.1419117 25.147031,12.1419117 C25.3469464,12.1419117 25.5040216,11.9800754 25.5040216,11.7849211 L25.5040216,11.1280575 L26.5845161,11.1280575 C26.7130331,11.1280575 26.8320303,11.0614191 26.8939092,10.9471816 C26.9557878,10.8377042 26.9557878,10.6996674 26.8939092,10.5901911 C26.8320306,10.4902334 26.7177934,10.418835 26.5892761,10.418835 L26.58928,10.4188336 Z M7.75913725,9.94284525 C7.75913725,12.3370698 9.70117358,14.2743544 12.0906464,14.2743544 C14.484871,14.2743544 16.4221555,12.3323181 16.4221555,9.94284525 C16.4221555,7.55338069 14.4801192,5.61133611 12.0906464,5.61133611 C9.70118182,5.61133611 7.75913725,7.54861242 7.75913725,9.94284525" id="形状" fill="#F4AD51"></path>
                                        <path d="M8.46370829,9.94283151 C8.46370829,11.2375215 9.15389759,12.4370138 10.2772323,13.0843629 C11.400567,13.7317093 12.7809346,13.7317093 13.9042748,13.0843629 C15.0276096,12.4370165 15.7177934,11.2375242 15.7177934,9.94283151 C15.7177934,7.93891765 14.0946702,6.31578898 12.0907508,6.31578898 C10.086837,6.31578898 8.46370829,7.93891216 8.46370829,9.94283151" id="路径" fill="#F4E476"></path>
                                        <path d="M13.5329987,10.4188336 L12.4525042,10.4188336 L12.4525042,9.66677228 L13.5329987,9.66677228 C13.7329141,9.66677228 13.8899893,9.50493597 13.8899893,9.3097817 C13.8899893,9.10986632 13.728153,8.95279112 13.5329987,8.95279112 L12.9142125,8.95279112 L13.3092832,8.27212736 C13.4044812,8.10077128 13.3426025,7.88657666 13.1760062,7.79137899 C13.0094101,7.69618104 12.7904555,7.7485399 12.6904978,7.91513624 L12.1002717,8.94327328 L11.5100456,7.91513624 C11.4100879,7.74854017 11.1911324,7.6914213 11.0245372,7.79137899 C10.8579411,7.88657693 10.7960625,8.10077211 10.8912602,8.27212736 L11.2863309,8.95279112 L10.6675447,8.95279112 C10.4676293,8.95279112 10.3105541,9.11462744 10.3105541,9.3097817 C10.3105541,9.50969709 10.4723904,9.66677228 10.6675447,9.66677228 L11.7480392,9.66677228 L11.7480392,10.4188336 L10.6675447,10.4188336 C10.4676293,10.4188336 10.3105541,10.5806699 10.3105541,10.7758242 C10.3105541,10.9757396 10.4723904,11.1328148 10.6675447,11.1328148 L11.7480392,11.1328148 L11.7480392,11.7896784 C11.7480392,11.9895938 11.9098755,12.146669 12.1050298,12.146669 C12.3049452,12.146669 12.4620204,11.9848327 12.4620204,11.7896784 L12.4620204,11.1328148 L13.5329948,11.1328148 C13.6615118,11.1328148 13.7805091,11.0661764 13.842388,10.9519389 C13.9042666,10.8424615 13.9042666,10.7044247 13.842388,10.5949483 C13.7805093,10.4902306 13.6615121,10.4188325 13.5329948,10.4188325 L13.5329987,10.4188336 Z" id="路径" fill="#F4AD51"></path>
                                        <path d="M12.4572669,8.11503293 C12.4572669,11.5183655 15.2179966,14.2743407 18.6213292,14.2743407 C22.0246617,14.2743407 24.7853914,11.5183655 24.7853914,8.11503293 C24.7853914,4.71170039 22.0246617,1.95572521 18.6213292,1.95572521 C15.2179966,1.95572521 12.4572669,4.71170039 12.4572669,8.11503293 L12.4572669,8.11503293 Z" id="路径" fill="#FFBB5A"></path>
                                        <path d="M13.4615874,8.11503293 C13.4615874,9.95711157 14.4468952,11.6611386 16.0414583,12.5798062 C17.6360213,13.5032255 19.601855,13.5032255 21.2011891,12.5798062 C22.7957521,11.6563868 23.781049,9.95710608 23.781049,8.11503293 C23.781049,5.26861185 21.472502,2.95530213 18.6213182,2.95530213 C15.7701426,2.95530213 13.4615874,5.26384908 13.4615874,8.11503293" id="路径" fill="#FFF48D"></path>
                                        <path d="M20.6680832,8.79569944 L19.1306377,8.79569944 L19.1306377,7.72472495 L20.6680832,7.72472495 C20.9489162,7.72472495 21.1773917,7.49625027 21.1773917,7.21541645 C21.1773917,6.93458346 20.948917,6.70610795 20.6680832,6.70610795 L19.7875041,6.70610795 L20.3444101,5.73985118 C20.472927,5.49709671 20.3872491,5.19722253 20.1492544,5.05918742 C19.91126,4.92115066 19.6066258,4.9973088 19.4638306,5.2305435 L18.6213289,6.69182871 L17.7788272,5.2305435 C17.6883893,5.07346721 17.5217932,4.97350952 17.3361562,4.97350952 C17.1552804,4.97350952 16.9839257,5.06870746 16.8934853,5.2305435 C16.8030474,5.3876198 16.8030474,5.58277406 16.8934853,5.739852 L17.4503912,6.70610878 L16.5698121,6.70610878 C16.2889791,6.70610878 16.0605036,6.93458346 16.0605036,7.21541728 C16.0605036,7.49625027 16.2889783,7.72472578 16.5698121,7.72472578 L18.1072576,7.72472578 L18.1072576,8.79570026 L16.5698121,8.79570026 C16.2889791,8.79570026 16.0605036,9.02417495 16.0605036,9.30500876 C16.0605036,9.58584176 16.2889783,9.81431727 16.5698121,9.81431727 L18.1072576,9.81431727 L18.1072576,10.7472566 C18.1072576,11.0280896 18.3357323,11.2565651 18.6165661,11.2565651 C18.8973991,11.2565651 19.1258746,11.0280905 19.1258746,10.7472566 L19.1258746,9.81431727 L20.6633202,9.81431727 C20.844196,9.81431727 21.0155507,9.71911932 21.1059911,9.55728328 C21.1964291,9.40020699 21.1964291,9.20505272 21.1059911,9.04797478 C21.0203132,8.89089848 20.8489572,8.79570054 20.6680802,8.79570054 L20.6680832,8.79569944 Z" id="路径" fill="#FFBB5A"></path>
                                        <path d="M18.6498838,11.1708729 C13.7900453,11.1708729 9.47282724,10.0903784 6.71207005,8.41489776 L6.71207005,29.6582777 C6.71207005,30.9958078 7.7973246,32.0810624 9.13485476,32.0810624 L28.1649074,32.0810624 C29.5024375,32.0810624 30.5876921,30.9958078 30.5876921,29.6582777 L30.5876921,8.41011575 C27.8269624,10.0903564 23.5097443,11.1708455 18.6498783,11.1708455 L18.6498838,11.1708729 Z" id="路径" fill="#FF2D65"></path>
                                        <path d="M17.2742597,24.8317758 L14.2564834,24.8317758 L14.2564834,23.4847256 L17.2742597,23.4847256 L17.2742597,22.5470262 L14.2564834,22.5470262 L14.2564834,21.199976 L16.6983082,21.199976 L13.0712657,15.4119609 L16.3555977,15.4119609 L17.5455699,18.039421 C18.1405561,19.338871 18.2785939,19.6815843 18.6546246,20.5098032 L18.7498225,20.5098032 C19.1401333,19.6815816 19.3114885,19.2722307 19.8588772,18.039421 L21.0155293,15.4119609 L24.2379701,15.4119609 L20.6109275,21.199976 L23.0527523,21.199976 L23.0527523,22.5470262 L20.0635306,22.5470262 L20.0635306,23.4847256 L23.0527523,23.4847256 L23.0527523,24.8317758 L20.0635306,24.8317758 L20.0635306,27.1165227 L17.2790008,27.1165227 L17.2790008,24.8317758 L17.2742597,24.8317758 Z" id="路径" fill="#FFFFFF"></path>
                                    </g>
                                </g>
                            </g>
                        </g>
                    </g>
                </g>
            </g>
        </g>
    </g>
</svg>