<?xml version="1.0" encoding="UTF-8"?>
<svg width="20px" height="20px" viewBox="0 0 20 20" version="1.1" xmlns="http://www.w3.org/2000/svg" xmlns:xlink="http://www.w3.org/1999/xlink">
    <title>形状备份 3</title>
    <g id="pc" stroke="none" stroke-width="1" fill="none" fill-rule="evenodd">
        <g id="10" transform="translate(-408.000000, -272.000000)" fill="#ADADAD" fill-rule="nonzero">
            <g id="编组-8" transform="translate(349.000000, 76.000000)">
                <g id="编组-30" transform="translate(26.000000, 78.000000)">
                    <g id="编组-29" transform="translate(22.000000, 111.000000)">
                        <g id="编组-46" transform="translate(11.000000, 7.000000)">
                            <g id="粉丝" transform="translate(2.000000, 3.000000)">
                                <path d="M7.28835797,9.67601813 C7.28835797,9.67601813 9.97807306,10.0704314 10.9347776,4.83819105 C11.4163022,2.20506614 10.1076874,0 7.28835797,0 C4.39867732,0 3.05731389,2.20540099 3.55098932,4.83816193 C4.53352267,10.0796035 7.28835797,9.67600357 7.28835797,9.67600357 L7.28835797,9.67600357 L7.28835797,9.67601813 Z M9.37393977,10.9201839 C9.37393977,10.8259856 9.38194223,10.7339269 9.38788158,10.6411682 C8.77885943,10.5763858 8.09771138,10.5349412 7.32287141,10.5349412 C4.44469224,10.5349412 2.75840096,11.0741668 1.86367338,11.4682409 C1.06373836,11.8198105 0.5,12.2843435 0.5,13.5670713 L0.5,14.9082527 L11.9671184,14.9082527 C10.442503,14.2472351 9.37394296,12.7106261 9.37394296,10.920181 L9.37394296,10.920181 L9.37393977,10.9201839 Z M13.0165013,11.2192965 C13.1370177,11.0671771 13.2647658,10.9299456 13.3998499,10.8074971 C13.5166569,10.7073268 13.6489894,10.6164532 13.7968474,10.5348131 C13.9447273,10.4531944 14.0989621,10.4179336 14.2596159,10.4290942 C14.4859562,10.4476247 14.6748484,10.5023266 14.8263752,10.5932218 C14.9779021,10.6841164 15.0983342,10.7991317 15.1878201,10.938269 C15.2772436,11.0773851 15.3383875,11.2350741 15.371273,11.4112724 C15.4041374,11.587491 15.4150783,11.7683481 15.4041374,11.9538436 C15.3931756,12.1393595 15.3612491,12.3164896 15.3082951,12.4852963 C15.255362,12.6541249 15.1896334,12.8117927 15.1111511,12.9583201 C15.0326893,13.1048489 14.9459753,13.2402999 14.8510284,13.3645915 C14.7561241,13.4888619 14.6611783,13.6011041 14.5662533,13.701231 C14.4202282,13.8533708 14.2678278,13.9952612 14.109007,14.1269648 C13.950208,14.2586686 13.7986811,14.3718414 13.65447,14.4664214 C13.5102795,14.5610432 13.3788641,14.6361818 13.2602227,14.6918358 C13.14154,14.7474907 13.0493861,14.7752969 12.9836573,14.7752969 C12.9106347,14.779003 12.8175439,14.7530392 12.7043621,14.6973632 C12.591202,14.6417296 12.4670808,14.5666124 12.3319967,14.4720114 C12.1969132,14.3773896 12.0545141,14.2651479 11.9048639,14.1353297 C11.7551918,14.0054683 11.6073134,13.8681941 11.4612883,13.7235084 C11.3663839,13.6307503 11.2641442,13.523189 11.1546094,13.4007609 C11.0450963,13.2782906 10.9419398,13.1438339 10.8452226,12.9972847 C10.7484634,12.8507559 10.6654166,12.6921564 10.5960409,12.5215079 C10.526686,12.3508376 10.4883616,12.1690488 10.4810677,11.9761195 C10.4737739,11.7831917 10.4938218,11.6023332 10.5412949,11.4335264 C10.5887471,11.26474 10.6599358,11.1135742 10.7548817,10.9799853 C10.8497652,10.846439 10.9666137,10.7342191 11.1053229,10.6433458 C11.2440535,10.5524089 11.401039,10.4884107 11.5763026,10.4513061 C11.6638923,10.4327545 11.751524,10.4300014 11.8391347,10.4430044 C11.926766,10.4559863 12.0125216,10.4782441 12.0965275,10.5097564 C12.1804911,10.5412687 12.2608079,10.5811886 12.3374777,10.6294102 C12.4141474,10.6776318 12.4871701,10.7277168 12.5565255,10.7796442 C12.7171589,10.9020935 12.8704983,11.0486434 13.0165016,11.2192918 L13.0165016,11.2192918 L13.0165013,11.2192965 Z" id="形状"></path>
                            </g>
                        </g>
                    </g>
                </g>
            </g>
        </g>
    </g>
</svg>