<?xml version="1.0" encoding="UTF-8"?>
<svg width="51px" height="51px" viewBox="0 0 51 51" version="1.1" xmlns="http://www.w3.org/2000/svg" xmlns:xlink="http://www.w3.org/1999/xlink">
    <title>编组 51</title>
    <defs>
        <circle id="path-1" cx="17.5" cy="17.5" r="17.5"></circle>
        <filter x="-37.1%" y="-31.4%" width="174.3%" height="174.3%" filterUnits="objectBoundingBox" id="filter-2">
            <feOffset dx="0" dy="2" in="SourceAlpha" result="shadowOffsetOuter1"></feOffset>
            <feGaussianBlur stdDeviation="4" in="shadowOffsetOuter1" result="shadowBlurOuter1"></feGaussianBlur>
            <feColorMatrix values="0 0 0 0 0.620329484   0 0 0 0 0.44248121   0 0 0 0 0.489283387  0 0 0 0.149393575 0" type="matrix" in="shadowBlurOuter1"></feColorMatrix>
        </filter>
    </defs>
    <g id="pc" stroke="none" stroke-width="1" fill="none" fill-rule="evenodd">
        <g id="桃子搜索-pc-06" transform="translate(-932.000000, -63.000000)">
            <g id="编组-53-+-编组-53备份-+-编组-53备份-2蒙版" transform="translate(428.000000, 48.000000)">
                <g id="编组-49" transform="translate(240.000000, 21.000000)">
                    <g id="编组-51" transform="translate(272.000000, 0.000000)">
                        <g id="椭圆形备份">
                            <use fill="black" fill-opacity="1" filter="url(#filter-2)" xlink:href="#path-1"></use>
                            <use fill="#FFFFFF" fill-rule="evenodd" xlink:href="#path-1"></use>
                        </g>
                        <g id="分享" transform="translate(10.500000, 9.000000)" fill="#494949" fill-rule="nonzero">
                            <path d="M16.9139937,3.89898417 L12.3957793,7.4991659 L12.4315717,5.66461835 C12.4315717,5.66461835 10.1732282,5.16923686 7.45567507,7.00606992 C4.73850863,8.84252205 3.64492474,12.2298535 3.64492474,12.2298535 C3.64492474,12.2298535 3.69214026,7.24519773 6.57494143,4.35820355 C9.14741689,1.78230563 12.4330799,2.31079609 12.4330799,2.31079609 L12.4330799,0.370780553 L16.9139937,3.89899384 L16.9139937,3.89898417 Z M5.56819379,3.63587203 L1.74831689,3.63587203 L1.74831689,3.63587203 C1.71004406,3.63566115 1.67884684,3.66651643 1.67863608,3.70478926 C1.67863468,3.70504381 1.67863468,3.70529836 1.67863608,3.70555291 L1.67863608,14.399847 C1.67863608,14.4375432 1.70871684,14.4695278 1.74831689,14.4695278 L12.4707835,14.4695278 L12.4707835,14.4695278 C12.5090563,14.4697387 12.5402535,14.4388834 12.5404643,14.4006106 C12.5404657,14.400356 12.5404657,14.4001015 12.5404643,14.3998469 L12.5404643,8.65478516 L14.0932424,7.7702578 L14.0932424,14.3998431 L14.0932424,14.3998035 C14.0924243,15.2954529 13.3664733,16.0212707 12.470822,16.0219223 L1.74831673,16.0219223 L1.74831671,16.0219223 C0.852667307,16.0212926 0.126696756,15.2954935 0.125857539,14.3998441 L0.125857539,3.70555004 L0.125857539,3.70558884 C0.1266758,2.80987757 0.852566724,2.08395149 1.748278,2.08309104 L7.56300723,2.08309104 L7.56300723,2.37323679 L7.56300838,2.37323626 C7.14126596,2.5669265 6.73270872,2.78812215 6.33997604,3.03539427 L6.339976,3.0353943 C6.06442503,3.21088032 5.80600959,3.41192538 5.56815795,3.63586674 L5.56819379,3.63587203 Z" id="形状"></path>
                        </g>
                    </g>
                </g>
            </g>
        </g>
    </g>
</svg>