<?xml version="1.0" encoding="UTF-8"?>
<svg width="34px" height="35px" viewBox="0 0 34 35" version="1.1" xmlns="http://www.w3.org/2000/svg" xmlns:xlink="http://www.w3.org/1999/xlink">
    <title>编组 42备份 2</title>
    <g id="pc" stroke="none" stroke-width="1" fill="none" fill-rule="evenodd">
        <g id="桃子搜索-pc-02" transform="translate(-1357.000000, -788.000000)" fill="#C5C5C5" fill-rule="nonzero">
            <g id="编组-39" transform="translate(1350.500000, 632.000000)">
                <g id="编组-15备份-3" transform="translate(0.000000, 151.000000)">
                    <g id="置顶" transform="translate(6.000000, 5.000000)">
                        <path d="M18.6439819,13.9455083 L24.4244887,19.7260151 L24.4244886,19.726015 C24.7829215,20.0835434 24.7836562,20.6639445 24.4261273,21.0223773 C24.2542003,21.1947395 24.0207704,21.2916305 23.7773221,21.2916821 L19.1793167,21.2916821 L19.18115,26.6376883 L19.1811501,26.6376566 C19.1800446,27.6501798 18.3583362,28.4700954 17.345813,28.4689901 C16.4178223,28.4679758 15.6369352,27.773713 15.5273154,26.8522191 L15.5144783,26.6376873 L15.5144783,21.2916811 L10.9164729,21.2916811 L10.916473,21.2916811 C10.4102124,21.2915736 10,20.8810798 10,20.3748193 C10,20.1313688 10.0969434,19.8979408 10.2693048,19.726014 L16.0516377,13.9455073 L16.0516376,13.9455074 C16.7675558,13.2298062 17.9280572,13.2298062 18.6439668,13.9455072 L18.6439819,13.9455083 Z M21.9311596,8 L21.9311597,8 C22.9436829,8.00112451 23.7635835,8.82284749 23.762461,9.83536859 C23.7614305,10.7633593 23.0671538,11.5442335 22.1456599,11.6538383 L21.9311597,11.6666716 L12.7644752,11.6666716 L12.7644751,11.6666716 C11.7519841,11.6746749 10.924708,10.8603772 10.9166468,9.84788399 C10.9092698,8.90725613 11.6149308,8.1136224 12.5499749,8.01100001 L12.7644751,8 L21.9311596,8 L21.9311596,8 Z" id="形状"></path>
                    </g>
                </g>
            </g>
        </g>
    </g>
</svg>