<?xml version="1.0" encoding="UTF-8"?>
<svg width="36px" height="36px" viewBox="0 0 36 36" version="1.1" xmlns="http://www.w3.org/2000/svg" xmlns:xlink="http://www.w3.org/1999/xlink">
    <title>形状备份 2</title>
    <g id="pc" stroke="none" stroke-width="1" fill="none" fill-rule="evenodd">
        <g id="12" transform="translate(-1075.000000, -86.000000)" fill="#AAAAAA" fill-rule="nonzero">
            <g id="编组-41" transform="translate(852.000000, 59.000000)">
                <g id="编组-26" transform="translate(0.000000, 26.500000)">
                    <g id="编组-10" transform="translate(64.000000, 0.500000)">
                        <g id="人物" transform="translate(159.000000, 0.000000)">
                            <path d="M20.8333806,23.588461 C19.3505273,23.1974449 17.672166,23.0921714 16.4991177,21.5010367 C16.4991177,21.5010367 15.8975545,20.8062312 17.2540796,19.109823 C18.6166202,17.4073991 18.7309172,14.7093882 18.3880262,12.6219639 C18.0511508,10.5285239 16.1231407,9.13590511 14.1199353,9.13590511 C12.1227455,9.13590511 10.1917276,10.5285239 9.85485219,12.6159482 C9.50895335,14.7003647 9.62625818,17.4013835 10.9887988,19.1038073 C12.342316,20.8002156 11.7467685,21.4950211 11.7467685,21.4950211 C10.5797358,23.0681088 8.9164136,23.1854136 7.44258376,23.5734219 C6.85906746,23.7298283 6.29961368,23.9283442 5.81836312,24.2802587 C4.10691582,25.5194789 4.52801006,28.3347946 4.52801006,28.3347946 L23.7178761,28.3347946 C23.7178761,28.3347946 24.1359626,25.516471 22.4335387,24.2832665 C21.9643194,23.9373676 21.4108813,23.7448674 20.8393962,23.5854532 L20.8333806,23.5854532 L20.8333806,23.588461 Z M30.112493,24.2862743 C29.6312424,23.9403755 29.0928433,23.7508831 28.5183505,23.5974844 C27.0234659,23.1944371 23.5855322,20.8122468 24.930026,19.1038073 C26.2925666,17.4134147 26.4098715,14.7063803 26.0639726,12.6129404 C25.7361207,10.5405552 23.7990872,9.13590511 21.7988895,9.13590511 C20.9145916,9.13590511 20.0333015,9.42465545 19.3024022,9.9419998 C19.7986919,10.6337975 20.1295516,11.4398922 20.2829503,12.3061432 C20.5115443,13.7228245 20.8363884,17.1607582 19.1309567,19.7745503 L19.1309567,19.7775581 C18.9715425,19.9490036 18.881308,20.171582 18.8783002,20.4061917 C18.8783002,20.9656454 19.5099416,21.299513 19.9641218,21.4077944 L20.4754505,21.528107 C20.761193,21.6033024 21.0529512,21.6604509 21.3206468,21.7356463 C22.0304914,21.9311544 22.8185392,22.1958422 23.5644775,22.7342412 C25.8113161,24.3674853 25.7361207,27.3632701 25.6579175,28.3408103 L31.3998382,28.3408103 C31.3998382,28.3347946 31.8209324,25.5194789 30.112493,24.2862743 L30.112493,24.2862743 Z" id="形状"></path>
                        </g>
                    </g>
                </g>
            </g>
        </g>
    </g>
</svg>