<?xml version="1.0" encoding="UTF-8"?>
<svg width="83px" height="23px" viewBox="0 0 83 23" version="1.1" xmlns="http://www.w3.org/2000/svg" xmlns:xlink="http://www.w3.org/1999/xlink">
    <title>编组 17备份 3</title>
    <defs>
        <linearGradient x1="45.0199677%" y1="0%" x2="45.0199677%" y2="100%" id="linearGradient-1">
            <stop stop-color="#30A8FE" offset="0%"></stop>
            <stop stop-color="#036FFF" offset="100%"></stop>
        </linearGradient>
    </defs>
    <g id="pc" stroke="none" stroke-width="1" fill="none" fill-rule="evenodd">
        <g id="桃子搜索-pc-03" transform="translate(-848.000000, -16.000000)">
            <g id="编组-45" transform="translate(1.000000, 0.000000)">
                <g id="编组-66" transform="translate(847.000000, 16.000000)">
                    <g id="编组-6备份" transform="translate(0.000000, 0.500000)">
                        <rect id="矩形" fill="url(#linearGradient-1)" x="0" y="0" width="83" height="22" rx="2"></rect>
                        <g id="精选-copy" transform="translate(7.000000, 3.500000)" fill="#FFFFFF" fill-rule="nonzero">
                            <path d="M7.83655705,0.0846760518 L14.1634429,3.5185611 C14.3715667,3.63106143 14.5,3.83993704 14.5,4.06606272 L14.5,10.9338328 C14.5,11.1595835 14.3723404,11.3688341 14.1638298,11.4813344 L7.83655705,14.9152195 C7.6273372,15.0282602 7.3726628,15.0282602 7.16344295,14.9152195 L0.836557061,11.4813344 C0.630215374,11.3715358 0.501414534,11.1620062 0.5,10.9338328 L0.5,4.06606272 C0.5,3.84031206 0.62804642,3.63106144 0.836557061,3.5185611 L7.16382978,0.0846760518 C7.37294932,-0.0282253506 7.62743752,-0.0282253506 7.83655705,0.0846760518 Z M7.50058027,3.21380145 C7.46475728,3.21380145 7.43233449,3.23436562 7.41798839,3.26618537 L6.35029014,5.46744182 C6.3375857,5.49460693 6.31177299,5.51386564 6.28143133,5.51881697 L3.89497099,5.87169301 C3.81953579,5.88294304 3.78936171,5.97744331 3.844294,6.03181847 L5.57117988,7.74482348 C5.59297731,7.76700338 5.6025989,7.79790762 5.59709864,7.82807372 L5.18974855,10.2475808 C5.17698259,10.323706 5.25589941,10.3825812 5.32359769,10.3462061 L7.45783366,9.20395276 C7.48434469,9.18987807 7.51642901,9.18987807 7.54294004,9.20395276 L9.67756286,10.3462061 C9.74526112,10.3825812 9.82417794,10.323706 9.811412,10.2475808 L9.40367505,7.82807372 C9.39837651,7.79778572 9.40829105,7.76686359 9.4303675,7.74482348 L11.1568665,6.03181847 C11.2117988,5.97744331 11.1816247,5.88331804 11.1058027,5.87169301 L8.71972921,5.51919197 C8.68901506,5.51439681 8.6628478,5.49494957 8.65009671,5.46744182 L7.58317214,3.26618537 C7.56882604,3.23436562 7.53640325,3.21380145 7.50058027,3.21380145 Z" id="形状结合"></path>
                        </g>
                    </g>
                    <text id="精选推荐" font-family="MicrosoftYaHei, Microsoft YaHei" font-size="13" font-weight="normal" line-spacing="13" fill="#FFFFFF">
                        <tspan x="24.5" y="17.4">精选推荐</tspan>
                    </text>
                </g>
            </g>
        </g>
    </g>
</svg>