<?xml version="1.0" encoding="UTF-8"?>
<svg width="83px" height="23px" viewBox="0 0 83 23" version="1.1" xmlns="http://www.w3.org/2000/svg" xmlns:xlink="http://www.w3.org/1999/xlink">
    <title>编组 17备份 2</title>
    <defs>
        <linearGradient x1="100%" y1="53.5128466%" x2="0%" y2="46.4871534%" id="linearGradient-1">
            <stop stop-color="#2621FF" offset="0%"></stop>
            <stop stop-color="#7F1DED" offset="100%"></stop>
        </linearGradient>
    </defs>
    <g id="pc" stroke="none" stroke-width="1" fill="none" fill-rule="evenodd">
        <g id="桃子搜索-pc-03" transform="translate(-941.000000, -16.000000)">
            <g id="编组-45" transform="translate(1.000000, 0.000000)">
                <g id="编组-21" transform="translate(847.000000, 16.000000)">
                    <g id="编组-66" transform="translate(93.000000, 0.000000)">
                        <g id="编组-6备份" transform="translate(0.000000, 0.500000)">
                            <rect id="矩形" fill="url(#linearGradient-1)" x="0" y="0" width="83" height="22" rx="2"></rect>
                            <g id="优惠" transform="translate(6.000000, 2.500000)" fill="#FFFFFF" fill-rule="nonzero">
                                <g id="榜单" transform="translate(0.000000, 0.500000)">
                                    <path d="M13.5820524,0.00760569434 C13.8775341,-0.05149064 14.1730157,0.243991016 14.1730157,0.539472656 L14.1730157,0.539472656 L14.1730157,2.13507356 C14.409401,2.13507356 14.7048827,2.13507356 14.941268,2.19416989 C16.3004836,2.54874787 17.0687359,4.20344509 16.3595799,5.79904599 C16.0050019,7.27645424 14.763979,8.28109184 13.5820524,8.28109184 L13.5820524,8.28109184 L13.4047634,8.28109184 C13.2865708,8.51747715 13.1683781,8.75386247 12.9910891,8.99024779 L12.9910891,8.99024779 L12.9910891,9.04934413 C12.6956075,9.46301842 12.4001258,9.81759641 12.0455478,10.113078 C11.9273552,10.2312707 11.8091625,10.2903671 11.6909699,10.4085597 C11.0409102,10.8813303 10.272658,11.176812 9.50440567,11.354101 L9.68101235,11.3089994 L9.68169466,13.4224725 L10.9818139,13.4224725 C11.2181992,13.4224725 11.5136809,13.5997615 11.5727772,13.8361468 L11.5727772,13.8361468 L12.0455478,15.3726514 C12.1046442,15.4317477 12.1046442,15.5499404 12.1046442,15.6090367 C12.0455478,15.9636147 11.8091625,16.2 11.4545846,16.2 L11.4545846,16.2 L5.78133691,16.2 C5.60404791,16.2 5.42675892,16.1409037 5.30856627,15.9636147 C5.19037361,15.7863257 5.13127728,15.6090367 5.19037361,15.4317477 L5.19037361,15.4317477 L5.66314426,13.8361468 C5.72224059,13.5997615 5.95862591,13.4224725 6.25410755,13.4224725 L6.25410755,13.4224725 L7.61332313,13.4224725 L7.61301235,11.3939994 L7.56900087,11.388266 L7.56900087,11.388266 L7.43603413,11.354101 C7.25874514,11.2950047 7.14055249,11.2950047 6.9632635,11.2359083 C6.37230021,11.0586193 5.78133691,10.7631377 5.24946995,10.4085597 C5.13127729,10.290367 5.01308463,10.2312707 4.89489197,10.113078 C4.65850665,9.93578908 4.42212133,9.69940376 4.24483234,9.46301843 C4.12663967,9.34482577 4.00844702,9.2266331 3.94935069,9.10844044 L3.94935069,9.10844044 L3.94935069,9.04934413 C3.89025437,8.93115147 3.77206171,8.8129588 3.71296538,8.69476615 L3.71296538,8.69476615 L3.71296538,8.63566982 C3.71296536,8.51747715 3.65386905,8.45838081 3.59477271,8.34018816 L3.59477271,8.34018816 L3.41748372,8.34018816 C2.23555713,8.34018816 1.05363054,7.33555056 0.63995623,5.85814232 C0.167185602,4.2034451 0.935437886,2.54874787 2.29465347,2.19416989 C2.53103879,2.13507356 2.82652043,2.13507356 3.06290575,2.13507356 L3.06290575,2.13507356 L3.06290575,0.539472656 C3.06290575,0.243991016 3.35838741,0.00760569434 3.65386905,0.00760569434 L3.65386905,0.00760569434 Z M9.68169466,11.2950046 C8.97253871,11.4131973 8.32247908,11.4131973 7.61332313,11.2950046 L7.61301235,11.3939994 L7.70196761,11.4058103 C7.79061211,11.4131973 7.87925661,11.4131973 7.96790111,11.4131973 C8.32247908,11.4722936 8.67705706,11.4722936 8.97253871,11.4131973 C9.1498277,11.4131973 9.32711669,11.354101 9.50440567,11.354101 L9.68101235,11.3089994 L9.68169466,11.2950046 Z M8.67705706,2.19416989 C8.61796072,2.19416989 8.49976807,2.19416989 8.44067173,2.31236255 L8.44067173,2.31236255 L7.73151579,4.14434877 L5.66314426,4.2034451 C5.60404791,4.2034451 5.48585525,4.26254142 5.48585525,4.32163776 C5.48585525,4.43983042 5.48585525,4.49892674 5.54495159,4.55802308 L5.54495159,4.55802308 L7.19964882,5.73994967 L6.60868553,7.63103221 C6.54958919,7.69012855 6.60868551,7.74922486 6.66778185,7.8083212 C6.72687818,7.86741753 6.84507083,7.86741753 6.90416717,7.8083212 L6.90416717,7.8083212 L8.61796072,6.68549094 L10.3317543,7.8083212 C10.3908506,7.86741753 10.5090433,7.86741753 10.5681396,7.8083212 C10.6272359,7.8083212 10.6272359,7.69012855 10.6272359,7.63103221 L10.6272359,7.63103221 L10.0362726,5.73994967 L11.6909699,4.55802308 C11.6909699,4.55802308 11.7500662,4.55802308 11.7500662,4.49892674 C11.8682589,4.43983041 11.8682589,4.32163776 11.8091625,4.26254142 C11.7500662,4.2034451 11.6318735,4.14434877 11.5136809,4.2034451 L11.5136809,4.2034451 L9.44530934,4.14434877 L8.79524971,2.31236255 C8.73615339,2.25326623 8.73615339,2.19416989 8.67705706,2.19416989 Z M14.6457863,3.13971116 C14.4684974,3.08061483 14.2912084,3.08061483 14.1139194,3.13971116 L14.1139194,3.13971116 L14.1139194,6.33091297 C14.054823,6.62639461 13.9957267,6.9809726 13.9366304,7.27645424 L13.9366304,7.27645424 L13.9366304,7.39464689 C14.763979,7.15826157 15.4140386,6.44910562 15.5913276,5.621757 C15.9459056,4.49892674 15.5322313,3.31700015 14.6457863,3.13971116 Z M3.06290575,3.13971116 C2.88561676,3.08061483 2.70832777,3.08061483 2.53103879,3.13971116 C1.70369017,3.31700015 1.29001586,4.49892674 1.64459383,5.621757 C1.82188282,6.44910563 2.47194245,7.15826158 3.24019474,7.33555057 L3.24019474,7.33555057 L3.24019474,7.2173579 C3.18109842,7.09916523 3.12200208,6.92187625 3.12200208,6.80368359 L3.12200208,6.80368359 L3.12200208,6.74458728 C3.12200208,6.62639461 3.06290575,6.50820195 3.06290575,6.33091297 L3.06290575,6.33091297 Z" id="形状结合"></path>
                                </g>
                            </g>
                        </g>
                        <g id="桃子特权-2" transform="translate(24.500000, 3.000000)" fill="#FFFFFF" font-family="MicrosoftYaHei, Microsoft YaHei" font-size="13" font-weight="normal" line-spacing="15.4">
                            <text id="实时榜单">
                                <tspan x="0.5" y="14">实时榜单</tspan>
                            </text>
                        </g>
                    </g>
                </g>
            </g>
        </g>
    </g>
</svg>