<?xml version="1.0" encoding="UTF-8"?>
<svg width="88px" height="30px" viewBox="0 0 88 30" version="1.1" xmlns="http://www.w3.org/2000/svg" xmlns:xlink="http://www.w3.org/1999/xlink">
    <title>编组 17</title>
    <defs>
        <linearGradient x1="50%" y1="0%" x2="50%" y2="100%" id="linearGradient-1">
            <stop stop-color="#FF757A" offset="0%"></stop>
            <stop stop-color="#FF3451" offset="100%"></stop>
        </linearGradient>
        <linearGradient x1="50%" y1="0%" x2="50%" y2="100%" id="linearGradient-2">
            <stop stop-color="#FFC73C" offset="0%"></stop>
            <stop stop-color="#FF771C" offset="100%"></stop>
        </linearGradient>
        <path d="M22.6983051,0.0022685445 L1.64745764,0.0022685445 C0.777966125,-0.0427630916 0.0457627115,0.587679814 9.05941988e-14,1.4432809 L9.05941988e-14,20.9870111 C0.0457627115,21.6624856 0.411864404,22.2929285 0.961016971,22.6982133 L11.0288136,28.4622627 C11.7152542,28.9125791 12.5847458,28.9125791 13.2711864,28.4622627 L23.338983,22.6982133 C23.9338983,22.3379602 24.3,21.6624856 24.3,20.9870111 L24.3,1.4432809 C24.2542373,0.63271145 23.5220339,0.0022685445 22.6983051,0.0022685445" id="path-3"></path>
    </defs>
    <g id="pc" stroke="none" stroke-width="1" fill="none" fill-rule="evenodd">
        <g id="桃子搜索-pc-03" transform="translate(-1127.000000, -16.000000)">
            <g id="编组-45" transform="translate(1.000000, 0.000000)">
                <g id="编组-21" transform="translate(847.000000, 16.000000)">
                    <g id="编组-17" transform="translate(279.000000, 0.000000)">
                        <g id="编组-66">
                            <g id="编组-6备份" fill="url(#linearGradient-1)" transform="translate(0.000000, 0.500000)">
                                <rect id="矩形" x="0" y="0" width="88" height="22" rx="2"></rect>
                            </g>
                            <g id="桃子特权-2" transform="translate(30.500000, 3.000000)" fill="#FFFFFF" font-family="MicrosoftYaHei, Microsoft YaHei" font-size="13" font-weight="normal" line-spacing="15.4">
                                <text id="桃子特权">
                                    <tspan x="0" y="14">桃子特权</tspan>
                                </text>
                            </g>
                        </g>
                        <g id="权益-(1)" transform="translate(0.000000, 0.500000)" fill-rule="nonzero">
                            <g id="编组-6">
                                <g id="路径">
                                    <use fill="#000000" xlink:href="#path-3"></use>
                                    <use fill="url(#linearGradient-2)" xlink:href="#path-3"></use>
                                </g>
                                <path d="M13.3542511,10.9967227 C13.0488047,11.6021707 12.8789915,12.2354991 12.9022961,12.933301 C12.9353887,13.9221044 12.9108412,14.9129672 12.9111519,15.9028795 C12.9117733,17.3287397 13.4460715,17.8210821 14.8219785,17.6642549 C15.6151137,17.573802 15.6168227,17.5742773 15.6225712,18.4116395 C15.6266107,19.0055235 15.6230373,19.5995659 15.6295626,20.1934499 C15.6323592,20.4478585 15.5478409,20.6354175 15.2927326,20.7009998 C13.7650346,21.0930678 12.2477459,21.1846295 10.7860778,20.4484921 C9.82577047,19.9648624 9.31897183,19.1360544 9.08157505,18.0827776 C8.88659274,17.2172182 8.95619598,16.349441 8.94547584,15.4818222 C8.93071622,14.280906 8.93382351,13.079673 8.94718485,11.8787569 C8.95106896,11.5388062 8.83889587,11.3982954 8.49818176,11.415879 C8.11085834,11.4356804 7.72167054,11.4165127 7.33325957,11.4184136 C7.10906875,11.4195225 6.99953686,11.3140205 7,11.0828984 C7.00186733,10.2645456 7.0010905,9.44619273 7.00093514,8.62799829 C7.00093514,8.38119347 7.13377169,8.26539479 7.36293417,8.25905834 C7.66045697,8.25097937 7.95829051,8.25256348 8.25596868,8.25097937 C8.86934729,8.24781114 8.86965802,8.24812796 8.87043484,7.60307709 C8.87121166,6.91668087 8.86717219,6.23044305 8.8732314,5.54404683 C8.87711551,5.09526758 8.959614,5.00893341 9.39945059,5.00655724 C10.4090084,5.00101285 11.4188769,5.01273528 12.4284347,5.00022079 C12.7739651,4.99578527 12.9220274,5.12108862 12.9142592,5.484801 C12.8990335,6.19717668 12.9092875,6.910186 12.913327,7.6228785 C12.9141038,7.73772671 12.863455,7.89423709 12.9673938,7.95728479 C13.1005411,8.03823297 13.1998189,7.88552446 13.3001843,7.8159819 C14.9181491,6.69633073 16.6753203,6.50433622 18.5306819,7.00776737 C19.0570564,7.15049597 19.0617173,7.19643525 18.9232877,7.72521221 C18.7006505,8.57572256 18.3301064,9.35082912 17.8296777,10.0684324 C17.2784449,10.858588 16.5129645,11.3182976 15.631427,11.6085072 C15.0525393,11.7992344 14.4606009,11.9354681 13.8577871,12.0229112 C13.4117359,12.087543 13.3081079,11.9644574 13.471862,11.5228066 C13.8195675,10.5851701 14.4001642,9.82463736 15.1878617,9.22647624 C15.299724,9.14140936 15.4317837,9.07804484 15.5577843,8.83646758 C14.4999081,9.32294873 13.8278018,10.0579772 13.3542511,10.9967227 Z" id="Fill-1备份" fill="#FFFFFF"></path>
                            </g>
                        </g>
                    </g>
                </g>
            </g>
        </g>
    </g>
</svg>