<?xml version="1.0" encoding="UTF-8"?>
<svg width="83px" height="23px" viewBox="0 0 83 23" version="1.1" xmlns="http://www.w3.org/2000/svg" xmlns:xlink="http://www.w3.org/1999/xlink">
    <title>编组 17备份</title>
    <defs>
        <linearGradient x1="7.32541268%" y1="47.045629%" x2="93.6819028%" y2="52.507232%" id="linearGradient-1">
            <stop stop-color="#FF765F" offset="0%"></stop>
            <stop stop-color="#FF295B" offset="100%"></stop>
        </linearGradient>
    </defs>
    <g id="pc" stroke="none" stroke-width="1" fill="none" fill-rule="evenodd">
        <g id="桃子搜索-pc-03" transform="translate(-1034.000000, -16.000000)">
            <g id="编组-45" transform="translate(1.000000, 0.000000)">
                <g id="编组-21" transform="translate(847.000000, 16.000000)">
                    <g id="编组-66" transform="translate(186.000000, 0.000000)">
                        <g id="编组-6备份" transform="translate(0.000000, 0.500000)">
                            <rect id="矩形" fill="url(#linearGradient-1)" x="0" y="0" width="83" height="22" rx="2"></rect>
                            <g id="优惠" transform="translate(7.000000, 2.500000)" fill="#FFFFFF" fill-rule="nonzero">
                                <path d="M0.468734741,14.0312877 C0.468734741,14.4307877 0.947234795,14.9994994 1.32612872,14.9994994 L7.0315094,14.9994994 L7.08326552,7.71187926 L0.416978618,7.71187926 L0.468246481,14.0312877 L0.468734741,14.0312877 Z M7.91673448,14.9994994 L13.673383,14.9994994 C14.0527652,14.9994994 14.5835096,14.5419267 14.5835096,14.1419262 L14.5835096,7.71187926 L7.91673448,7.71187926 L7.91673448,15 L7.91673448,14.9994994 Z M7.91673448,6.85430605 L15,6.81575781 L15,3.92013408 C15,3.48308713 14.4834152,2.89985725 14.0625305,2.89985724 L11.2501221,2.89985724 C12.0733375,2.71612732 12.6021288,2.56844249 12.7080824,1.86856664 C12.8325901,1.07006735 11.8677777,-0.139946916 10.7003353,0.0132447816 C9.30291982,0.203983482 8.27853911,1.41449838 7.55590639,2.35367373 C6.84010937,1.43252094 5.90459295,0.356674573 4.56625762,0.0447842517 C3.26893656,-0.256592898 2.38029361,1.06405983 2.40421862,1.8810823 C2.42765536,2.57445002 2.9046906,2.71612732 3.74987793,2.89985724 L0.937469483,2.89985724 C0.516096476,2.89985724 0,3.48358776 0,3.92013408 L0,6.85480668 L7.08326552,6.85480668 L7.0315094,3.38396309 C7.28540738,3.35893176 7.39038443,3.18371249 7.5739722,3.15868116 C7.57934313,3.15868116 7.58471403,3.1536749 7.58569057,3.15267364 L7.60961557,3.15267364 L7.60961557,3.14666612 L7.57983139,3.14666612 L7.61010384,3.14666612 L7.61010384,3.15267364 C7.7517008,3.17670371 7.79710948,3.36644115 7.96897888,3.38396309 L7.91673448,6.85480668 L7.91673448,6.85430605 Z M3.34022331,2.12688992 C3.10390288,1.8695679 3.26307738,1.51862871 3.41102178,1.25529915 C3.68347385,0.788715241 4.06187949,0.50486001 4.70834283,0.769691444 C5.60821588,1.13815255 6.49197618,2.20148326 7.0315094,2.90035788 C5.88750367,3.02401262 3.9617851,2.79022005 3.34022331,2.12688992 L3.34022331,2.12688992 Z M10.4103056,0.757175786 C11.3463103,0.303107546 12.2168875,1.531645 11.772566,2.12138302 C11.4293154,2.56944374 10.3458546,2.61199701 9.75944793,2.63702832 C9.27948308,2.66105839 8.44796719,2.94391237 7.96897888,2.90035788 C8.52560138,2.19948076 9.51629179,1.19372211 10.4103056,0.757175786 Z" id="形状"></path>
                            </g>
                        </g>
                        <g id="桃子特权-2" transform="translate(25.500000, 3.000000)" fill="#FFFFFF" font-family="MicrosoftYaHei, Microsoft YaHei" font-size="13" font-weight="normal" line-spacing="15.4">
                            <text id="超值优惠">
                                <tspan x="0" y="14">超值优惠</tspan>
                            </text>
                        </g>
                    </g>
                </g>
            </g>
        </g>
    </g>
</svg>