<?xml version="1.0" encoding="UTF-8"?>
<svg width="22px" height="22px" viewBox="0 0 22 22" version="1.1" xmlns="http://www.w3.org/2000/svg" xmlns:xlink="http://www.w3.org/1999/xlink">
    <title>编组 18</title>
    <g id="pc" stroke="none" stroke-width="1" fill="none" fill-rule="evenodd">
        <g id="10" transform="translate(-1269.000000, -20.000000)">
            <g id="编组-10" transform="translate(1.000000, 0.000000)">
                <g id="编组-44备份" transform="translate(1268.000000, 19.000000)">
                    <g id="编组-23" transform="translate(0.000000, 0.500000)">
                        <g id="消息" transform="translate(2.500000, 2.500000)">
                            <path d="M10.3627095,1.69100041 C10.3627095,0.760000186 9.51756669,0 8.48056669,0 C7.44113811,0 6.59599526,0.760000186 6.59599526,1.69100041 C6.59599526,1.78600044 6.60692383,1.88100046 6.6263524,1.96650048 C4.0205,2.78350068 1.88335714,5.27250593 1.88335714,8.22699273 L1.88335714,10.5544933 C1.88335714,10.5544933 1.88335714,13.8984895 0.966571429,13.9365034 C0.417714286,13.9365034 0,14.3165035 0,14.7820036 C0,15.2475037 0.427428571,15.6275038 0.947142857,15.6275038 L16.0528571,15.6275038 C16.5725714,15.6275038 17,15.2475037 17,14.7820036 C17,14.3165035 16.5725714,13.9365034 16.0528571,13.9365034 C15.1057143,13.9365034 15.1057143,10.5829979 15.1057143,10.5829979 L15.1057143,8.22699273 L15.1057143,8.2270021 C15.1100305,5.34543523 13.1828193,2.80163334 10.362719,1.96648666 L10.362719,1.69098659 L10.3627095,1.69100041 Z M11.3098524,16.463504 C11.3098524,17.8600044 10.0469953,19 8.48056669,19 C6.92263811,19 5.65007143,17.8694997 5.65007143,16.463504 L11.3086429,16.463504 L11.3098524,16.463504 Z" id="形状" fill="#AAAAAA" fill-rule="nonzero"></path>
                            <g id="编组-28" transform="translate(10.500000, 0.500000)" fill="#FC5A5A" stroke="#FFFFFF">
                                <circle id="椭圆形" cx="3" cy="3" r="3"></circle>
                            </g>
                        </g>
                    </g>
                </g>
            </g>
        </g>
    </g>
</svg>