<?xml version="1.0" encoding="UTF-8"?>
<svg width="14px" height="14px" viewBox="0 0 14 14" version="1.1" xmlns="http://www.w3.org/2000/svg" xmlns:xlink="http://www.w3.org/1999/xlink">
    <title>京东</title>
    <g id="pc" stroke="none" stroke-width="1" fill="none" fill-rule="evenodd">
        <g id="桃子搜索-pc-02" transform="translate(-82.000000, -683.000000)" fill-rule="nonzero">
            <g id="编组-47备份" transform="translate(82.000000, 683.000000)">
                <g id="京东" transform="translate(0.500000, 0.400000)">
                    <path d="M1.58400184,0 L11.0880129,0 C12.1440137,0 12.6720147,0.528001027 12.6720147,1.58400184 L12.6720147,11.0880129 C12.6720147,12.1440137 12.1440137,12.6720147 11.0880129,12.6720147 L1.58400184,12.6720147 C0.528001027,12.6720147 0,12.1440137 0,11.0880129 L0,1.58400184 C0,0.528001027 0.528001027,0 1.58400184,0 Z" id="路径" fill="#F53415"></path>
                    <path d="M5.83176266,2.48951877 L5.36976254,3.64847971 L6.75840003,5.03976545 L8.84399833,5.03976545 L9.63599925,4.36656467 C9.63599925,4.36656467 9.75479939,4.14480441 9.8603991,3.89664453 L9.69935932,3.19176371 L9.55415957,3.09936357 L8.09951375,2.95416381 L7.39199334,2.06976237 L5.83176266,2.48951877 Z" id="路径" fill="#414141"></path>
                    <polygon id="路径" fill="#A6A6A7" points="8.11008944 1.94439726 9.87361561 1.94439726 9.87361561 1.98706396 8.11008944 1.98706396"></polygon>
                    <polygon id="路径" fill="#A5A5A6" points="8.11008944 1.94968139 9.87361561 1.94968139 9.87361561 1.99234809 8.11008944 1.99234809"></polygon>
                    <polygon id="路径" fill="#A4A4A5" points="8.11008944 1.95496556 9.87361561 1.95496556 9.87361561 1.99763216 8.11008944 1.99763216"></polygon>
                    <polygon id="路径" fill="#A3A3A4" points="8.11008944 1.96023727 9.87361561 1.96023727 9.87361561 2.00290397 8.11008944 2.00290397"></polygon>
                    <polygon id="路径" fill="#A2A2A3" points="8.11008944 1.96552141 9.87361561 1.96552141 9.87361561 2.00818811 8.11008944 2.00818811"></polygon>
                    <polygon id="路径" fill="#A1A1A2" points="8.11008944 1.97080558 9.87361561 1.97080558 9.87361561 2.01347218 8.11008944 2.01347218"></polygon>
                    <polygon id="路径" fill="#A0A0A1" points="8.11008944 1.97607729 9.87361561 1.97607729 9.87361561 2.01874399 8.11008944 2.01874399"></polygon>
                    <polygon id="路径" fill="#9F9FA0" points="8.11008944 1.98136142 9.87361561 1.98136142 9.87361561 2.02402812 8.11008944 2.02402812"></polygon>
                    <polygon id="路径" fill="#9E9E9F" points="8.11008944 1.9866456 9.87361561 1.9866456 9.87361561 2.0293122 8.11008944 2.0293122"></polygon>
                    <polygon id="路径" fill="#9D9D9E" points="8.11008944 1.99191731 9.87361561 1.99191731 9.87361561 2.03458401 8.11008944 2.03458401"></polygon>
                    <polygon id="路径" fill="#9C9C9D" points="8.11008944 1.99720144 9.87361561 1.99720144 9.87361561 2.03986814 8.11008944 2.03986814"></polygon>
                    <polygon id="路径" fill="#9B9B9C" points="8.11008944 2.00248562 9.87361561 2.00248562 9.87361561 2.04515222 8.11008944 2.04515222"></polygon>
                    <polygon id="路径" fill="#9A9A9B" points="8.11008944 2.00512145 9.87361561 2.00512145 9.87361561 2.04778815 8.11008944 2.04778815"></polygon>
                    <polygon id="路径" fill="#99999A" points="8.11008944 2.01040563 9.87361561 2.01040563 9.87361561 2.05307223 8.11008944 2.05307223"></polygon>
                    <polygon id="路径" fill="#989899" points="8.11008944 2.01567734 9.87361561 2.01567734 9.87361561 2.05834404 8.11008944 2.05834404"></polygon>
                    <polygon id="路径" fill="#979798" points="8.11008944 2.02096147 9.87361561 2.02096147 9.87361561 2.06362817 8.11008944 2.06362817"></polygon>
                    <polygon id="路径" fill="#969697" points="8.11008944 2.02624565 9.87361561 2.02624565 9.87361561 2.06891225 8.11008944 2.06891225"></polygon>
                    <polygon id="路径" fill="#969596" points="8.11008944 2.03151736 9.87361561 2.03151736 9.87361561 2.07418406 8.11008944 2.07418406"></polygon>
                    <polygon id="路径" fill="#959495" points="8.11008944 2.03680149 9.87361561 2.03680149 9.87361561 2.07946819 8.11008944 2.07946819"></polygon>
                    <polygon id="路径" fill="#949394" points="8.11008944 2.04208566 9.87361561 2.04208566 9.87361561 2.08475226 8.11008944 2.08475226"></polygon>
                    <polygon id="路径" fill="#939293" points="8.11008944 2.04735738 9.87361561 2.04735738 9.87361561 2.09002408 8.11008944 2.09002408"></polygon>
                    <polygon id="路径" fill="#929192" points="8.11008944 2.05264151 9.87361561 2.05264151 9.87361561 2.09530821 8.11008944 2.09530821"></polygon>
                    <polygon id="路径" fill="#919091" points="8.11008944 2.05792568 9.87361561 2.05792568 9.87361561 2.10059228 8.11008944 2.10059228"></polygon>
                    <polygon id="路径" fill="#908F90" points="8.11008944 2.06319739 9.87361561 2.06319739 9.87361561 2.10586409 8.11008944 2.10586409"></polygon>
                    <polygon id="路径" fill="#8F8E8F" points="8.11008944 2.06848153 9.87361561 2.06848153 9.87361561 2.11114823 8.11008944 2.11114823"></polygon>
                    <polygon id="路径" fill="#8E8D8E" points="8.11008944 2.0737657 9.87361561 2.0737657 9.87361561 2.1164323 8.11008944 2.1164323"></polygon>
                    <polygon id="路径" fill="#8D8C8D" points="8.11008944 2.07903741 9.87361561 2.07903741 9.87361561 2.12170411 8.11008944 2.12170411"></polygon>
                    <polygon id="路径" fill="#8C8B8C" points="8.11008944 2.08432154 9.87361561 2.08432154 9.87361561 2.12698824 8.11008944 2.12698824"></polygon>
                    <polygon id="路径" fill="#8B8A8B" points="8.11008944 2.08960572 9.87361561 2.08960572 9.87361561 2.13227232 8.11008944 2.13227232"></polygon>
                    <polygon id="路径" fill="#8A898A" points="8.11008944 2.09224155 9.87361561 2.09224155 9.87361561 2.13490825 8.11008944 2.13490825"></polygon>
                    <polygon id="路径" fill="#898889" points="8.11008944 2.09752573 9.87361561 2.09752573 9.87361561 2.14019233 8.11008944 2.14019233"></polygon>
                    <polygon id="路径" fill="#888788" points="8.11008944 2.10279744 9.87361561 2.10279744 9.87361561 2.14546414 8.11008944 2.14546414"></polygon>
                    <polygon id="路径" fill="#878687" points="8.11008944 2.10808157 9.87361561 2.10808157 9.87361561 2.15074827 8.11008944 2.15074827"></polygon>
                    <polygon id="路径" fill="#868586" points="8.11008944 2.11336575 9.87361561 2.11336575 9.87361561 2.15603235 8.11008944 2.15603235"></polygon>
                    <polygon id="路径" fill="#858485" points="8.11008944 2.11863746 9.87361561 2.11863746 9.87361561 2.16130416 8.11008944 2.16130416"></polygon>
                    <polygon id="路径" fill="#848384" points="8.11008944 2.12392159 9.87361561 2.12392159 9.87361561 2.16658829 8.11008944 2.16658829"></polygon>
                    <polygon id="路径" fill="#838283" points="8.11008944 2.12920577 9.87361561 2.12920577 9.87361561 2.17187237 8.11008944 2.17187237"></polygon>
                    <polygon id="路径" fill="#828182" points="8.11008944 2.13447748 9.87361561 2.13447748 9.87361561 2.17714418 8.11008944 2.17714418"></polygon>
                    <polygon id="路径" fill="#818081" points="8.11008944 2.13976161 9.87361561 2.13976161 9.87361561 2.18242831 8.11008944 2.18242831"></polygon>
                    <polygon id="路径" fill="#807F80" points="8.11008944 2.14504578 9.87361561 2.14504578 9.87361561 2.18771238 8.11008944 2.18771238"></polygon>
                    <polygon id="路径" fill="#7F7E7F" points="8.11008944 2.1503175 9.87361561 2.1503175 9.87361561 2.1929842 8.11008944 2.1929842"></polygon>
                    <polygon id="路径" fill="#7E7D7E" points="8.11008944 2.15560163 9.87361561 2.15560163 9.87361561 2.19826833 8.11008944 2.19826833"></polygon>
                    <polygon id="路径" fill="#7D7C7D" points="8.11008944 2.1608858 9.87361561 2.1608858 9.87361561 2.2035524 8.11008944 2.2035524"></polygon>
                    <polygon id="路径" fill="#7C7B7C" points="8.11008944 2.16615751 9.87361561 2.16615751 9.87361561 2.20882421 8.11008944 2.20882421"></polygon>
                    <polygon id="路径" fill="#7B7A7B" points="8.11008944 2.17144165 9.87361561 2.17144165 9.87361561 2.21410835 8.11008944 2.21410835"></polygon>
                    <polygon id="路径" fill="#7A797A" points="8.11008944 2.17407752 9.87361561 2.17407752 9.87361561 2.21674422 8.11008944 2.21674422"></polygon>
                    <polygon id="路径" fill="#797879" points="8.11008944 2.17936165 9.87361561 2.17936165 9.87361561 2.22202835 8.11008944 2.22202835"></polygon>
                    <polygon id="路径" fill="#787778" points="8.11008944 2.18464583 9.87361561 2.18464583 9.87361561 2.22731243 8.11008944 2.22731243"></polygon>
                    <polygon id="路径" fill="#777677" points="8.11008944 2.18991754 9.87361561 2.18991754 9.87361561 2.23258424 8.11008944 2.23258424"></polygon>
                    <polygon id="路径" fill="#767576" points="8.11008944 2.19520167 9.87361561 2.19520167 9.87361561 2.23786837 8.11008944 2.23786837"></polygon>
                    <polygon id="路径" fill="#767475" points="8.11008944 2.20048585 9.87361561 2.20048585 9.87361561 2.24315245 8.11008944 2.24315245"></polygon>
                    <polygon id="路径" fill="#757374" points="8.11008944 2.20575756 9.87361561 2.20575756 9.87361561 2.24842426 8.11008944 2.24842426"></polygon>
                    <polygon id="路径" fill="#747273" points="8.11008944 2.21104169 9.87361561 2.21104169 9.87361561 2.25370839 8.11008944 2.25370839"></polygon>
                    <polygon id="路径" fill="#737172" points="8.11008944 2.21632587 9.87361561 2.21632587 9.87361561 2.25899247 8.11008944 2.25899247"></polygon>
                    <polygon id="路径" fill="#727071" points="8.11008944 2.22159758 9.87361561 2.22159758 9.87361561 2.26426428 8.11008944 2.26426428"></polygon>
                    <polygon id="路径" fill="#716F70" points="8.11008944 2.22688171 9.87361561 2.22688171 9.87361561 2.26954841 8.11008944 2.26954841"></polygon>
                    <polygon id="路径" fill="#706E6F" points="8.11008944 2.23216588 9.87361561 2.23216588 9.87361561 2.27483248 8.11008944 2.27483248"></polygon>
                    <polygon id="路径" fill="#6F6D6E" points="8.11008944 2.2374376 9.87361561 2.2374376 9.87361561 2.2801043 8.11008944 2.2801043"></polygon>
                    <polygon id="路径" fill="#6E6C6D" points="8.11008944 2.24272173 9.87361561 2.24272173 9.87361561 2.28538843 8.11008944 2.28538843"></polygon>
                    <polygon id="路径" fill="#6D6B6C" points="8.11008944 2.2480059 9.87361561 2.2480059 9.87361561 2.2906725 8.11008944 2.2906725"></polygon>
                    <polygon id="路径" fill="#6C6A6B" points="8.11008944 2.25327762 9.87361561 2.25327762 9.87361561 2.29594432 8.11008944 2.29594432"></polygon>
                    <polygon id="路径" fill="#6B696A" points="8.11008944 2.25856175 9.87361561 2.25856175 9.87361561 2.30122845 8.11008944 2.30122845"></polygon>
                    <polygon id="路径" fill="#6A6869" points="8.11008944 2.26119762 9.87361561 2.26119762 9.87361561 2.30386432 8.11008944 2.30386432"></polygon>
                    <polygon id="路径" fill="#696768" points="8.11008944 2.26648176 9.87361561 2.26648176 9.87361561 2.30914846 8.11008944 2.30914846"></polygon>
                    <polygon id="路径" fill="#686667" points="8.11008944 2.27176593 9.87361561 2.27176593 9.87361561 2.31443253 8.11008944 2.31443253"></polygon>
                    <polygon id="路径" fill="#676566" points="8.11008944 2.27703764 9.87361561 2.27703764 9.87361561 2.31970434 8.11008944 2.31970434"></polygon>
                    <polygon id="路径" fill="#666465" points="8.11008944 2.28232177 9.87361561 2.28232177 9.87361561 2.32498847 8.11008944 2.32498847"></polygon>
                    <polygon id="路径" fill="#656364" points="8.11008944 2.28760595 9.87361561 2.28760595 9.87361561 2.33027255 8.11008944 2.33027255"></polygon>
                    <polygon id="路径" fill="#646263" points="8.11008944 2.29287766 9.87361561 2.29287766 9.87361561 2.33554436 8.11008944 2.33554436"></polygon>
                    <polygon id="路径" fill="#636162" points="8.11008944 2.29816179 9.87361561 2.29816179 9.87361561 2.34082849 8.11008944 2.34082849"></polygon>
                    <polygon id="路径" fill="#626061" points="8.11008944 2.30344597 9.87361561 2.30344597 9.87361561 2.34611257 8.11008944 2.34611257"></polygon>
                    <polygon id="路径" fill="#615F60" points="8.11008944 2.30871768 9.87361561 2.30871768 9.87361561 2.35138438 8.11008944 2.35138438"></polygon>
                    <polygon id="路径" fill="#605E5F" points="8.11008944 2.31400181 9.87361561 2.31400181 9.87361561 2.35666851 8.11008944 2.35666851"></polygon>
                    <polygon id="路径" fill="#5F5D5E" points="8.11008944 2.31928599 9.87361561 2.31928599 9.87361561 2.36195259 8.11008944 2.36195259"></polygon>
                    <polygon id="路径" fill="#5E5C5D" points="8.11008944 2.3245577 9.87361561 2.3245577 9.87361561 2.3672244 8.11008944 2.3672244"></polygon>
                    <polygon id="路径" fill="#5D5B5C" points="8.11008944 2.32984183 9.87361561 2.32984183 9.87361561 2.37250853 8.11008944 2.37250853"></polygon>
                    <polygon id="路径" fill="#5C5A5B" points="8.11008944 2.335126 9.87361561 2.335126 9.87361561 2.3777926 8.11008944 2.3777926"></polygon>
                    <polygon id="路径" fill="#5B595A" points="8.11008944 2.34039772 9.87361561 2.34039772 9.87361561 2.38306442 8.11008944 2.38306442"></polygon>
                    <polygon id="路径" fill="#5A5859" points="8.11008944 2.34568185 9.87361561 2.34568185 9.87361561 2.38834855 8.11008944 2.38834855"></polygon>
                    <polygon id="路径" fill="#595758" points="8.11008944 2.34831773 9.87361561 2.34831773 9.87361561 2.39098443 8.11008944 2.39098443"></polygon>
                    <polygon id="路径" fill="#585657" points="8.11008944 2.35360186 9.87361561 2.35360186 9.87361561 2.39626856 8.11008944 2.39626856"></polygon>
                    <polygon id="路径" fill="#575556" points="8.11008944 2.35888603 9.87361561 2.35888603 9.87361561 2.40155263 8.11008944 2.40155263"></polygon>
                    <polygon id="路径" fill="#565455" points="8.11008944 2.36415774 9.87361561 2.36415774 9.87361561 2.40682444 8.11008944 2.40682444"></polygon>
                    <polygon id="路径" fill="#565454" points="8.11008944 2.36944188 9.87361561 2.36944188 9.87361561 2.41210858 8.11008944 2.41210858"></polygon>
                    <polygon id="路径" fill="#555352" points="8.11008944 2.37472605 9.87361561 2.37472605 9.87361561 2.41739265 8.11008944 2.41739265"></polygon>
                    <polygon id="路径" fill="#545251" points="8.11008944 2.37999776 9.87361561 2.37999776 9.87361561 2.42266446 8.11008944 2.42266446"></polygon>
                    <polygon id="路径" fill="#535150" points="8.11008944 2.38528189 9.87361561 2.38528189 9.87361561 2.42794859 8.11008944 2.42794859"></polygon>
                    <polygon id="路径" fill="#52504F" points="8.11008944 2.39056607 9.87361561 2.39056607 9.87361561 2.43323267 8.11008944 2.43323267"></polygon>
                    <polygon id="路径" fill="#514F4E" points="8.11008944 2.39583778 9.87361561 2.39583778 9.87361561 2.43850448 8.11008944 2.43850448"></polygon>
                    <polygon id="路径" fill="#504E4D" points="8.11008944 2.40112191 9.87361561 2.40112191 9.87361561 2.44378861 8.11008944 2.44378861"></polygon>
                    <polygon id="路径" fill="#4F4D4C" points="8.11008944 2.40640609 9.87361561 2.40640609 9.87361561 2.44907269 8.11008944 2.44907269"></polygon>
                    <polygon id="路径" fill="#4E4C4B" points="8.11008944 2.4116778 9.87361561 2.4116778 9.87361561 2.4543445 8.11008944 2.4543445"></polygon>
                    <polygon id="路径" fill="#4D4B4A" points="8.11008944 2.41696193 9.87361561 2.41696193 9.87361561 2.45962863 8.11008944 2.45962863"></polygon>
                    <polygon id="路径" fill="#4C4A49" points="8.11008944 2.42224611 9.87361561 2.42224611 9.87361561 2.46491271 8.11008944 2.46491271"></polygon>
                    <polygon id="路径" fill="#4B4948" points="8.11008944 2.42751782 9.87361561 2.42751782 9.87361561 2.47018452 8.11008944 2.47018452"></polygon>
                    <polygon id="路径" fill="#4A4847" points="8.11008944 2.43280195 9.87361561 2.43280195 9.87361561 2.47546865 8.11008944 2.47546865"></polygon>
                    <polygon id="路径" fill="#494746" points="8.11008944 2.43543783 9.87361561 2.43543783 9.87361561 2.47810453 8.11008944 2.47810453"></polygon>
                    <polygon id="路径" fill="#484645" points="8.11008944 2.44072196 9.87361561 2.44072196 9.87361561 2.48338866 8.11008944 2.48338866"></polygon>
                    <polygon id="路径" fill="#474544" points="8.11008944 2.44600613 9.87361561 2.44600613 9.87361561 2.48867273 8.11008944 2.48867273"></polygon>
                    <polygon id="路径" fill="#464443" points="8.11008944 2.45127785 9.87361561 2.45127785 9.87361561 2.49394455 8.11008944 2.49394455"></polygon>
                    <polygon id="路径" fill="#454342" points="8.11008944 2.45656198 9.87361561 2.45656198 9.87361561 2.49922868 8.11008944 2.49922868"></polygon>
                    <polygon id="路径" fill="#444241" points="8.11008944 2.46184615 9.87361561 2.46184615 9.87361561 2.50451275 8.11008944 2.50451275"></polygon>
                    <polygon id="路径" fill="#434140" points="8.11008944 2.46711786 9.87361561 2.46711786 9.87361561 2.50978456 8.11008944 2.50978456"></polygon>
                    <polygon id="路径" fill="#42403F" points="8.11008944 2.472402 9.87361561 2.472402 9.87361561 2.5150687 8.11008944 2.5150687"></polygon>
                    <polygon id="路径" fill="#413F3E" points="8.11008944 2.47768617 9.87361561 2.47768617 9.87361561 2.52035277 8.11008944 2.52035277"></polygon>
                    <polygon id="路径" fill="#403E3D" points="8.11008944 2.48295788 9.87361561 2.48295788 9.87361561 2.52562458 8.11008944 2.52562458"></polygon>
                    <polygon id="路径" fill="#3F3D3C" points="8.11008944 2.48824201 9.87361561 2.48824201 9.87361561 2.53090871 8.11008944 2.53090871"></polygon>
                    <polygon id="路径" fill="#3E3C3B" points="8.11008944 2.49352619 9.87361561 2.49352619 9.87361561 2.53619279 8.11008944 2.53619279"></polygon>
                    <polygon id="路径" fill="#3D3B3A" points="8.11008944 2.4987979 9.87361561 2.4987979 9.87361561 2.5414646 8.11008944 2.5414646"></polygon>
                    <polygon id="路径" fill="#3C3A39" points="8.11008944 2.50408203 9.87361561 2.50408203 9.87361561 2.54674873 8.11008944 2.54674873"></polygon>
                    <polygon id="路径" fill="#3B3938" points="8.11008944 2.50936621 9.87361561 2.50936621 9.87361561 2.55203281 8.11008944 2.55203281"></polygon>
                    <polygon id="路径" fill="#3A3837" points="8.11008944 2.51463792 9.87361561 2.51463792 9.87361561 2.55730462 8.11008944 2.55730462"></polygon>
                    <polygon id="路径" fill="#393736" points="8.11008944 2.51992205 9.87361561 2.51992205 9.87361561 2.56258875 8.11008944 2.56258875"></polygon>
                    <polygon id="路径" fill="#383635" points="8.11008944 2.52255793 9.87361561 2.52255793 9.87361561 2.56522463 8.11008944 2.56522463"></polygon>
                    <polygon id="路径" fill="#373534" points="8.11008944 2.52784206 9.87361561 2.52784206 9.87361561 2.57050876 8.11008944 2.57050876"></polygon>
                    <polygon id="路径" fill="#363433" points="8.11008944 2.53312624 9.87361561 2.53312624 9.87361561 2.57579284 8.11008944 2.57579284"></polygon>
                    <polygon id="路径" fill="#353332" points="8.11008944 2.53839795 9.87361561 2.53839795 9.87361561 2.58106465 8.11008944 2.58106465"></polygon>
                    <polygon id="路径" fill="#353231" points="8.11008944 2.54368208 9.87361561 2.54368208 9.87361561 2.58634878 8.11008944 2.58634878"></polygon>
                    <polygon id="路径" fill="#343130" points="8.11008944 2.54896625 9.87361561 2.54896625 9.87361561 2.59163285 8.11008944 2.59163285"></polygon>
                    <polygon id="路径" fill="#33302F" points="8.11008944 2.55423797 9.87361561 2.55423797 9.87361561 2.59690467 8.11008944 2.59690467"></polygon>
                    <polygon id="路径" fill="#322F2E" points="8.11008944 2.5595221 9.87361561 2.5595221 9.87361561 2.6021888 8.11008944 2.6021888"></polygon>
                    <polygon id="路径" fill="#312E2D" points="8.11008944 2.56480627 9.87361561 2.56480627 9.87361561 2.60747287 8.11008944 2.60747287"></polygon>
                    <polygon id="路径" fill="#302D2C" points="8.11008944 2.57007798 9.87361561 2.57007798 9.87361561 2.61274468 8.11008944 2.61274468"></polygon>
                    <polygon id="路径" fill="#2F2C2B" points="8.11008944 2.57536212 9.87361561 2.57536212 9.87361561 2.61802882 8.11008944 2.61802882"></polygon>
                    <polygon id="路径" fill="#2E2B2A" points="8.11008944 2.58064629 9.87361561 2.58064629 9.87361561 2.62331289 8.11008944 2.62331289"></polygon>
                    <polygon id="路径" fill="#2D2A29" points="8.11008944 2.585918 9.87361561 2.585918 9.87361561 2.6285847 8.11008944 2.6285847"></polygon>
                    <polygon id="路径" fill="#2C2928" points="8.11008944 2.59120213 9.87361561 2.59120213 9.87361561 2.63386883 8.11008944 2.63386883"></polygon>
                    <polygon id="路径" fill="#2B2827" points="8.11008944 2.59648631 9.87361561 2.59648631 9.87361561 2.63915291 8.11008944 2.63915291"></polygon>
                    <polygon id="路径" fill="#2A2726" points="8.11008944 2.60175802 9.87361561 2.60175802 9.87361561 2.64442472 8.11008944 2.64442472"></polygon>
                    <polygon id="路径" fill="#292625" points="8.11008944 2.60704215 9.87361561 2.60704215 9.87361561 2.64970885 8.11008944 2.64970885"></polygon>
                    <polygon id="路径" fill="#282524" points="8.11008944 2.60967803 9.87361561 2.60967803 9.87361561 2.65234473 8.11008944 2.65234473"></polygon>
                    <polygon id="路径" fill="#272423" points="8.11008944 2.61496216 9.87361561 2.61496216 9.87361561 2.65762886 8.11008944 2.65762886"></polygon>
                    <polygon id="路径" fill="#262322" points="8.11008944 2.62024634 9.87361561 2.62024634 9.87361561 2.66291294 8.11008944 2.66291294"></polygon>
                    <polygon id="路径" fill="#252221" points="8.11008944 2.62551805 9.87361561 2.62551805 9.87361561 2.66818475 8.11008944 2.66818475"></polygon>
                    <polygon id="路径" fill="#242120" points="8.11008944 2.63080218 9.87361561 2.63080218 9.87361561 2.67346888 8.11008944 2.67346888"></polygon>
                    <polygon id="路径" fill="#23201F" points="8.11008944 2.63608635 9.87361561 2.63608635 9.87361561 2.67875295 8.11008944 2.67875295"></polygon>
                    <polygon id="路径" fill="#221F1E" points="8.11008944 2.64135807 9.87361561 2.64135807 9.87361561 2.68402477 8.11008944 2.68402477"></polygon>
                    <polygon id="路径" fill="#211E1D" points="8.11008944 2.6466422 9.87361561 2.6466422 9.87361561 2.6893089 8.11008944 2.6893089"></polygon>
                    <polygon id="路径" fill="#201D1C" points="8.11008944 2.65192637 9.87361561 2.65192637 9.87361561 2.69459297 8.11008944 2.69459297"></polygon>
                    <polygon id="路径" fill="#1F1C1B" points="8.11008944 2.65719809 9.87361561 2.65719809 9.87361561 2.69986479 8.11008944 2.69986479"></polygon>
                    <polygon id="路径" fill="#1E1B1A" points="8.11008944 2.66248222 9.87361561 2.66248222 9.87361561 2.70514892 8.11008944 2.70514892"></polygon>
                    <polygon id="路径" fill="#1D1A19" points="8.11008944 2.66776639 9.87361561 2.66776639 9.87361561 2.71043299 8.11008944 2.71043299"></polygon>
                    <polygon id="路径" fill="#1C1918" points="8.11008944 2.6730381 9.87361561 2.6730381 9.87361561 2.7157048 8.11008944 2.7157048"></polygon>
                    <polygon id="路径" fill="#1B1817" points="8.11008944 2.67832224 9.87361561 2.67832224 9.87361561 2.72098894 8.11008944 2.72098894"></polygon>
                    <polygon id="路径" fill="#1A1716" points="8.11008944 2.68360641 9.87361561 2.68360641 9.87361561 2.72627301 8.11008944 2.72627301"></polygon>
                    <polygon id="路径" fill="#191615" points="8.11008944 2.68887812 9.87361561 2.68887812 9.87361561 2.73154482 8.11008944 2.73154482"></polygon>
                    <polygon id="路径" fill="#181514" points="8.11008944 2.69152642 9.87361561 2.69152642 9.87361561 2.73419302 8.11008944 2.73419302"></polygon>
                    <polygon id="路径" fill="#171413" points="8.11008944 2.69679813 9.87361561 2.69679813 9.87361561 2.73946483 8.11008944 2.73946483"></polygon>
                    <polygon id="路径" fill="#161312" points="8.11008944 2.70208226 9.87361561 2.70208226 9.87361561 2.74474896 8.11008944 2.74474896"></polygon>
                    <polygon id="路径" fill="#151211" points="8.11008944 2.70736644 9.87361561 2.70736644 9.87361561 2.75003304 8.11008944 2.75003304"></polygon>
                    <polygon id="路径" fill="#151110" points="8.11008944 2.71263815 9.87361561 2.71263815 9.87361561 2.75530485 8.11008944 2.75530485"></polygon>
                    <polygon id="路径" fill="#14100F" points="8.11008944 2.71792228 9.87361561 2.71792228 9.87361561 2.76058898 8.11008944 2.76058898"></polygon>
                    <polygon id="路径" fill="#130F0E" points="8.11008944 2.72320646 9.87361561 2.72320646 9.87361561 2.76587306 8.11008944 2.76587306"></polygon>
                    <polygon id="路径" fill="#120E0D" points="8.11008944 2.72847817 9.87361561 2.72847817 9.87361561 2.77114487 8.11008944 2.77114487"></polygon>
                    <polygon id="路径" fill="#110D0C" points="8.11008944 2.7337623 9.87361561 2.7337623 9.87361561 2.776429 8.11008944 2.776429"></polygon>
                    <polygon id="路径" fill="#100C0B" points="8.11008944 2.73904647 9.87361561 2.73904647 9.87361561 2.78171307 8.11008944 2.78171307"></polygon>
                    <polygon id="路径" fill="#0F0B0A" points="8.11008944 2.74431819 9.87361561 2.74431819 9.87361561 2.78698489 8.11008944 2.78698489"></polygon>
                    <polygon id="路径" fill="#0E0A09" points="8.11008944 2.74960232 9.87361561 2.74960232 9.87361561 2.79226902 8.11008944 2.79226902"></polygon>
                    <polygon id="路径" fill="#0D0908" points="8.11008944 2.75488649 9.87361561 2.75488649 9.87361561 2.79755309 8.11008944 2.79755309"></polygon>
                    <polygon id="路径" fill="#0C0807" points="8.11008944 2.76015821 9.87361561 2.76015821 9.87361561 2.80282491 8.11008944 2.80282491"></polygon>
                    <polygon id="路径" fill="#0B0706" points="8.11008944 2.76544234 9.87361561 2.76544234 9.87361561 2.80810904 8.11008944 2.80810904"></polygon>
                    <polygon id="路径" fill="#0A0605" points="8.11008944 2.77072651 9.87361561 2.77072651 9.87361561 2.81339311 8.11008944 2.81339311"></polygon>
                    <polygon id="路径" fill="#090504" points="8.11008944 2.77599822 9.87361561 2.77599822 9.87361561 2.81866492 8.11008944 2.81866492"></polygon>
                    <polygon id="路径" fill="#080403" points="8.11008944 2.77864652 9.87361561 2.77864652 9.87361561 2.82131312 8.11008944 2.82131312"></polygon>
                    <polygon id="路径" fill="#070302" points="8.11008944 2.78391823 9.87361561 2.78391823 9.87361561 2.82658493 8.11008944 2.82658493"></polygon>
                    <polygon id="路径" fill="#060201" points="8.11008944 2.78920236 9.87361561 2.78920236 9.87361561 2.83186906 8.11008944 2.83186906"></polygon>
                    <polygon id="路径" fill="#050100" points="8.11008944 2.79448654 9.87361561 2.79448654 9.87361561 2.83715314 8.11008944 2.83715314"></polygon>
                    <path d="M3.33432388,3.88608865 C3.33432388,4.05504843 3.36600392,4.22664904 3.37128396,4.39824966 L3.37128399,4.39825003 C3.39202835,4.69856069 3.24988733,4.98687501 2.99904356,5.1532905 L2.99904369,5.1532904 C2.80294921,5.29608322 2.58037963,5.39839241 2.34432375,5.45425075 L2.34432377,5.45425074 C2.15621365,5.50703859 1.96092726,5.3973383 1.90813916,5.20922793 C1.89040032,5.14601562 1.89060253,5.07911332 1.90872289,5.01600941 L1.90872285,5.0160096 C1.94518743,4.85598705 2.00477325,4.70213097 2.08560264,4.55928989 L2.08560269,4.5592898 C2.27860465,4.21368411 2.42338861,3.84328508 2.51592278,3.45840852 L2.51592278,3.45840853 C2.53472067,3.38660201 2.56035799,3.31676288 2.59248291,3.2498487 L2.5924829,3.24984871 C2.64720534,3.13225662 2.77924167,3.07183289 2.90400285,3.10728854 L2.90400291,3.10728856 C2.99565548,3.13372369 3.08417198,3.17001578 3.1680028,3.21552873 C3.29736254,3.28152876 3.4320027,3.36072848 3.55080283,3.43200857 C3.63000293,3.35016851 3.7039226,3.26040795 3.78576352,3.18120786 L3.78576382,3.18120759 C4.06974317,2.91830907 4.39651657,2.70581769 4.75200494,2.55288603 L4.75200455,2.55288622 C5.30901137,2.28617125 5.89441761,2.08335961 6.49704245,1.94832593 L6.49704215,1.94832599 C6.77948453,1.89138508 7.06513451,1.85171153 7.35240315,1.82952585 C7.69296354,1.80576582 8.03880436,1.79256577 8.37936475,1.80048578 L8.37936473,1.80048578 C8.82321071,1.79029465 9.26362138,1.88054259 9.66769035,2.06448567 L9.6676903,2.06448565 C9.89127959,2.1489549 10.0571073,2.34059945 10.1085712,2.57400583 L10.1085713,2.57400655 C10.1301416,2.74934565 10.1301416,2.92666723 10.1085713,3.10200634 L10.1085714,3.1020057 C10.0612102,3.39896397 9.96767935,3.68668306 9.83137104,3.95472587 L9.83137106,3.95472584 C9.78800691,4.0304707 9.72263527,4.09123833 9.64393043,4.12896604 L9.64393056,4.12896597 C9.45853923,4.22858298 9.25775462,4.29640363 9.04992987,4.32960579 L9.04993,4.32960576 C8.47984155,4.45098956 7.887436,4.41447757 7.33657213,4.22400568 L7.33657229,4.22400575 C7.01434424,4.09491578 6.72552502,3.89454698 6.49177089,3.63792507 L6.49177089,3.63792506 C6.46966293,3.60920699 6.44392896,3.5834729 6.41521076,3.56136493 C6.38089076,3.54552492 6.32809066,3.53232486 6.30433063,3.56136493 L6.30433062,3.56136495 C6.2786464,3.58907211 6.26698506,3.62697183 6.27265058,3.66432507 L6.27265058,3.66432507 C6.28589853,3.70644343 6.30949855,3.74456651 6.3412907,3.77520519 L6.34129051,3.77520498 C6.68494095,4.15401283 7.13640127,4.41843966 7.63488789,4.53288627 L7.63488795,4.53288629 C8.2311248,4.6803086 8.85676717,4.65744204 9.44065005,4.46688613 L9.44065004,4.46688613 C9.47511446,4.45644507 9.50866646,4.44320085 9.5409702,4.42728608 L9.54097023,4.42728607 C9.57527785,4.40966999 9.6116344,4.39636883 9.64921039,4.38768602 C9.58321036,4.4853661 9.51985065,4.58304666 9.45384975,4.67544595 L9.45384966,4.67544608 C9.00971039,5.28018085 8.37734839,5.72032794 7.65600756,5.92680753 L7.65600772,5.92680749 C7.18836335,6.05355981 6.6954096,6.05355981 6.22777018,5.92680757 L6.22776979,5.92680748 C5.43883787,5.74738339 4.70287101,5.38573102 4.07881141,4.87080667 L4.07881141,4.87080667 C3.87766174,4.71302029 3.70604999,4.5208524 3.57193082,4.3032056 L3.57193088,4.30320569 C3.52163511,4.22076693 3.48257003,4.13198251 3.4557707,4.03920579 C3.43465064,3.96264566 3.40561068,3.91248564 3.33961053,3.89400603 L3.33432388,3.88608865 Z M9.10537472,1.99320644 C9.01297457,1.99320644 8.91793409,1.99320644 8.8281744,2.01960643 L8.82817434,2.01960644 C8.68693583,2.03659548 8.55288101,2.09131198 8.44009389,2.17800662 L8.44009389,2.17800662 C8.37043531,2.22060229 8.34849651,2.31160233 8.39109205,2.38126129 C8.40802157,2.40894704 8.4335902,2.43029332 8.46385392,2.44200739 L8.46385391,2.44200738 C8.50908434,2.465907 8.55692045,2.48450986 8.60641408,2.49744745 L8.60641393,2.49744741 C8.82839447,2.54713755 9.05789035,2.55341292 9.28225431,2.51592752 L9.28225441,2.5159275 C9.3983959,2.49977106 9.5119718,2.46871534 9.62017398,2.42352748 L9.62017398,2.42352748 C9.69968332,2.39767187 9.75245545,2.3222839 9.74953371,2.23872768 C9.74953371,2.15160757 9.67297358,2.11992754 9.60961314,2.0882475 L9.60961302,2.08824745 C9.44995429,2.02215138 9.27809504,1.99065883 9.10537202,1.99584742 L9.10537472,1.99320644 Z M6.46537577,3.02016805 L6.46537578,3.02016805 C6.58752881,3.02904027 6.69374554,2.93720806 6.70261842,2.81505466 C6.70276567,2.81302734 6.70288504,2.81099807 6.7029765,2.80896747 L6.7029765,2.80896758 C6.69736658,2.68516175 6.59245438,2.58934448 6.46864817,2.59495532 C6.46755701,2.59500476 6.46646622,2.59506217 6.4653759,2.59512754 L6.46537591,2.59512754 C6.34800422,2.58202549 6.2422346,2.66655266 6.22913193,2.78392447 C6.21602989,2.90129616 6.30055705,3.00706578 6.41792887,3.02016845 C6.4336955,3.02192846 6.44960903,3.02192846 6.46537566,3.02016845 L6.46537577,3.02016805 Z M7.50025739,8.13649401 L7.32073677,8.13649401 C7.30489675,8.13649401 7.28377668,8.10745393 7.27849676,8.08897395 C7.23625675,7.92001417 7.19929667,7.74841355 7.15177661,7.57945377 L7.15177663,7.57945382 C7.13106927,7.51296535 7.10083501,7.44982926 7.06201657,7.39201319 L7.06201657,7.39201319 C7.02994536,7.3281726 6.95219339,7.30241833 6.88835304,7.33448967 C6.86909962,7.34416187 6.85256722,7.35849002 6.84025668,7.37617317 L6.84025672,7.37617312 C6.77448006,7.45619862 6.72027032,7.54506732 6.67921695,7.64017301 L6.67921673,7.64017358 C6.62516613,7.7790398 6.5793271,7.92096513 6.54193698,8.06521201 C6.523457,8.12329203 6.5049769,8.15497207 6.43897686,8.1444121 L6.43897682,8.1444121 C6.39765925,8.14176099 6.35621421,8.14176099 6.31489627,8.1444121 C6.31489627,7.89625223 6.33337625,7.65865195 6.34393634,7.39993124 L6.34393642,7.39993121 C6.29638147,7.41903018 6.25046843,7.44198683 6.20665667,7.46857133 L6.20665654,7.46857143 C6.12821628,7.53032683 6.05329918,7.59643008 5.98225669,7.66657042 C5.85289696,7.79857099 5.7182568,7.93057032 5.60473584,8.0678513 C5.52817571,8.15233144 5.50177572,8.16025145 5.36713557,8.13121137 L5.84497571,7.32073084 L5.84497567,7.32073084 C5.69109979,7.29710953 5.55927743,7.19799557 5.49385568,7.05673094 L5.49385568,7.05673095 C5.45690451,6.95981343 5.45690451,6.852688 5.49385567,6.7557706 C5.49385567,6.7900906 5.50969569,6.82705069 5.52025566,6.86137069 L5.52025567,6.86137071 C5.55703371,7.02346607 5.71825342,7.12505628 5.88034879,7.08827897 C5.88979785,7.08613508 5.89913789,7.08353611 5.90833624,7.08049117 L5.90833622,7.08049117 C5.95866207,7.06403896 6.00223338,7.03159229 6.03241678,6.98809102 C6.18817737,6.72409113 6.33865755,6.48121043 6.4864969,6.22513055 L6.4864969,6.22513055 C6.50359731,6.1838626 6.54986947,6.16304015 6.59209698,6.1776105 L6.59209696,6.17761049 C6.83402973,6.22907941 7.08408422,6.22907954 7.32601699,6.1776106 C7.37881709,6.16441054 7.43161707,6.14065051 7.48969759,6.11953057 L7.48969759,8.13384879 L7.50025739,8.13649401 Z M4.55929809,9.11065514 C4.53553807,9.17665517 4.41673793,9.19249519 3.94681779,9.19249519 C3.47689766,9.19249521 3.37129671,9.20833521 3.37129671,9.27433525 C3.37129671,9.34033528 3.55609651,9.35881539 4.74674244,9.35881539 C5.93738341,9.35881539 6.12218816,9.35881539 6.12218816,9.27433525 C6.12218816,9.18985511 6.01658808,9.19249519 5.51498704,9.19249519 C5.01338687,9.19249519 4.91042675,9.17665517 4.91042675,9.11065514 C4.91042675,9.0446551 4.85498669,9.02881508 4.75202657,9.02881508 L4.75202658,9.02881509 C4.67775509,9.01953667 4.60420703,9.05076948 4.55930677,9.11065514 L4.55929809,9.11065514 Z M7.14385698,9.11065514 C7.12273691,9.17137525 7.03561681,9.19249519 6.83761621,9.19249519 C6.63961598,9.19249521 6.57361631,9.21625522 6.57361631,9.27433525 C6.57361631,9.33241527 6.63433642,9.35881539 6.79537657,9.35881539 C6.91681667,9.35881539 7.01449724,9.35881539 7.01449724,9.38521538 L7.01449722,9.38521543 C6.96788524,9.50836192 6.91320661,9.62830155 6.85081661,9.74425543 L6.85081641,9.7442558 C6.78363209,9.86642516 6.72795257,9.99457636 6.68449622,10.1270558 C6.68449622,10.1613758 6.88777687,10.1824959 7.21249724,10.1824959 L7.74049827,10.1824959 L7.74049827,10.6233768 C7.74049827,11.0035373 7.72465825,11.0748174 7.62961814,11.1302574 L7.62961814,11.1302574 C7.5741459,11.1618915 7.53477888,11.2156612 7.52137797,11.278098 C7.52137797,11.3995381 7.86193837,11.3071381 8.00449854,11.1408183 C8.11009862,11.0246581 8.12593864,10.9375376 8.12593864,10.591698 L8.12593864,10.1824971 L8.67505886,10.1824971 C9.12121897,10.1824971 9.22681992,10.1666571 9.22681992,10.1006571 C9.22681992,10.034657 9.11593979,10.018817 8.69881889,10.0082569 L8.15761867,9.98977696 L8.11273858,9.7680167 C8.09689856,9.54097602 8.09161851,9.53569684 7.90417875,9.53569684 C7.71673812,9.53569684 7.71673812,9.53569684 7.71673812,9.78385672 L7.71673812,10.0320178 L7.45273822,10.0320178 L7.45273825,10.0320178 C7.35031347,10.0382776 7.24758031,10.0266644 7.14913831,9.99769783 L7.14913828,9.99769809 C7.16433158,9.88077957 7.20390526,9.76835442 7.2652982,9.66769729 L7.40785837,9.37201736 L8.36089907,9.37201736 C9.16874001,9.37201736 9.31393976,9.37201736 9.31393976,9.28753722 C9.31393976,9.20305708 9.17401919,9.20569717 8.40577829,9.20569717 C7.6375374,9.20569716 7.50289724,9.20569717 7.52929686,9.12385712 C7.55569685,9.04201706 7.52929686,9.04201706 7.37089668,9.04201706 C7.21249649,9.04201706 7.16761603,9.0736971 7.143856,9.12385712 L7.14385698,9.11065514 Z M3.4689727,9.83137598 L3.46897261,9.83137687 C3.4583548,9.94112048 3.45835483,10.0516323 3.46897268,10.1613764 L3.4689727,10.1613764 C3.65750852,10.1808099 3.84711478,10.187865 4.03657377,10.1824965 L4.5645748,10.1824965 L4.5645748,10.4808173 C4.5645748,10.9032173 4.50913474,11.106498 4.39561502,11.146098 L4.39561502,11.146098 C4.33914981,11.1615845 4.29751061,11.2094695 4.29001494,11.2675381 C4.29001494,11.3889782 4.60417572,11.3229782 4.76785508,11.1619381 C4.87873521,11.0589779 4.89457523,10.9929783 4.89457523,10.6128178 L4.89457523,10.1824977 L5.99545651,10.1824977 L5.99545651,9.52249738 L3.49009772,9.52249738 L3.4689727,9.83137598 Z M5.67073526,9.83137598 L5.65489524,9.98449574 L3.83857725,9.98449574 L3.82273724,9.83137598 L3.80425726,9.68353539 L5.68658357,9.68353539 L5.67073526,9.83137598 Z M3.67752882,10.6233769 L3.67752889,10.6233766 C3.62845738,10.806783 3.55847866,10.9839437 3.46896906,11.1513764 L3.35808894,11.3335366 L3.47424911,11.3335366 C3.60096926,11.3335366 3.87024957,11.0035358 4.03656977,10.6444958 C4.17912993,10.338255 4.16857033,10.2880954 3.96000964,10.2880954 C3.75144981,10.2880954 3.77256901,10.2880954 3.67752889,10.6286558 L3.67752882,10.6233769 Z M5.35128664,10.359377 L5.35128662,10.3593769 C5.43675478,10.6472445 5.57655148,10.9160855 5.7631271,11.1513778 L5.76312707,11.1513778 C5.82553613,11.2334683 5.91245018,11.293568 6.01128695,11.3229784 C6.1036871,11.3229784 6.1036871,11.3071384 5.98488696,11.0853782 L5.98488697,11.0853782 C5.89226481,10.920543 5.82548812,10.7424702 5.78688674,10.5573784 C5.7208867,10.2933785 5.71296669,10.2722581 5.52288684,10.2722581 C5.3961667,10.2722581 5.34072663,10.298658 5.34072663,10.3540981 L5.35128664,10.359377 Z M6.93528848,10.317137 L6.93528846,10.3171371 C6.90688508,10.4034115 6.88482637,10.491647 6.86928842,10.581137 L6.86928847,10.5811367 C6.8349556,10.7577084 6.77538464,10.9284192 6.69240868,11.0880173 C6.58944856,11.2912979 6.57888859,11.3520172 6.63960858,11.3520172 C6.79272834,11.3520172 7.18344962,10.8081761 7.29960893,10.4280157 C7.33656902,10.3171356 7.320729,10.3065756 7.14384834,10.3065756 C7.04088822,10.3065756 6.94056769,10.3224156 6.93000809,10.3461756 L6.93528848,10.317137 Z M8.49289442,10.298657 L8.49289445,10.298657 C8.53086805,10.4092504 8.5749356,10.5176565 8.62489501,10.6233775 C8.76745518,10.9480979 9.07105512,11.3229779 9.18721567,11.3229779 C9.30337584,11.3229779 9.28489574,11.2965779 9.16873569,11.1249776 L9.16873569,11.1249776 C9.08791212,10.9784315 9.0232909,10.8235173 8.97601587,10.6629775 C8.88361573,10.3276975 8.8783358,10.3197775 8.68561512,10.3039375 L8.48233447,10.3039375 L8.49289442,10.298657 Z" id="形状" fill="#FFFFFF"></path>
                </g>
            </g>
        </g>
    </g>
</svg>