<?xml version="1.0" encoding="UTF-8"?>
<svg width="10px" height="7px" viewBox="0 0 10 7" version="1.1" xmlns="http://www.w3.org/2000/svg" xmlns:xlink="http://www.w3.org/1999/xlink">
    <title>Rectangle备份 2</title>
    <g id="pc" stroke="none" stroke-width="1" fill="none" fill-rule="evenodd">
        <g id="14" transform="translate(-902.000000, -152.000000)" fill="#92929D">
            <g id="编组-53" transform="translate(101.000000, 76.000000)">
                <g id="编组-7" transform="translate(22.000000, 61.000000)">
                    <g id="编组-91" transform="translate(704.000000, 0.000000)">
                        <g id="编组-14" transform="translate(74.000000, 15.000000)">
                            <path d="M3.31234752,-1.35012198 L8.67862366,2.94289893 C8.89425463,3.1154037 8.92921532,3.43004989 8.75671054,3.64568086 C8.73364466,3.67451321 8.70745601,3.70070186 8.67862366,3.72376774 L3.31234752,8.01678865 C3.09671656,8.18929342 2.78207037,8.15433273 2.6095656,7.93870177 C2.53864038,7.85004524 2.5,7.73988999 2.5,7.62635424 L2.5,-0.959687576 C2.5,-1.23582995 2.72385763,-1.45968758 3,-1.45968758 C3.11353575,-1.45968758 3.223691,-1.4210472 3.31234752,-1.35012198 Z" id="Rectangle备份-2" transform="translate(5.833333, 3.333333) rotate(-270.000000) translate(-5.833333, -3.333333) "></path>
                        </g>
                    </g>
                </g>
            </g>
        </g>
    </g>
</svg>