<?xml version="1.0" encoding="UTF-8"?>
<svg width="35px" height="34px" viewBox="0 0 35 34" version="1.1" xmlns="http://www.w3.org/2000/svg" xmlns:xlink="http://www.w3.org/1999/xlink">
    <!-- Generator: Sketch 60.1 (88133) - https://sketch.com -->
    <title>编组 42</title>
    <desc>Created with Sketch.</desc>
    <defs>
        <rect id="path-1" x="0" y="0" width="47" height="47"></rect>
        <filter x="-1.1%" y="-1.1%" width="102.1%" height="104.3%" filterUnits="objectBoundingBox" id="filter-2">
            <feOffset dx="0" dy="1" in="SourceAlpha" result="shadowOffsetOuter1"></feOffset>
            <feColorMatrix values="0 0 0 0 0.875509511   0 0 0 0 0.875509511   0 0 0 0 0.875509511  0 0 0 0.5 0" type="matrix" in="shadowOffsetOuter1"></feColorMatrix>
        </filter>
    </defs>
    <g id="pc" stroke="none" stroke-width="1" fill="none" fill-rule="evenodd">
        <g id="桃子搜索-pc-03" transform="translate(-1357.000000, -686.000000)">
            <g id="编组-39" transform="translate(1351.000000, 632.000000)">
                <g id="编组-38">
                    <g id="编组-15备份" transform="translate(0.000000, 47.500000)">
                        <g id="编组-43">
                            <g id="编组-42">
                                <g id="矩形">
                                    <use fill="black" fill-opacity="1" filter="url(#filter-2)" xlink:href="#path-1"></use>
                                    <use fill="#FFFFFF" fill-rule="evenodd" xlink:href="#path-1"></use>
                                </g>
                                <path d="M32.8442347,27.1199838 L32.8442345,27.1199841 C32.4334655,27.8018825 31.9671289,28.4487241 31.4499722,29.0539208 C31.3622297,29.1596927 30.7997161,29.6609076 30.3604017,29.2810898 C29.9186835,28.8988686 30.3117227,28.3129171 30.3604017,28.2017362 C30.9000785,26.9493009 31.4397553,26.0430291 31.4397553,23.8813093 C31.4397553,21.7201983 30.3604017,19.561484 28.1993028,17.4027865 L28.1993027,17.402787 C28.1590008,17.6678526 28.0977088,17.9292968 28.0160049,18.184658 L28.0160049,18.184658 C27.2851562,20.7691179 24.5975619,22.2717746 22.013102,21.5409235 C21.7179198,21.4574506 21.431299,21.3462355 21.1570704,21.2087643 C20.3229164,20.8445732 18.7453554,20.8758232 17.7357157,21.722598 C16.9604572,22.3710518 16.3174126,23.3416283 16.3174126,24.4209699 C16.3174126,27.6620239 18.2134917,28.3874129 17.4310216,29.2810711 C16.8961525,29.6374492 16.4472227,29.2215746 16.351668,29.105586 L16.351668,29.105586 C15.8160409,28.4870443 15.3346821,27.8235176 14.9129309,27.1223645 L13.0799534,27.1223645 L13.0799534,27.1223645 C12.4841748,27.1230283 12.0006624,26.6405917 12,26.0448156 C12,26.0442143 12,26.0436131 12,26.0430118 L12,21.7201787 C12,21.1234087 12.4831854,20.6408251 13.0793537,20.6408251 L13.8125438,20.6408251 C14.5781845,16.3925377 17.5968816,12.751805 22.3428062,12.103368 L22.3428059,12.103368 C22.7400084,12.0205049 23.1460082,11.987597 23.5513704,12.0054088 C23.6625511,12 23.7713277,12 23.8819077,12 C29.511264,12 33.1032941,15.9484202 33.9482498,20.6378219 L34.6814398,20.6378219 C35.2776082,20.6378219 35.7607934,21.1210071 35.7607934,21.7171755 L35.7607934,26.038204 C35.7607934,26.6055262 35.3190751,27.0778929 34.7511538,27.1145521 L34.751154,27.1145513 C33.5365474,31.1817923 30.1547299,34.2318621 25.9841163,35.0215943 L25.9841163,35.0215943 C25.835971,35.4602734 25.4242727,35.7553811 24.9612543,35.7547853 L22.8019456,35.7547853 L22.8019455,35.7547853 C22.2058349,35.7547853 21.722592,35.2715414 21.722592,34.6754308 C21.722592,34.0793201 22.2058349,33.5960772 22.8019455,33.5960772 C22.8019456,33.5960772 22.8019456,33.5960772 22.8019456,33.5960772 L24.9606527,33.5960772 C25.2833769,33.5960772 25.5730465,33.7379075 25.7719714,33.9626722 L25.7719724,33.962672 C29.4352757,33.2749842 32.4380867,30.6558551 33.6171265,27.1199628 L32.8442718,27.1199628 L32.8442347,27.1199838 Z M20.340912,29.7282175 L20.340912,29.7282175 C20.1008623,29.5504279 20.0503907,29.2117009 20.22818,28.9716531 C20.3936147,28.748285 20.7014226,28.6866734 20.9400844,28.8291577 C21.9371032,29.4926362 22.913089,29.8183658 23.8812712,29.8183658 C24.8500455,29.8183658 25.8260312,29.4926362 26.8224581,28.8291577 L26.8224581,28.8291577 C27.0653236,28.6563781 27.4022712,28.7131951 27.5750522,28.9560615 C27.5755981,28.9568288 27.5761419,28.9575975 27.5766837,28.9583676 L27.5766837,28.9583676 C27.7494633,29.2012331 27.6926463,29.5381807 27.4497799,29.7109617 C27.4490126,29.7115075 27.4482439,29.7120514 27.4474738,29.7125932 L27.4216319,29.7306225 C26.2599435,30.5076857 25.0742192,30.9001215 23.8842959,30.9001215 C22.6937614,30.9001215 21.5056308,30.5052795 20.3409442,29.7282186 L20.340912,29.7282175 Z" id="形状" fill="#C5C5C5" fill-rule="nonzero"></path>
                            </g>
                        </g>
                    </g>
                </g>
            </g>
        </g>
    </g>
</svg>