<?xml version="1.0" encoding="UTF-8"?>
<svg width="35px" height="35px" viewBox="0 0 35 35" version="1.1" xmlns="http://www.w3.org/2000/svg" xmlns:xlink="http://www.w3.org/1999/xlink">
    <title>btn_Chevron Left</title>
    <g id="pc" stroke="none" stroke-width="1" fill="none" fill-rule="evenodd">
        <g id="14" transform="translate(-1166.000000, -232.000000)">
            <g id="编组-53" transform="translate(101.000000, 76.000000)">
                <g id="编组-8" transform="translate(0.000000, 139.000000)">
                    <g id="btn_Chevron-Left" transform="translate(1065.000000, 17.000000)">
                        <path d="M5.1277704,0.5 L29.8722296,0.5 C31.5136685,0.5 32.1159211,0.653234454 32.717892,0.975172007 C33.2813208,1.27649702 33.723503,1.71867923 34.024828,2.28210802 C34.3467655,2.88407891 34.5,3.48633153 34.5,5.1277704 L34.5,5.1277704 L34.5,29.8722296 C34.5,31.5136685 34.3467655,32.1159211 34.024828,32.717892 C33.723503,33.2813208 33.2813208,33.723503 32.717892,34.024828 C32.1159211,34.3467655 31.5136685,34.5 29.8722296,34.5 L29.8722296,34.5 L5.1277704,34.5 C3.48633153,34.5 2.88407891,34.3467655 2.28210802,34.024828 C1.71867923,33.723503 1.27649702,33.2813208 0.975172007,32.717892 C0.653234454,32.1159211 0.5,31.5136685 0.5,29.8722296 L0.5,29.8722296 L0.5,5.1277704 C0.5,3.48633153 0.653234454,2.88407891 0.975172007,2.28210802 C1.27649702,1.71867923 1.71867923,1.27649702 2.28210802,0.975172007 C2.88407891,0.653234454 3.48633153,0.5 5.1277704,0.5 L5.1277704,0.5 Z" id="Shape" stroke="#E2E2EA" transform="translate(17.500000, 17.500000) scale(-1, 1) rotate(-180.000000) translate(-17.500000, -17.500000) "></path>
                        <g id="-mockplus-" transform="translate(6.000000, 5.000000)" fill="#92929D">
                            <g id="ic_Chevron-Left" transform="translate(8.000000, 6.000000)">
                                <path d="M2.41421356,6 L6.70710678,10.2928932 C7.09763107,10.6834175 7.09763107,11.3165825 6.70710678,11.7071068 C6.31658249,12.0976311 5.68341751,12.0976311 5.29289322,11.7071068 L0.292893219,6.70710678 C-0.0976310729,6.31658249 -0.0976310729,5.68341751 0.292893219,5.29289322 L5.29289322,0.292893219 C5.68341751,-0.0976310729 6.31658249,-0.0976310729 6.70710678,0.292893219 C7.09763107,0.683417511 7.09763107,1.31658249 6.70710678,1.70710678 L2.41421356,6 Z" id="Shape"></path>
                            </g>
                        </g>
                    </g>
                </g>
            </g>
        </g>
    </g>
</svg>