<?xml version="1.0" encoding="UTF-8"?>
<svg width="20px" height="20px" viewBox="0 0 20 20" version="1.1" xmlns="http://www.w3.org/2000/svg" xmlns:xlink="http://www.w3.org/1999/xlink">
    <title>形状备份 3</title>
    <g id="pc" stroke="none" stroke-width="1" fill="none" fill-rule="evenodd">
        <g id="10" transform="translate(-692.000000, -272.000000)" fill="#ADADAD" fill-rule="nonzero">
            <g id="编组-8" transform="translate(349.000000, 76.000000)">
                <g id="编组-30" transform="translate(26.000000, 78.000000)">
                    <g id="编组-29" transform="translate(22.000000, 111.000000)">
                        <g id="编组-47" transform="translate(284.000000, 0.000000)">
                            <g id="编组-12" transform="translate(11.000000, 7.000000)">
                                <path d="M11.2473265,7.61959494 C11.5364975,7.6298043 11.809604,7.75547793 12.0058766,7.96865197 C13.4687024,9.43730393 13.4687024,11.8164378 12.0058766,13.2850898 L12.0058766,13.2850898 L8.80718963,16.4923478 C7.3287404,17.8715577 5.02675954,17.8299509 3.59884519,16.3982104 C2.17093084,14.9664699 2.12943525,12.6583208 3.50495939,11.17591 L3.50495939,11.17591 L4.22059783,10.3713774 C4.64278195,9.94505985 5.32970493,9.94262606 5.75488325,10.3659414 C6.18006158,10.7892568 6.18248887,11.4780204 5.76030477,11.904338 L5.76030477,11.904338 L5.04466633,12.6762544 C4.59920843,13.0660593 4.4075128,13.6722757 4.54758237,14.2482277 C4.68765194,14.8241797 5.13614043,15.27387 5.7105533,15.4143149 C6.28496617,15.5547597 6.88956243,15.3625505 7.2783257,14.9158989 L7.2783257,14.9158989 L10.4661696,11.6868968 C11.0809734,11.067605 11.0809734,10.0665441 10.4661696,9.44725226 C10.0457607,9.02320117 10.0457607,8.33834277 10.4661696,7.91429167 C10.6769097,7.71548746 10.9581555,7.60938558 11.2473265,7.61959494 Z M11.105907,3.56546728 C12.5893709,2.14484424 14.9246734,2.14484424 16.4081373,3.56546728 C17.8554662,5.02434051 17.8651283,7.37852121 16.4298233,8.84928891 L16.4298233,8.84928891 L15.6599698,9.62120524 C15.2347915,10.0445206 14.5478685,10.0420868 14.1256844,9.61576921 C13.7035003,9.18945159 13.7059276,8.50068796 14.1311059,8.07737258 L14.1311059,8.07737258 L14.9009594,7.30545625 C15.5157631,6.68616443 15.5157631,5.68510352 14.9009594,5.0658117 C14.27631,4.46663286 13.2919493,4.46663286 12.6673,5.0658117 L12.6673,5.0658117 L9.46861304,8.27306968 C8.85380928,8.8923615 8.85380928,9.89342242 9.46861304,10.5127142 C9.89079715,10.9390319 9.88836986,11.6277955 9.46319153,12.0511109 C9.0380132,12.4744262 8.35109021,12.4719925 7.9289061,12.0456748 C6.46608026,10.5770229 6.46608026,8.19788898 7.9289061,6.72923702 L7.9289061,6.72923702 Z" id="形状结合"></path>
                            </g>
                        </g>
                    </g>
                </g>
            </g>
        </g>
    </g>
</svg>