<?xml version="1.0" encoding="UTF-8"?>
<svg width="138px" height="34px" viewBox="0 0 138 34" version="1.1" xmlns="http://www.w3.org/2000/svg" xmlns:xlink="http://www.w3.org/1999/xlink">
    <title>编组 9</title>
    <g id="pc" stroke="none" stroke-width="1" fill="none" fill-rule="evenodd">
        <g id="桃子搜索-pc-07" transform="translate(-101.000000, -14.000000)" fill-rule="nonzero">
            <g id="编组-20" transform="translate(101.000000, 14.000000)">
                <g id="编组-11" transform="translate(0.000000, 3.200000)">
                    <path d="M63.5544,25.5 L63.5544,20.3424 L65.52,20.3424 L65.52,19.5024 L60.606,19.5024 L60.606,20.3424 L62.5716,20.3424 L62.5716,25.5 L63.5544,25.5 Z M69.8879998,25.5 L70.4339998,23.9964 L72.9455998,23.9964 L73.4915998,25.5 L74.5415998,25.5 L72.2483998,19.5024 L71.1311998,19.5024 L68.8379998,25.5 L69.8879998,25.5 Z M72.6515998,23.19 L70.7279998,23.19 L71.6771998,20.5608 L71.7107998,20.5608 L72.6515998,23.19 Z M80.9843996,25.6176 C81.9027996,25.6176 82.6251996,25.3236 83.1515996,24.7356 C83.6555996,24.17 83.9075996,23.428 83.9075996,22.5096 C83.9075996,21.58 83.6555996,20.8352 83.1515996,20.2752 C82.6251996,19.6816 81.9027996,19.3848 80.9843996,19.3848 C80.0547996,19.3848 79.3323996,19.6844 78.8171996,20.2836 C78.3187996,20.8492 78.0695996,21.5912 78.0695996,22.5096 C78.0695996,23.4224 78.3187996,24.1616 78.8171996,24.7272 C79.3435996,25.3208 80.0659996,25.6176 80.9843996,25.6176 Z M80.9843996,24.7524 C80.3571996,24.7524 79.8755996,24.5452 79.5395996,24.1308 C79.2147996,23.7332 79.0523996,23.1928 79.0523996,22.5096 C79.0523996,21.8208 79.2147996,21.2776 79.5395996,20.88 C79.8867996,20.46 80.3683996,20.25 80.9843996,20.25 C81.6115996,20.25 82.0903996,20.4488 82.4207996,20.8464 C82.7511996,21.2552 82.9163996,21.8096 82.9163996,22.5096 C82.9163996,23.2096 82.7511996,23.7584 82.4207996,24.156 C82.0847996,24.5536 81.6059996,24.7524 80.9843996,24.7524 Z M92.5931995,25.5 L92.5931995,24.66 L88.9307995,24.66 L92.3915995,20.2836 L92.3915995,19.5024 L87.8975995,19.5024 L87.8975995,20.3424 L91.1147995,20.3424 L87.6455995,24.7272 L87.6455995,25.5 L92.5931995,25.5 Z M97.5659993,25.5 L97.5659993,19.5024 L96.5831993,19.5024 L96.5831993,25.5 L97.5659993,25.5 Z M102.496799,25.5 C102.681599,25.5 102.835599,25.4412 102.958799,25.3236 C103.087599,25.206 103.151999,25.052 103.151999,24.8616 C103.151999,24.6824 103.090399,24.5312 102.967199,24.408 C102.843999,24.2904 102.687199,24.2316 102.496799,24.2316 C102.317599,24.2316 102.163599,24.2904 102.034799,24.408 C101.911599,24.5256 101.849999,24.6768 101.849999,24.8616 C101.849999,25.0464 101.911599,25.1976 102.034799,25.3152 C102.169199,25.4384 102.323199,25.5 102.496799,25.5 Z M110.056799,25.6176 C110.706399,25.6176 111.260799,25.4328 111.719999,25.0632 C112.212799,24.6712 112.526399,24.1224 112.660799,23.4168 L112.660799,23.4168 L111.703199,23.4168 C111.585599,23.876 111.383999,24.2176 111.098399,24.4416 C110.823999,24.6488 110.473999,24.7524 110.048399,24.7524 C109.393199,24.7524 108.908799,24.548 108.595199,24.1392 C108.309599,23.7584 108.166799,23.2152 108.166799,22.5096 C108.166799,21.8152 108.312399,21.2776 108.603599,20.8968 C108.917199,20.4656 109.390399,20.25 110.023199,20.25 C110.448799,20.25 110.793199,20.3396 111.056399,20.5188 C111.330799,20.7036 111.518399,20.992 111.619199,21.384 L111.619199,21.384 L112.576799,21.384 C112.481599,20.768 112.218399,20.2864 111.787199,19.9392 C111.333599,19.5696 110.751199,19.3848 110.039999,19.3848 C109.076799,19.3848 108.345999,19.7012 107.847599,20.334 C107.405199,20.8828 107.183999,21.608 107.183999,22.5096 C107.183999,23.4224 107.396799,24.1448 107.822399,24.6768 C108.315199,25.304 109.059999,25.6176 110.056799,25.6176 Z M119.439599,25.6176 C120.357999,25.6176 121.080399,25.3236 121.606799,24.7356 C122.110799,24.17 122.362799,23.428 122.362799,22.5096 C122.362799,21.58 122.110799,20.8352 121.606799,20.2752 C121.080399,19.6816 120.357999,19.3848 119.439599,19.3848 C118.509999,19.3848 117.787599,19.6844 117.272399,20.2836 C116.773999,20.8492 116.524799,21.5912 116.524799,22.5096 C116.524799,23.4224 116.773999,24.1616 117.272399,24.7272 C117.798799,25.3208 118.521199,25.6176 119.439599,25.6176 Z M119.439599,24.7524 C118.812399,24.7524 118.330799,24.5452 117.994799,24.1308 C117.669999,23.7332 117.507599,23.1928 117.507599,22.5096 C117.507599,21.8208 117.669999,21.2776 117.994799,20.88 C118.341999,20.46 118.823599,20.25 119.439599,20.25 C120.066799,20.25 120.545599,20.4488 120.875999,20.8464 C121.206399,21.2552 121.371599,21.8096 121.371599,22.5096 C121.371599,23.2096 121.206399,23.7584 120.875999,24.156 C120.539999,24.5536 120.061199,24.7524 119.439599,24.7524 Z M127.461599,25.5 L127.461599,21.3672 L127.495199,21.3672 L129.259199,25.5 L130.107599,25.5 L131.871599,21.3672 L131.905199,21.3672 L131.905199,25.5 L132.887999,25.5 L132.887999,19.5024 L131.737199,19.5024 L129.704399,24.2064 L129.670799,24.2064 L127.629599,19.5024 L126.478799,19.5024 L126.478799,25.5 L127.461599,25.5 Z" id="TAOZI.COM" fill="#3F3E4C" opacity="0.51078869"></path>
                    <path d="M71.5371821,13.5384678 L71.62092,13.53664 C71.80656,13.52236 71.9922,13.47952 72.16356,13.40812 C72.60624,13.2082 72.93468,12.87976 73.12032,12.45136 C73.206,12.23716 73.26312,12.00868 73.26312,11.75164 L73.26312,11.75164 L73.26312,3.59776 C73.26312,3.34072 73.206,3.12652 73.12032,2.89804 C72.83472,2.22688 72.22068,1.79848 71.46384,1.79848 L71.46384,1.79848 L65.2806,1.79848 L65.40912,1.44148 C65.50908,1.18444 65.39484,0.91312 65.1378,0.82744 L65.1378,0.82744 L65.09496,0.81316 C64.8522,0.7132 64.59516,0.84172 64.4952,1.08448 L64.4952,1.08448 L64.10964,2.1412 C64.05252,2.284 64.0668,2.44108 64.15248,2.5696 C64.25244,2.69812 64.38096,2.76952 64.55232,2.76952 L64.55232,2.76952 L71.46384,2.76952 C71.7066,2.76952 71.90652,2.8552 72.0636,3.01228 C72.22068,3.15508 72.29208,3.355 72.29208,3.59776 L72.29208,3.59776 L72.29208,11.75164 C72.29208,11.9944 72.22068,12.19432 72.0636,12.3514 C71.93508,12.4942 71.74944,12.5656 71.54952,12.57988 C71.30676,12.59416 71.10684,12.80836 71.10684,13.05112 L71.10684,13.05112 L71.10684,13.0654 C71.10684,13.2082 71.14968,13.32244 71.26392,13.4224 C71.3496,13.50808 71.47812,13.55092 71.62092,13.53664 L71.5371821,13.5384678 Z M62.2818,3.54064 C62.55312,3.54064 62.75304,3.32644 62.75304,3.0694 L62.75304,3.0694 L62.75304,1.32724 C62.75304,1.0702 62.55312,0.856 62.2818,0.856 C62.01048,0.856 61.81056,1.0702 61.81056,1.32724 L61.81056,1.32724 L61.81056,3.0694 C61.81056,3.32644 62.01048,3.54064 62.2818,3.54064 Z M69.67884,13.03684 C70.50708,13.03684 71.19252,12.3514 71.19252,11.52316 L71.19252,11.52316 L71.19252,9.43828 C71.19252,9.18124 70.9926,8.96704 70.72128,8.96704 L70.72128,8.96704 L70.69272,8.96704 C70.43568,8.96704 70.22148,9.18124 70.22148,9.43828 L70.22148,9.43828 L70.22148,11.52316 C70.22148,11.66596 70.17864,11.79448 70.0644,11.89444 C69.96444,12.02296 69.83592,12.0658 69.67884,12.0658 L69.67884,12.0658 L68.19372,12.0658 L68.19372,8.01028 L70.93548,8.01028 C71.19252,8.01028 71.40672,7.81036 71.40672,7.53904 L71.40672,7.53904 L71.40672,7.52476 C71.40672,7.26772 71.19252,7.05352 70.93548,7.05352 L70.93548,7.05352 L68.19372,7.05352 L68.19372,5.22568 L70.64988,5.22568 C70.90692,5.22568 71.12112,5.02576 71.12112,4.75444 L71.12112,4.75444 L71.12112,4.7116 C71.12112,4.45456 70.90692,4.25464 70.64988,4.25464 L70.64988,4.25464 L65.55192,4.25464 L65.6376,3.9976 C65.72328,3.75484 65.59476,3.48352 65.352,3.39784 L65.352,3.39784 L65.32344,3.39784 C65.08068,3.31216 64.80936,3.44068 64.73796,3.66916 L64.73796,3.66916 L64.39524,4.58308 C64.33812,4.74016 64.3524,4.88296 64.45236,5.02576 C64.53804,5.15428 64.68084,5.22568 64.83792,5.22568 L64.83792,5.22568 L67.25124,5.22568 L67.25124,7.05352 L64.50948,7.05352 C64.25244,7.05352 64.03824,7.26772 64.03824,7.52476 L64.03824,7.52476 L64.03824,7.53904 C64.03824,7.81036 64.25244,8.01028 64.50948,8.01028 L64.50948,8.01028 L67.25124,8.01028 L67.25124,12.0658 L65.76612,12.0658 C65.60904,12.0658 65.48052,12.02296 65.38056,11.89444 C65.26632,11.79448 65.22348,11.66596 65.22348,11.52316 L65.22348,11.52316 L65.22348,9.43828 C65.22348,9.18124 64.995,8.96704 64.75224,8.96704 L64.75224,8.96704 L64.72368,8.96704 C64.45236,8.96704 64.25244,9.18124 64.25244,9.43828 L64.25244,9.43828 L64.25244,11.52316 C64.25244,12.3514 64.9236,13.03684 65.76612,13.03684 L65.76612,13.03684 L69.67884,13.03684 Z M62.2818,7.4962 C62.55312,7.4962 62.75304,7.282 62.75304,7.02496 L62.75304,7.02496 L62.75304,5.26852 C62.75304,5.01148 62.55312,4.79728 62.2818,4.79728 C62.01048,4.79728 61.81056,5.01148 61.81056,5.26852 L61.81056,5.26852 L61.81056,7.02496 C61.81056,7.282 62.01048,7.4962 62.2818,7.4962 Z M60.7824,13.2796 C61.02516,13.4224 61.31076,13.33672 61.43928,13.10824 L61.43928,13.10824 L63.46704,9.46684 C63.59556,9.23836 63.52416,8.93848 63.2814,8.82424 L63.2814,8.82424 L63.26712,8.80996 C63.05292,8.68144 62.75304,8.76712 62.62452,8.9956 L62.62452,8.9956 L60.59676,12.65128 C60.48252,12.86548 60.5682,13.15108 60.7824,13.2796 Z M83.2759499,5.43988 C83.5329899,5.43988 83.7471899,5.23996 83.7471899,4.96864 L83.7471899,4.96864 L83.7471899,4.95436 C83.7471899,4.69732 83.5329899,4.48312 83.2759499,4.48312 L83.2759499,4.48312 L83.1902699,4.48312 L83.1902699,2.45536 L83.2759499,2.45536 C83.5329899,2.45536 83.7471899,2.24116 83.7471899,1.98412 L83.7471899,1.98412 L83.7471899,1.95556 C83.7471899,1.69852 83.5329899,1.4986 83.2759499,1.4986 L83.2759499,1.4986 L83.1902699,1.4986 L83.1902699,1.05592 C83.1902699,0.81316 82.9760699,0.58468 82.7190299,0.58468 L82.7190299,0.58468 L82.6904699,0.58468 C82.4477099,0.58468 82.2192299,0.81316 82.2192299,1.05592 L82.2192299,1.05592 L82.2192299,1.4986 L80.3342699,1.4986 L80.3342699,1.05592 C80.3342699,0.81316 80.1200699,0.58468 79.8630299,0.58468 L79.8630299,0.58468 L79.8487499,0.58468 C79.5774299,0.58468 79.3775099,0.81316 79.3775099,1.05592 L79.3775099,1.05592 L79.3775099,1.4986 L79.3061099,1.4986 C79.0490699,1.4986 78.8348699,1.69852 78.8348699,1.95556 L78.8348699,1.95556 L78.8348699,1.98412 C78.8348699,2.24116 79.0490699,2.45536 79.3061099,2.45536 L79.3061099,2.45536 L79.3775099,2.45536 L79.3775099,4.48312 L79.3061099,4.48312 C79.0490699,4.48312 78.8348699,4.69732 78.8348699,4.95436 L78.8348699,4.95436 L78.8348699,4.96864 C78.8348699,5.23996 79.0490699,5.43988 79.3061099,5.43988 L79.3061099,5.43988 L83.2759499,5.43988 Z M76.1787899,13.4938 C76.3929899,13.4938 76.5929099,13.45096 76.7928299,13.36528 C77.4068699,13.0654 77.7495899,12.40852 77.7495899,11.72308 L77.7495899,11.72308 L77.7495899,8.4244 L78.7206299,7.7818 C78.9348299,7.639 78.9919499,7.3534 78.8634299,7.12492 L78.8634299,7.12492 L78.8491499,7.12492 C78.7063499,6.89644 78.4207499,6.83932 78.1922699,6.98212 L78.1922699,6.98212 L77.7495899,7.282 L77.7495899,3.45496 L78.1494299,3.45496 C78.4064699,3.45496 78.6063899,3.24076 78.6063899,2.98372 L78.6063899,2.98372 L78.6063899,2.95516 C78.6063899,2.69812 78.4064699,2.48392 78.1494299,2.48392 L78.1494299,2.48392 L77.7495899,2.48392 L77.7495899,1.0702 C77.7495899,0.82744 77.5353899,0.61324 77.2783499,0.61324 L77.2783499,0.61324 L77.2497899,0.61324 C76.9927499,0.61324 76.7785499,0.82744 76.7785499,1.0702 L76.7785499,1.0702 L76.7785499,2.48392 L75.8217899,2.48392 C75.5647499,2.48392 75.3505499,2.69812 75.3505499,2.95516 L75.3505499,2.95516 L75.3505499,2.98372 C75.3505499,3.24076 75.5647499,3.45496 75.8217899,3.45496 L75.8217899,3.45496 L76.7785499,3.45496 L76.7785499,7.9246 L75.4933499,8.76712 C75.2791499,8.90992 75.2077499,9.19552 75.3505499,9.424 L75.3505499,9.424 L75.3648299,9.43828 C75.5076299,9.65248 75.8075099,9.7096 76.0217099,9.5668 L76.0217099,9.5668 L76.7785499,9.067 L76.7785499,11.72308 C76.7785499,11.95156 76.7357099,12.1372 76.5929099,12.29428 C76.4786699,12.45136 76.3358699,12.53704 76.1787899,12.53704 L76.1787899,12.53704 L76.0217099,12.53704 C75.7646699,12.53704 75.5504699,12.73696 75.5504699,13.00828 L75.5504699,13.00828 L75.5504699,13.02256 C75.5504699,13.2796 75.7646699,13.4938 76.0217099,13.4938 L76.0217099,13.4938 L76.1787899,13.4938 Z M84.3713972,13.3327216 L84.4469099,13.32244 C84.5754299,13.29388 84.6753899,13.22248 84.7467899,13.10824 C85.1323499,12.53704 85.4607899,11.95156 85.7749499,11.32324 C85.9177499,11.02336 86.0462699,10.72348 86.1747899,10.4236 L86.1747899,10.4236 L87.0744299,13.00828 C87.1743899,13.25104 87.4314299,13.37956 87.6741899,13.30816 L87.6741899,13.30816 L87.7027499,13.29388 C87.9597899,13.2082 88.0883099,12.93688 87.9883499,12.69412 L87.9883499,12.69412 L86.6888699,8.95276 C86.9601899,8.05312 87.1743899,7.11064 87.3314699,6.16816 C87.4885499,5.3542 87.6027899,4.48312 87.6884699,3.55492 L87.6884699,3.55492 L87.6884699,3.52636 C87.9026699,3.4978 88.0883099,3.29788 88.0883099,3.05512 L88.0883099,3.05512 L88.0883099,3.04084 C88.0883099,2.76952 87.8741099,2.5696 87.6170699,2.5696 L87.6170699,2.5696 L85.2465899,2.5696 L85.5036299,1.2844 C85.5607499,1.02736 85.4036699,0.77032 85.1466299,0.72748 L85.1466299,0.72748 L85.1323499,0.72748 C84.8753099,0.67036 84.6325499,0.82744 84.5754299,1.0702 L84.5754299,1.0702 L84.1613099,2.95516 C84.1327499,3.09796 84.1613099,3.24076 84.2469899,3.355 C84.3612299,3.46924 84.4754699,3.52636 84.6182699,3.52636 L84.6182699,3.52636 L86.7031499,3.52636 C86.6174699,4.38316 86.5175099,5.22568 86.3889899,5.98252 C86.3033099,6.4252 86.2176299,6.86788 86.1176699,7.31056 L86.1176699,7.31056 L85.1323499,4.44028 C85.0323899,4.18324 84.7753499,4.05472 84.5325899,4.15468 L84.5325899,4.15468 L84.5183099,4.15468 C84.2612699,4.22608 84.1327499,4.4974 84.2184299,4.75444 L84.2184299,4.75444 L85.6607099,8.95276 C85.2465899,10.23796 84.6896699,11.45176 83.9471099,12.57988 C83.8043099,12.79408 83.8614299,13.09396 84.0756299,13.23676 L84.0756299,13.23676 L84.0899099,13.23676 C84.2041499,13.32244 84.3183899,13.351 84.4469099,13.32244 L84.3713972,13.3327216 Z M82.2192299,4.48312 L80.3342699,4.48312 L80.3342699,2.45536 L82.2192299,2.45536 L82.2192299,4.48312 Z M79.4489099,13.52236 C79.7059499,13.52236 79.9201499,13.30816 79.9201499,13.05112 L79.9201499,13.05112 L79.9201499,12.02296 L82.6619099,12.02296 L82.6619099,13.05112 C82.6619099,13.30816 82.8618299,13.52236 83.1331499,13.52236 C83.4044699,13.52236 83.6043899,13.30816 83.6043899,13.05112 L83.6043899,13.05112 L83.6043899,7.46764 C83.6043899,7.05352 83.4473099,6.68224 83.1617099,6.39664 C82.8761099,6.11104 82.5048299,5.93968 82.0907099,5.93968 L82.0907099,5.93968 L80.4770699,5.93968 C80.0772299,5.93968 79.7059499,6.11104 79.4060699,6.39664 C79.1204699,6.68224 78.9633899,7.05352 78.9633899,7.46764 L78.9633899,7.46764 L78.9633899,13.05112 C78.9633899,13.30816 79.1775899,13.52236 79.4346299,13.52236 L79.4346299,13.52236 L79.4489099,13.52236 Z M82.6619099,8.53864 L79.9201499,8.53864 L79.9201499,7.46764 C79.9201499,7.31056 79.9772699,7.16776 80.0915099,7.0678 C80.1914699,6.96784 80.3199899,6.91072 80.4770699,6.91072 L80.4770699,6.91072 L82.0907099,6.91072 C82.2477899,6.91072 82.3763099,6.96784 82.4905499,7.0678 C82.6047899,7.16776 82.6619099,7.31056 82.6619099,7.46764 L82.6619099,7.46764 L82.6619099,8.53864 Z M82.6619099,11.05192 L79.9201499,11.05192 L79.9201499,9.48112 L82.6619099,9.48112 L82.6619099,11.05192 Z M95.7734997,13.5652 C96.0162597,13.5652 96.2447397,13.50808 96.4589397,13.4224 C97.1300997,13.12252 97.5442197,12.4942 97.5442197,11.75164 L97.5442197,11.75164 L97.5442197,8.53864 C97.5442197,7.53904 96.7588197,6.76792 95.7734997,6.76792 L95.7734997,6.76792 L92.9460597,6.76792 C93.1888197,6.45376 93.4030197,6.12532 93.6029397,5.76832 C93.6314997,5.7112 93.6457797,5.65408 93.6457797,5.59696 L93.6457797,5.59696 L97.1300997,5.59696 C97.3871397,5.59696 97.6013397,5.38276 97.6013397,5.12572 L97.6013397,5.12572 L97.6013397,5.09716 C97.6013397,4.8544 97.3871397,4.62592 97.1300997,4.62592 L97.1300997,4.62592 L96.4589397,4.62592 L96.4589397,3.86908 C96.4589397,3.61204 96.2590197,3.39784 95.9876997,3.39784 L95.9876997,3.39784 L95.9734197,3.39784 C95.7020997,3.39784 95.5021797,3.61204 95.5021797,3.86908 L95.5021797,3.86908 L95.5021797,4.62592 L94.2883797,4.62592 L94.2883797,2.52676 L96.7873797,2.52676 C97.0444197,2.52676 97.2586197,2.32684 97.2586197,2.05552 L97.2586197,2.05552 L97.2586197,2.04124 C97.2586197,1.7842 97.0444197,1.57 96.7873797,1.57 L96.7873797,1.57 L94.2883797,1.57 L94.2883797,1.12732 C94.2883797,0.856 94.0884597,0.65608 93.8171397,0.65608 L93.8171397,0.65608 L93.8028597,0.65608 C93.5458197,0.65608 93.3316197,0.856 93.3316197,1.12732 L93.3316197,1.12732 L93.3316197,1.57 L91.3324197,1.57 C91.0753797,1.57 90.8611797,1.7842 90.8611797,2.04124 L90.8611797,2.04124 L90.8611797,2.05552 C90.8611797,2.32684 91.0753797,2.52676 91.3324197,2.52676 L91.3324197,2.52676 L93.3316197,2.52676 L93.3316197,4.62592 L91.0039797,4.62592 C90.7326597,4.62592 90.5327397,4.8544 90.5327397,5.09716 L90.5327397,5.09716 L90.5327397,5.12572 C90.5327397,5.38276 90.7326597,5.59696 91.0039797,5.59696 L91.0039797,5.59696 L92.5890597,5.59696 C92.3605797,5.95396 92.0892597,6.29668 91.8036597,6.59656 C91.4180997,7.01068 90.9611397,7.39624 90.4327797,7.81036 C90.2328597,7.96744 90.2042997,8.26732 90.3613797,8.45296 L90.3613797,8.45296 L90.3756597,8.4958 C90.5327397,8.71 90.8326197,8.75284 91.0325397,8.59576 C91.1039397,8.53864 91.1753397,8.4958 91.2467397,8.43868 L91.2467397,8.43868 L91.2467397,11.75164 C91.2467397,12.00868 91.3038597,12.23716 91.3895397,12.45136 C91.6751397,13.10824 92.3034597,13.5652 93.0317397,13.5652 L93.0317397,13.5652 L95.7734997,13.5652 Z M98.7722997,13.57948 C99.0293397,13.57948 99.2435397,13.37956 99.2435397,13.10824 L99.2435397,13.10824 L99.2435397,2.52676 C99.2435397,2.31256 99.3149397,2.11264 99.4862997,1.95556 C99.6433797,1.7842 99.8432997,1.7128 100.0575,1.7128 L100.0575,1.7128 L101.08566,1.7128 C101.29986,1.7128 101.49978,1.7842 101.65686,1.95556 C101.82822,2.11264 101.89962,2.31256 101.89962,2.52676 L101.89962,2.52676 L101.89962,5.31136 C101.89962,5.53984 101.82822,5.73976 101.65686,5.89684 C101.49978,6.05392 101.29986,6.12532 101.08566,6.12532 L101.08566,6.12532 L100.90002,6.12532 C100.81434,6.12532 100.74294,6.1396 100.68582,6.18244 C100.67154,6.18244 100.65726,6.19672 100.64298,6.19672 C100.60014,6.22528 100.5573,6.26812 100.52874,6.31096 C100.4859,6.3538 100.45734,6.39664 100.44306,6.45376 L100.44306,6.45376 L100.44306,6.48232 C100.44306,6.4966 100.42878,6.4966 100.42878,6.51088 L100.42878,6.51088 L100.42878,6.72508 C100.44306,6.73936 100.44306,6.76792 100.44306,6.7822 C100.47162,6.8536 100.51446,6.91072 100.57158,6.96784 L100.57158,6.96784 L100.6287,7.02496 C100.65726,7.03924 100.67154,7.05352 100.7001,7.05352 C100.71438,7.0678 100.72866,7.0678 100.74294,7.08208 L100.74294,7.08208 L100.8429,7.09636 L101.08566,7.09636 C101.29986,7.09636 101.49978,7.18204 101.65686,7.33912 C101.82822,7.51048 101.89962,7.68184 101.89962,7.9246 L101.89962,7.9246 L101.89962,10.90912 C101.89962,11.12332 101.82822,11.30896 101.65686,11.48032 C101.49978,11.6374 101.29986,11.7088 101.08566,11.7088 L101.08566,11.7088 L100.87146,11.7088 C100.61442,11.7088 100.40022,11.923 100.40022,12.18004 L100.40022,12.18004 L100.40022,12.2086 C100.40022,12.47992 100.61442,12.67984 100.87146,12.67984 L100.87146,12.67984 L101.08566,12.67984 C101.81394,12.67984 102.42798,12.26572 102.72786,11.59456 C102.82782,11.39464 102.85638,11.15188 102.85638,10.90912 L102.85638,10.90912 L102.85638,7.9246 C102.85638,7.66756 102.82782,7.43908 102.72786,7.22488 C102.61362,6.98212 102.47082,6.7822 102.29946,6.61084 C102.47082,6.43948 102.61362,6.23956 102.72786,5.9968 C102.82782,5.79688 102.85638,5.55412 102.85638,5.31136 L102.85638,5.31136 L102.85638,2.52676 C102.85638,2.284 102.82782,2.05552 102.72786,1.84132 C102.52794,1.41292 102.21378,1.08448 101.7711,0.88456 C101.5569,0.79888 101.32842,0.75604 101.08566,0.75604 L101.08566,0.75604 L100.0575,0.75604 C99.8147397,0.75604 99.5862597,0.79888 99.3720597,0.88456 C98.9436597,1.08448 98.6152197,1.41292 98.4152997,1.84132 C98.3153397,2.05552 98.2867797,2.284 98.2867797,2.52676 L98.2867797,2.52676 L98.2867797,13.10824 C98.2867797,13.37956 98.4866997,13.57948 98.7437397,13.57948 L98.7437397,13.57948 L98.7722997,13.57948 Z M96.5874597,9.68104 L92.2177797,9.68104 L92.2177797,8.53864 C92.2177797,8.32444 92.2891797,8.12452 92.4462597,7.96744 C92.6176197,7.82464 92.8032597,7.73896 93.0317397,7.73896 L93.0317397,7.73896 L95.7734997,7.73896 C95.9876997,7.73896 96.1876197,7.82464 96.3446997,7.96744 C96.5017797,8.12452 96.5874597,8.32444 96.5874597,8.53864 L96.5874597,8.53864 L96.5874597,9.68104 Z M95.7734997,12.57988 L93.0317397,12.57988 C92.8032597,12.57988 92.6176197,12.4942 92.4462597,12.33712 C92.2891797,12.18004 92.2177797,11.9944 92.2177797,11.75164 L92.2177797,11.75164 L92.2177797,10.65208 L96.5874597,10.65208 L96.5874597,11.75164 C96.5874597,11.9944 96.5017797,12.18004 96.3446997,12.33712 C96.1876197,12.4942 95.9876997,12.57988 95.7734997,12.57988 L95.7734997,12.57988 Z M117.11037,13.25104 C117.36741,13.25104 117.58161,13.03684 117.58161,12.7798 L117.58161,12.7798 L117.58161,12.75124 C117.58161,12.50848 117.36741,12.28 117.11037,12.28 L117.11037,12.28 L115.41105,12.28 C115.19685,12.28 114.99693,12.2086 114.83985,12.05152 C114.66849,11.89444 114.59709,11.69452 114.59709,11.46604 L114.59709,11.46604 L114.59709,4.16896 L115.81089,4.16896 C116.05365,4.16896 116.29641,4.12612 116.49633,4.02616 C117.16749,3.74056 117.61017,3.12652 117.61017,2.38396 L117.61017,2.38396 L117.61017,1.9984 C117.61017,1.75564 117.39597,1.52716 117.13893,1.52716 L117.13893,1.52716 L117.09609,1.52716 C116.83905,1.52716 116.62485,1.75564 116.62485,1.9984 L116.62485,1.9984 L116.62485,2.38396 C116.62485,2.61244 116.55345,2.79808 116.39637,2.95516 C116.23929,3.11224 116.03937,3.19792 115.81089,3.19792 L115.81089,3.19792 L112.08381,3.19792 C112.14093,2.5696 112.19805,1.91272 112.24089,1.22728 C112.25517,0.97024 112.04097,0.74176 111.78393,0.72748 L111.78393,0.72748 L111.75537,0.72748 C111.49833,0.7132 111.28413,0.91312 111.26985,1.18444 C111.22701,1.84132 111.16989,2.52676 111.11277,3.19792 L111.11277,3.19792 L108.98505,3.19792 C108.74229,3.19792 108.52809,3.39784 108.52809,3.66916 L108.52809,3.66916 L108.52809,3.69772 C108.52809,3.96904 108.74229,4.16896 108.98505,4.16896 L108.98505,4.16896 L110.99853,4.16896 C110.64153,7.16776 109.98465,10.2094 108.75657,12.45136 C108.62805,12.67984 108.69945,12.95116 108.92793,13.07968 L108.92793,13.07968 L108.95649,13.09396 C109.07073,13.16536 109.18497,13.17964 109.31349,13.15108 C109.45629,13.10824 109.54197,13.02256 109.61337,12.90832 C110.31309,11.6374 110.87001,10.05232 111.32697,8.1388 C111.59829,6.925 111.82677,5.59696 111.98385,4.16896 L111.98385,4.16896 L113.62605,4.16896 L113.62605,11.46604 C113.62605,11.7088 113.66889,11.93728 113.76885,12.16576 C113.96877,12.59416 114.28293,12.9226 114.72561,13.10824 C114.92553,13.2082 115.16829,13.25104 115.41105,13.25104 L115.41105,13.25104 L117.11037,13.25104 Z M107.28573,13.33672 C107.54277,13.33672 107.74269,13.10824 107.74269,12.86548 L107.74269,12.86548 L107.74269,2.22688 C107.74269,1.81276 107.24289,1.59856 106.94301,1.89844 L106.94301,1.89844 L105.38649,3.46924 C105.20085,3.65488 105.20085,3.95476 105.38649,4.1404 L105.38649,4.1404 L105.41505,4.1404 C105.58641,4.32604 105.87201,4.32604 106.07193,4.1404 L106.07193,4.1404 L106.78593,3.41212 L106.78593,12.86548 C106.78593,13.10824 106.98585,13.33672 107.25717,13.33672 L107.25717,13.33672 L107.28573,13.33672 Z M130.764599,9.29548 C131.178719,9.29548 131.549999,9.15268 131.849879,8.8528 C131.992679,8.69572 132.106919,8.52436 132.192599,8.33872 C132.235439,8.2102 132.263999,8.0674 132.278279,7.9246 C132.306839,7.68184 132.121199,7.48192 131.892719,7.48192 L131.892719,7.48192 L131.778479,7.48192 C131.564279,7.48192 131.364359,7.65328 131.321519,7.89604 C131.307239,7.996 131.250119,8.09596 131.150159,8.18164 L131.164439,8.16736 C131.035919,8.2816 130.907399,8.32444 130.764599,8.32444 L130.764599,8.32444 L126.580559,8.32444 L126.580559,7.58188 L130.193399,7.58188 C130.407599,7.58188 130.593239,7.53904 130.793159,7.46764 C131.350079,7.2106 131.721359,6.69652 131.721359,6.0682 L131.721359,6.0682 L131.721359,4.38316 C131.721359,4.18324 131.664239,3.98332 131.592839,3.79768 C131.350079,3.24076 130.807439,2.8552 130.193399,2.8552 L130.193399,2.8552 L126.580559,2.8552 L126.580559,2.2126 L131.707079,2.2126 C131.964119,2.2126 132.178319,2.01268 132.178319,1.74136 L132.178319,1.74136 L132.178319,1.72708 C132.178319,1.47004 131.964119,1.25584 131.707079,1.25584 L131.707079,1.25584 L126.580559,1.25584 L126.580559,1.08448 C126.580559,0.81316 126.366359,0.61324 126.109319,0.61324 L126.109319,0.61324 L126.095039,0.61324 C125.823719,0.61324 125.623799,0.81316 125.623799,1.08448 L125.623799,1.08448 L125.623799,1.25584 L120.497279,1.25584 C120.225959,1.25584 120.026039,1.47004 120.026039,1.72708 L120.026039,1.72708 L120.026039,1.74136 C120.026039,2.01268 120.225959,2.2126 120.497279,2.2126 L120.497279,2.2126 L125.623799,2.2126 L125.623799,2.8552 L122.025239,2.8552 C121.611119,2.8552 121.225559,3.02656 120.939959,3.31216 C120.654359,3.59776 120.497279,3.98332 120.497279,4.38316 L120.497279,4.38316 L120.497279,6.0682 C120.497279,6.69652 120.839999,7.19632 121.439759,7.46764 C121.625399,7.53904 121.811039,7.58188 122.025239,7.58188 L122.025239,7.58188 L125.623799,7.58188 L125.623799,8.32444 L120.397319,8.32444 C120.154559,8.32444 119.926079,8.53864 119.926079,8.79568 L119.926079,8.79568 L119.926079,8.82424 C119.926079,9.08128 120.154559,9.29548 120.397319,9.29548 L120.397319,9.29548 L130.764599,9.29548 Z M130.750319,4.69732 L126.580559,4.69732 L126.580559,3.82624 L130.193399,3.82624 C130.350479,3.82624 130.493279,3.88336 130.593239,3.98332 C130.693199,4.09756 130.750319,4.22608 130.750319,4.38316 L130.750319,4.38316 L130.750319,4.69732 Z M125.623799,4.69732 L121.454039,4.69732 L121.454039,4.38316 C121.454039,4.22608 121.496879,4.09756 121.625399,3.98332 C121.725359,3.88336 121.853879,3.82624 122.025239,3.82624 L122.025239,3.82624 L125.623799,3.82624 L125.623799,4.69732 Z M130.193399,6.61084 L126.580559,6.61084 L126.580559,5.66836 L130.750319,5.66836 L130.750319,6.0682 C130.750319,6.22528 130.693199,6.33952 130.593239,6.45376 C130.493279,6.55372 130.350479,6.61084 130.193399,6.61084 L130.193399,6.61084 Z M125.623799,6.61084 L122.025239,6.61084 C121.853879,6.61084 121.725359,6.55372 121.625399,6.45376 C121.496879,6.33952 121.454039,6.22528 121.454039,6.0682 L121.454039,6.0682 L121.454039,5.66836 L125.623799,5.66836 L125.623799,6.61084 Z M131.535719,13.03684 C131.621399,13.2796 131.906999,13.39384 132.149759,13.29388 L132.149759,13.29388 L132.149759,13.2796 C132.392519,13.19392 132.506759,12.9226 132.406799,12.66556 L132.406799,12.66556 L131.292959,10.03804 C131.192999,9.80956 130.921679,9.69532 130.678919,9.79528 C130.436159,9.89524 130.321919,10.16656 130.421879,10.4236 L130.421879,10.4236 L131.535719,13.03684 Z M120.311639,13.2082 C120.425879,13.26532 120.554399,13.29388 120.682919,13.25104 C120.825719,13.23676 120.911399,13.15108 120.982799,13.03684 C121.196999,12.62272 121.396919,12.2086 121.568279,11.79448 C121.753919,11.3518 121.896719,10.86628 122.010959,10.36648 C122.039519,10.23796 122.010959,10.10944 121.939559,9.9952 C121.853879,9.86668 121.753919,9.80956 121.611119,9.79528 C121.354079,9.75244 121.125599,9.90952 121.068479,10.15228 C120.982799,10.60924 120.839999,11.05192 120.682919,11.45176 C120.525839,11.83732 120.354479,12.2086 120.154559,12.57988 C120.026039,12.79408 120.097439,13.07968 120.311639,13.2082 Z M129.222359,13.5652 C129.465119,13.5652 129.693599,13.36528 129.693599,13.09396 L129.693599,13.09396 L129.693599,13.07968 C129.693599,12.82264 129.465119,12.60844 129.222359,12.60844 L129.222359,12.60844 L125.152559,12.60844 C124.952639,12.60844 124.809839,12.55132 124.724159,12.45136 C124.624199,12.33712 124.581359,12.19432 124.581359,12.03724 L124.581359,12.03724 L124.581359,10.33792 C124.581359,10.08088 124.381439,9.86668 124.110119,9.86668 L124.110119,9.86668 L124.095839,9.86668 C123.824519,9.86668 123.624599,10.08088 123.624599,10.33792 L123.624599,10.33792 L123.624599,12.03724 C123.624599,12.46564 123.738839,12.82264 123.981599,13.12252 C124.238639,13.4224 124.624199,13.5652 125.152559,13.5652 L125.152559,13.5652 L129.222359,13.5652 Z M127.094639,11.8516 C127.365959,11.8516 127.565879,11.65168 127.565879,11.38036 L127.565879,11.38036 L127.565879,10.33792 C127.565879,10.08088 127.365959,9.86668 127.094639,9.86668 L127.094639,9.86668 L127.080359,9.86668 C126.823319,9.86668 126.609119,10.08088 126.609119,10.33792 L126.609119,10.33792 L126.609119,11.38036 C126.609119,11.65168 126.823319,11.8516 127.080359,11.8516 L127.080359,11.8516 L127.094639,11.8516 Z" id="淘撒都优惠" stroke="#393846" stroke-width="0.3" fill="#3A3846"></path>
                    <path d="M3.69768164,6.72874303 L3.50047195,22.3510043 C3.47855977,23.5106426 3.25395984,24.3673123 2.82667219,24.9210134 C2.25695531,25.6388847 1.40383336,26.0865149 0.267306328,26.263904 L0,26.3000427 L0,23.6046673 L0.131473125,23.6046673 C0.273902344,23.6046673 0.388941328,23.5681021 0.476590078,23.4949718 C0.606071186,23.3810024 0.681224556,23.0252799 0.702050189,22.4278041 L0.706668047,22.2413088 L0.871009453,6.72874303 L3.69768164,6.72874303 Z M7.82265094,0.115670787 L7.82265094,2.30958101 L11.9311861,2.30958101 L11.9311861,5.20867666 L7.82265094,5.20867666 L7.82265094,26.2735976 L4.78233492,26.2735976 L4.78233492,5.20867666 L0.279380391,5.20867666 L0.279380391,2.30958101 L4.78233492,2.30958101 L4.78233492,0.115670787 L7.82265094,0.115670787 Z M20.0496516,0.147012362 L20.0496516,17.1169614 C20.0496516,18.9347727 19.8360077,20.4548391 19.4087201,21.6771605 C18.817091,23.3904999 17.7105255,24.6702808 16.0890237,25.5165034 C15.3420173,25.8964012 14.3776999,26.116299 13.1960716,26.2394812 L12.8350638,26.2735976 L9.21955289,26.2735976 L9.21955289,6.68173067 L11.7339764,6.68173067 L11.7343977,23.4580086 C12.0394772,23.4581644 12.322122,23.4504426 12.582332,23.4348432 L12.8350638,23.4166179 L13.1006094,23.3871152 C14.2320496,23.2381361 15.1131487,22.8144119 15.7439067,22.1159425 C16.5347997,21.244255 16.9549617,20.0557849 17.0043925,18.5505323 L17.0093355,18.245258 L17.0093355,0.147012362 L20.0496516,0.147012362 Z M31.6649279,26.2373596 L31.664,26.236 L29.8266171,26.2216888 L26.7383468,26.2216888 C25.3140546,26.2216888 24.196533,25.8299191 23.3857821,25.0463797 C22.6677366,24.3520433 22.2810967,23.5330824 22.2258624,22.589497 L22.2189581,22.3510043 L22.2189581,0.131341575 L25.2592741,0.131341575 L25.2592741,21.6771605 C25.2592741,22.1263897 25.4126595,22.5077122 25.7194301,22.8211279 C26.0349656,23.140812 26.5191154,23.3124071 27.1718794,23.3359133 L27.3957124,23.3382639 L30.146,23.323 L30.1468519,23.3209465 L31.8993259,23.3209465 L31.899,23.322 L40.2085104,23.3225931 C41.1397784,23.3330403 41.7752318,23.1502145 42.1148708,22.7741156 C42.3875558,22.4676646 42.5390474,22.020886 42.5693458,21.4337796 L42.5750267,21.2070368 L42.5750267,14.2350502 L31.6649279,14.2507209 L31.6649279,11.3516253 L42.2463439,11.3516253 L50.3483752,4.89526092 C50.8085311,4.52960921 51.0386091,4.20574627 51.0386091,3.9236721 C51.0386091,3.75651704 50.9783506,3.59980917 50.8578336,3.45354848 C50.6338423,3.1842431 50.2843294,3.034629 49.8092948,3.00470618 L49.625273,2.99909565 L31.6649279,2.99909565 L31.6649279,0.1 L50.5455849,0.1 C51.9150966,0.1 52.9614036,0.345509001 53.6845058,0.836527004 C54.5829054,1.44246411 55.0321053,2.28346303 55.0321053,3.35952376 C55.0321053,4.28932381 54.6376859,5.1616643 53.8488472,5.97654524 C53.4462107,6.38790341 52.9345269,6.84325405 52.3137957,7.34259715 L52.0410917,7.55929476 L47.1272836,11.3516253 L55.1614079,11.3516253 L55.1614079,14.2507209 L45.8618548,14.2507209 L45.878289,21.5204526 C45.878289,22.9412706 45.418133,24.0956853 44.4978211,24.9836966 C43.6966568,25.767236 42.5247613,26.1834912 40.9821348,26.2324625 L40.6686664,26.2373596 L31.6649279,26.2373596 Z M29.3842434,11.7904073 L29.3842434,18.1840886 C29.3842434,18.6333178 29.44998,18.9206156 29.5814531,19.0459819 C29.660337,19.1212016 29.7812923,19.1663335 29.944319,19.1813775 L30.0744773,19.1870189 L30.0580432,21.6473325 C27.9345175,21.4760732 26.8348345,20.4305279 26.7589943,18.5106965 L26.7547809,18.2937841 L26.7547809,11.7904073 L29.3842434,11.7904073 Z M15.7110384,11.7904073 L15.7110384,17.9945254 C15.7110384,19.3108716 15.1851459,20.2667896 14.1333609,20.8622795 C13.7978306,21.0451054 13.3322822,21.1799394 12.7367158,21.2667817 L12.4735127,21.3010616 L12.4735127,18.7937356 C12.5392493,18.7728412 12.5885517,18.7571704 12.62142,18.7467232 C12.894105,18.6538593 13.0455967,18.4578132 13.075895,18.158585 L13.0815759,18.0415378 L13.0815759,11.7904073 L15.7110384,11.7904073 Z M15.661736,2.10586078 L15.661736,9.33009373 L13.0322735,9.33009373 L13.0322735,2.10586078 L15.661736,2.10586078 Z M29.2363362,2.10586078 L29.2363362,9.33009373 L26.6068737,9.33009373 L26.6068737,2.10586078 L29.2363362,2.10586078 Z" id="形状结合" fill="#FF117D"></path>
                </g>
            </g>
        </g>
    </g>
</svg>