<?xml version="1.0" encoding="UTF-8"?>
<svg width="20px" height="20px" viewBox="0 0 20 20" version="1.1" xmlns="http://www.w3.org/2000/svg" xmlns:xlink="http://www.w3.org/1999/xlink">
    <!-- Generator: Sketch 60.1 (88133) - https://sketch.com -->
    <title>形状备份 4</title>
    <desc>Created with Sketch.</desc>
    <g id="pc" stroke="none" stroke-width="1" fill="none" fill-rule="evenodd">
        <g id="桃子搜索-pc-03" transform="translate(-537.000000, -482.000000)" fill="#FF951C" fill-rule="nonzero">
            <g id="编组-47" transform="translate(427.000000, 475.000000)">
                <g id="编组-37备份-2" transform="translate(102.000000, 0.000000)">
                    <g id="编组-46" transform="translate(8.000000, 7.000000)">
                        <path d="M14.8000021,2.61109855 L5.19999786,2.61109855 L5.19999786,15.700009 L14.8000021,15.700009 L14.8000021,2.61109855 Z M11.0000375,1.55553797 C11.0000375,1.43941658 10.9100119,1.3444349 10.8000236,1.3444349 L8.80003427,1.3444349 C8.69002447,1.3444349 8.60004177,1.43943919 8.60004177,1.55553797 L8.60004177,1.76664104 C8.60004177,1.88276243 8.69004589,1.97774412 8.80003427,1.97774412 L10.8000236,1.97774412 C10.9100334,1.97774412 11.0000375,1.88273982 11.0000375,1.76664104 L11.0000375,1.55553797 L11.0000375,1.55553797 Z M10.0000107,18.2333363 C10.4400285,18.2333363 10.8000021,17.8533418 10.8000021,17.3889014 C10.8000021,16.9244611 10.4400071,16.5444666 10.0000107,16.5444666 C9.55999293,16.5444666 9.20001928,16.9244611 9.20001928,17.3889014 C9.20001928,17.8533418 9.56001435,18.2333363 10.0000107,18.2333363 Z M14.8000021,19.5 L5.19999786,19.5 C4.5399819,19.5 4,18.9300194 4,18.2333363 L4,1.76666365 C4,1.06998056 4.5399819,0.5 5.19999786,0.5 L14.8000021,0.5 C15.4600181,0.5 16,1.06998056 16,1.76666365 L16,18.2333363 C16,18.9300194 15.4600181,19.5 14.8000021,19.5 Z" id="形状"></path>
                    </g>
                </g>
            </g>
        </g>
    </g>
</svg>