<?xml version="1.0" encoding="UTF-8"?>
<svg width="33px" height="33px" viewBox="0 0 33 33" version="1.1" xmlns="http://www.w3.org/2000/svg" xmlns:xlink="http://www.w3.org/1999/xlink">
    <title>电  话</title>
    <defs>
        <path d="M0,0 L60,0 L60,54 C60,57.3137085 57.3137085,60 54,60 L6,60 C2.6862915,60 4.05812251e-16,57.3137085 0,54 L0,0 L0,0 Z" id="path-1"></path>
        <filter x="-0.8%" y="-0.8%" width="101.7%" height="103.3%" filterUnits="objectBoundingBox" id="filter-2">
            <feOffset dx="0" dy="1" in="SourceAlpha" result="shadowOffsetOuter1"></feOffset>
            <feColorMatrix values="0 0 0 0 0.909193841   0 0 0 0 0.909193841   0 0 0 0 0.909193841  0 0 0 0.669990166 0" type="matrix" in="shadowOffsetOuter1"></feColorMatrix>
        </filter>
    </defs>
    <g id="呆萌价" stroke="none" stroke-width="1" fill="none" fill-rule="evenodd">
        <g id="pc" transform="translate(-1757.000000, -1191.000000)">
            <g id="编组-3" transform="translate(1743.000000, 934.000000)">
                <g id="编组-2" transform="translate(0.000000, 243.000000)">
                    <g id="矩形">
                        <use fill="black" fill-opacity="1" filter="url(#filter-2)" xlink:href="#path-1"></use>
                        <use fill="#FFFFFF" fill-rule="evenodd" xlink:href="#path-1"></use>
                    </g>
                    <g id="电--话" transform="translate(20.000000, 19.000000)" fill="#8F8F8F" fill-rule="nonzero">
                        <g id="二维码" transform="translate(0.000000, 1.000000)">
                            <g id="APP下载" transform="translate(0.500000, 0.000000)">
                                <path d="M9.29909069,8.92640297 L9.29909069,10.7727336 L9.82742431,10.7727336 C10.5438066,10.7727336 10.9016422,10.4611948 10.9016422,9.83850383 C10.9016422,9.2302289 10.5474804,8.92642445 9.83848878,8.92642445 L9.29909069,8.92642445 L9.29909069,8.92640297 Z M16.4046908,6.5312576 L16.4046908,1.3750016 C16.4046908,0.615330404 15.7890467,-1.289064e-05 15.0296763,-1.289064e-05 L4.02947011,-1.289064e-05 C3.27016414,-1.289064e-05 2.6544771,0.615308919 2.6544771,1.3750016 L2.6544771,6.5312576 L0.0895834903,6.5312576 L0.0895834903,15.1250176 L2.6544771,15.1250176 L2.6544771,20.6250025 C2.6544771,21.3843514 3.27014266,22.000017 4.02949159,22.000017 L15.0296978,22.000017 C15.7890252,22.000017 16.4046908,21.3843729 16.4046908,20.6250025 L16.4046908,15.1250176 L18.944641,15.1250176 L18.944641,6.5312576 L16.4046908,6.5312576 Z M15.0297622,1.718752 L15.0297622,6.5312576 L4.02968495,6.5312576 L4.02953456,1.718752 L15.0297622,1.718752 L15.0297622,1.718752 Z M12.1833585,9.79048405 C12.1833585,10.3762648 11.9685192,10.8459245 11.5388394,11.1990787 C11.1091385,11.5525744 10.5720199,11.7217834 9.92685627,11.7070021 L9.29911647,11.7070021 L9.29911647,13.7010122 L8.08054709,13.7010122 L8.08054709,7.98107003 L10.0490338,7.98107003 C11.4716792,7.98107003 12.1833585,8.58433909 12.1833585,9.79046901 L12.1833585,9.79048405 Z M3.36162753,12.3901179 L2.94069228,13.7010466 L1.61857023,13.7010466 L3.71224435,7.98114737 L5.1451593,7.98114737 L7.19827086,13.7010466 L5.86893006,13.7010466 L5.44060417,12.3901179 L3.36164687,12.3901179 L3.36162753,12.3901179 Z M9.52973432,21.3125248 C9.1500706,21.3125248 8.84188332,21.0046813 8.84188332,20.625039 C8.84188332,20.2453968 9.1500706,19.9375103 9.52973432,19.9375103 C9.90939804,19.9375103 10.2172201,20.2453753 10.2172201,20.6250176 C10.2172201,21.0046598 9.90937656,21.3125248 9.52973432,21.3125248 L9.52973432,21.3125248 Z M15.0297407,19.2500245 L4.02953456,19.2500245 L4.02966347,15.1250412 L15.0297407,15.1250412 L15.0297407,19.2500245 L15.0297407,19.2500245 Z M16.3503589,11.1990679 C15.9210017,11.5525636 15.3835179,11.7217726 14.7386765,11.7069914 L14.1109152,11.7069914 L14.1109152,13.7010015 L12.8923458,13.7010015 L12.8923458,7.98105929 L14.860188,7.98105929 C16.2835424,7.98105929 16.994575,8.58428538 16.994575,9.79045827 C16.994575,10.376239 16.7800148,10.8458988 16.3503137,11.1990529 L16.3503589,11.1990679 Z M14.6500555,8.92638363 L14.1109152,8.92638363 L14.1109152,10.7727143 L14.6386043,10.7727143 C15.3549866,10.7727143 15.7135312,10.4611755 15.7135312,9.8384845 C15.7135312,9.23020957 15.3590257,8.92638363 14.6500555,8.92638363 Z M4.41407094,8.96703125 L4.38051296,8.96703125 C4.36573201,9.13417623 4.33286163,9.29569316 4.28112827,9.45078475 L3.62737302,11.4485117 L5.15262577,11.4485117 L4.50273771,9.46556601 C4.46075805,9.33999249 4.43123913,9.17381431 4.41409501,8.96703125 L4.41407094,8.96703125 Z" id="形状"></path>
                            </g>
                        </g>
                    </g>
                </g>
            </g>
        </g>
    </g>
</svg>