<?xml version="1.0" encoding="UTF-8"?>
<svg width="22px" height="23px" viewBox="0 0 22 23" version="1.1" xmlns="http://www.w3.org/2000/svg" xmlns:xlink="http://www.w3.org/1999/xlink">
    <title>编组 18</title>
    <g id="pc" stroke="none" stroke-width="1" fill="none" fill-rule="evenodd">
        <g id="桃子搜索-pc-02" transform="translate(-1221.000000, -147.000000)" fill-rule="nonzero">
            <g id="编组-45" transform="translate(0.000000, 134.000000)">
                <g id="编组-44" transform="translate(952.000000, 4.500000)">
                    <g id="编组-23" transform="translate(269.000000, 8.500000)">
                        <g id="编组-18" transform="translate(0.000000, 1.000000)">
                            <path d="M10.7422,-1.77635684e-13 C4.81035716,-1.77635684e-13 4.97379915e-14,4.81035716 4.97379915e-14,10.7422 C4.97379915e-14,16.6740428 4.81035716,21.4844 10.7422,21.4844 C16.6740428,21.4844 21.4844,16.6740428 21.4844,10.7422 C21.4844,4.81035716 16.6740428,-1.77635684e-13 10.7422,-1.77635684e-13 Z" id="形状" fill="#000000" opacity="0.0836123512"></path>
                            <path d="M9.8439766,11.201803 C10.0886401,11.201803 10.2888193,11.3989796 10.2888193,11.8766468 L10.2888193,13.8900696 C10.2888193,15.4341567 9.05994139,16.7421872 7.5141131,16.7421872 C5.98218615,16.7421872 4.7421872,15.503585 4.7421872,13.9733837 C4.7421872,12.4292967 6.05169282,11.201803 7.59752111,11.201803 L9.8439766,11.201803 Z M13.8781436,11.201803 C15.40451,11.201803 16.7140156,12.395971 16.7418183,13.9206181 C16.7668407,15.4730365 15.5157207,16.7421872 13.9671121,16.7421872 C12.4351852,16.7421872 11.1951862,15.5008079 11.1951862,13.9733837 L11.1951862,11.6461446 C11.1951862,11.529505 11.2424508,11.4156424 11.3258588,11.3323284 C11.4092668,11.2490143 11.5232577,11.201803 11.6400289,11.201803 L13.8781436,11.201803 Z M10.2888193,7.51376785 L10.2888193,9.83822978 C10.2888193,9.95486945 10.2415547,10.068732 10.1581467,10.152046 C10.0747387,10.2353601 9.9607478,10.2825714 9.8439766,10.2825714 L7.3639787,10.2825714 C5.91545975,10.2825714 4.7421872,9.11062043 4.7421872,7.65540173 L4.7421872,7.60541331 C4.7421872,6.15574888 5.82093068,4.88104395 7.26666937,4.75329574 C8.90980699,4.61166186 10.2888193,5.90025246 10.2888193,7.51376785 Z" id="形状结合" fill="#AAAAAA"></path>
                            <path d="M13.9671121,10.2825714 L11.6372486,10.2825714 C11.5204774,10.2825714 11.4064865,10.2353601 11.3230785,10.152046 C11.2396705,10.068732 11.192406,9.95486945 11.192406,9.83822978 L11.192406,7.51099072 C11.192406,5.98078938 12.4351852,4.7421872 13.9643319,4.7421872 C15.4962588,4.7421872 16.7362624,5.98356651 16.7362624,7.51099072 C16.739038,9.04396919 15.4990391,10.2825714 13.9671121,10.2825714 L13.9671121,10.2825714 Z" id="路径" fill="#AAAAAA"></path>
                        </g>
                    </g>
                </g>
            </g>
        </g>
    </g>
</svg>