<?xml version="1.0" encoding="UTF-8"?>
<svg width="149px" height="29px" viewBox="0 0 149 29" version="1.1" xmlns="http://www.w3.org/2000/svg" xmlns:xlink="http://www.w3.org/1999/xlink">
    <!-- Generator: Sketch 60.1 (88133) - https://sketch.com -->
    <title>编组 6</title>
    <desc>Created with Sketch.</desc>
    <defs>
        <linearGradient x1="50%" y1="0%" x2="50%" y2="100%" id="linearGradient-1">
            <stop stop-color="#FF9D3C" offset="0%"></stop>
            <stop stop-color="#FF641C" offset="100%"></stop>
        </linearGradient>
        <linearGradient x1="6.68984567%" y1="86.5757662%" x2="140.34029%" y2="-5.2135857%" id="linearGradient-2">
            <stop stop-color="#FFA61C" offset="0%"></stop>
            <stop stop-color="#FFEA14" offset="100%"></stop>
        </linearGradient>
        <linearGradient x1="45.0199677%" y1="24.9851279%" x2="0%" y2="75.0148721%" id="linearGradient-3">
            <stop stop-color="#30A8FE" offset="0%"></stop>
            <stop stop-color="#036FFF" offset="100%"></stop>
        </linearGradient>
    </defs>
    <g id="pc" stroke="none" stroke-width="1" fill="none" fill-rule="evenodd">
        <g id="桃子搜索-pc-03" transform="translate(-952.000000, -141.000000)">
            <g id="编组-45" transform="translate(0.000000, 134.000000)">
                <g id="编组-44" transform="translate(952.000000, 4.500000)">
                    <g id="编组-19">
                        <g id="编组-17">
                            <g id="编组-21" transform="translate(0.000000, 2.500000)">
                                <g id="编组-6">
                                    <rect id="矩形" fill="url(#linearGradient-1)" x="37" y="4" width="112" height="25" rx="2"></rect>
                                    <g id="编组-11" transform="translate(33.000000, 0.000000)">
                                        <polygon id="矩形备份-5" fill="url(#linearGradient-2)" points="8 -1.84741111e-13 41 -1.84741111e-13 34 29 18.8387001 29 0.5 29"></polygon>
                                        <g id="外卖" transform="translate(8.500000, 7.500000)" fill="#FFFFFF" fill-rule="nonzero">
                                            <path d="M0.512875597,5.27700905 C1.8906272,5.4021342 3.37837893,5.6647595 4.95275576,6.02638492 C11.8043887,7.60351176 12.2333892,6.49113546 12.3213893,6.05938496 C12.4272645,5.54513436 11.8923888,5.25088402 11.4015133,5.31275909 C10.1736368,5.46950927 7.77425905,5.50800932 7.59688384,4.24300785 C7.43875866,3.11825654 10.1090118,2.87900626 10.6796374,2.8322562 C10.1310118,2.47613079 9.60301117,2.00450524 9.59751117,1.43387958 L9.59751117,1.41325455 L9.59751111,1.4132569 C9.60149404,1.24585969 9.64533066,1.08182351 9.72538519,0.934756345 C9.97013547,0.463130796 10.3235109,0.291255596 10.7071363,0.288505593 L10.7277614,0.288505593 C11.4963872,0.294005599 12.3860133,0.967756383 12.7971388,1.27713174 C13.2673893,1.62913215 14.6052659,2.64938334 15.0892664,3.43863426 C16.9812686,3.9061348 19.2912713,4.72701076 21.590274,6.17076244 C22.5321501,6.7427631 21.590274,8.04763962 21.2767736,8.32126494 C20.9605233,8.59626526 19.2500213,9.28101606 17.7650195,8.78876548 C16.7653934,8.4573901 15.8977674,7.84826439 15.3381417,7.41926389 C15.3381417,7.41926389 15.7698922,8.23051483 16.6485182,8.86989058 C16.6485182,8.86989058 17.0857688,9.13389089 16.5797682,9.21364098 L16.5797681,9.21364099 C16.5351695,9.22062082 16.4914004,9.23213895 16.4491432,9.24801603 C11.7961378,10.1280171 7.11838232,14.5706472 6.35663143,15.3708982 C6.05138108,15.6885235 5.96613098,15.8507737 6.4116315,16.3100242 C6.95475713,16.8737749 6.72788186,17.2656504 6.38413146,17.5612757 L6.38413144,17.5612757 C6.15732492,17.7571041 5.92389692,17.9451311 5.68425562,18.1250264 C2.29350168,16.2577721 -9.91168633e-07,12.68002 -9.91168633e-07,8.57564027 C-9.91168633e-07,7.42613893 0.178749217,6.31788764 0.512874606,5.27701143 L0.512875597,5.27700905 Z M15.1580176,6.05525996 L15.1580177,6.05525997 C15.4829499,6.1567888 15.8288659,5.97676564 15.9321436,5.6523845 L15.9321436,5.65238451 C16.0313605,5.33014214 15.850563,4.98848217 15.5283207,4.88926507 C15.5268048,4.88879833 15.5252871,4.8883375 15.5237676,4.88788259 L15.5237676,4.8878826 C15.1984336,4.78646785 14.8523371,4.96719999 14.7496417,5.29213307 L14.7496417,5.29213303 C14.6511203,5.6145881 14.8326544,5.95585705 15.1551103,6.05437806 C15.1560788,6.05467397 15.157048,6.05496746 15.158018,6.05525854 L15.1580176,6.05525996 Z M9.10251059,10.2063898 C8.77938522,10.6560153 5.35288123,13.2767684 2.52312794,11.7037665 C2.52312794,11.7037665 3.27112881,13.6328938 4.72175549,13.1846433 C7.42500864,12.3500173 9.10251059,10.2063898 9.10251059,10.2063898 Z" id="形状"></path>
                                        </g>
                                    </g>
                                    <g id="编组-11备份-2">
                                        <path d="M8.57468054,-4.54747351e-13 L41,-4.54747351e-13 L41,-4.54747351e-13 L33.5,29 L2.54019778,29 C1.43562828,29 0.540197778,28.1045695 0.540197778,27 C0.540197778,26.841916 0.558940454,26.6843895 0.596033361,26.5307189 L6.63051612,1.53071893 C6.84727737,0.632708023 7.65087913,-4.54577651e-13 8.57468054,-4.54747351e-13 Z" id="矩形备份-5" fill="url(#linearGradient-3)"></path>
                                        <g id="饿了吗" transform="translate(12.000000, 7.000000)" fill="#FFFFFF" fill-rule="nonzero">
                                            <path d="M5.52925923,1.40404612 C8.58831122,-0.0374849309 11.5803147,0.264241983 14.3837539,2.17090514 C15.6411843,3.01708112 16.6380587,4.19679125 17.2626119,5.57776379 L17.2626119,5.57776379 L17.3055547,5.6493375 L17.3055547,5.6493375 L17.3374986,5.72645173 C17.4354486,6.02313583 17.2743431,6.34305161 16.977659,6.44100225 L16.977659,6.44100225 L14.4962726,7.86870957 C12.8439803,8.82444759 11.1947919,9.78639604 9.54374724,10.7446198 C8.70983799,11.2307155 7.93460006,11.0630959 7.51555113,10.3255708 C7.49068939,10.2895712 7.46780352,10.2522463 7.44699493,10.2137615 C7.12997972,9.62744883 7.348287,8.89515736 7.93459972,8.57814042 L7.93459972,8.57814042 L9.1974851,7.82183765 C10.0442713,7.32332611 10.8972654,6.83350509 11.7353621,6.33623462 C12.1921239,6.06804399 12.657268,5.808234 13.1182201,5.54423369 C13.6504117,5.23832849 13.6587924,5.07071064 13.1810773,4.65166172 C12.3259638,3.90441882 11.2660318,3.43139214 10.1387831,3.29394561 L10.1387831,3.29394561 L9.86341066,3.26470453 C7.67415742,3.07044276 5.81672557,3.82915324 4.4690667,5.61128731 C3.02885565,7.41565035 2.7873899,9.89929855 3.85306599,11.9472947 L3.85306599,11.9472947 L3.96059644,12.1643808 C5.00262765,14.1632312 7.10939725,15.3913943 9.37612058,15.2996856 L9.374,15.299 L9.65506164,15.3004288 C10.4423378,15.2820537 11.2174017,15.101168 11.9314838,14.7691517 L12.1963108,14.6375836 L12.3482764,14.5694511 C13.2393149,14.1926261 13.7635536,14.3932121 14.2915548,15.2745362 C14.8153651,16.1293936 14.8153651,16.1293936 13.977269,16.6909185 C10.6332479,18.8348726 6.26240999,18.445369 3.35020816,15.743869 L3.35020816,15.743869 L3.12559824,15.5196285 C1.2881411,13.6357533 0.312428787,11.3715874 0.530011222,8.71224838 C0.806592794,5.37661481 2.47020723,2.84557202 5.52925923,1.40404612 Z M16.6549772,9.600637 C16.8100258,9.52101787 16.9734545,9.4497799 17.0740261,9.62997042 C17.4420487,10.1553671 17.6869695,10.7569286 17.7905979,11.3899725 L17.7905979,11.3899725 L17.7897308,11.509505 C17.7684697,11.8255097 17.5976018,12.1156418 17.3254523,12.2867348 L17.3254523,12.2867348 L16.9885073,12.5120893 C16.7606695,12.6573594 16.5278649,12.79518 16.2987851,12.9404501 C16.0641187,13.0871174 15.9006896,13.0326415 15.7665941,12.7895928 C15.4537056,12.2308626 15.1310375,11.6721307 14.798593,11.1134005 C14.7713804,11.0814451 14.7503305,11.0447199 14.7365113,11.0050877 C14.674791,10.8280786 14.7682515,10.6345492 14.9452606,10.5728284 L14.9452606,10.5728284 L15.8032616,10.0914468 L15.8032616,10.0914468 Z" id="形状结合"></path>
                                        </g>
                                    </g>
                                </g>
                            </g>
                        </g>
                    </g>
                </g>
            </g>
        </g>
    </g>
</svg>