<?xml version="1.0" encoding="UTF-8"?>
<svg width="20px" height="20px" viewBox="0 0 20 20" version="1.1" xmlns="http://www.w3.org/2000/svg" xmlns:xlink="http://www.w3.org/1999/xlink">
    <title>形状备份 5</title>
    <g id="pc" stroke="none" stroke-width="1" fill="none" fill-rule="evenodd">
        <g id="桃子搜索-pc-03" transform="translate(-435.000000, -362.000000)" fill="#078FFF" fill-rule="nonzero">
            <g id="编组-47" transform="translate(427.000000, 355.000000)">
                <g id="编组-46" transform="translate(8.000000, 7.000000)">
                    <path d="M16.3158176,3 L3.68420253,3 C2.75410248,3 2,3.78992521 2,4.76470058 L2,14.0293753 C2,15.0038841 2.75412444,15.794095 3.68420253,15.794095 L16.3158176,15.794095 C17.2458756,15.794095 18,15.0038841 18,14.0293753 L18,4.76471976 C18,3.78992137 17.2458756,3 16.3158176,3 L16.3158176,3 Z M10.0003944,15.352929 C9.5351522,15.352929 9.15807991,14.957835 9.15807991,14.4706027 C9.15807991,13.9833262 9.5351522,13.5882764 10.0003944,13.5882764 C10.4654224,13.5882764 10.8424966,13.9833262 10.8424966,14.4706027 C10.8425179,14.957835 10.4654444,15.352929 10.0003944,15.352929 Z M16.7368751,13.1470796 L3.26332804,13.1470796 L3.26332804,4.32352879 L16.7368751,4.32352879 L16.7368751,13.1470796 L16.7368751,13.1470796 Z M12.9477968,16.676454 L7.05304681,16.676454 C6.70416275,16.676454 6.42146056,16.9728248 6.42146056,17.338249 C6.42146056,17.7035621 6.70416458,18 7.05304681,18 L12.9477785,18 C13.2964704,18 13.5789603,17.7035851 13.5789603,17.338249 C13.5789603,16.9728478 13.2964906,16.676454 12.9478005,16.676454 L12.9477968,16.676454 Z" id="形状"></path>
                </g>
            </g>
        </g>
    </g>
</svg>