<?xml version="1.0" encoding="UTF-8"?>
<svg width="14px" height="14px" viewBox="0 0 14 14" version="1.1" xmlns="http://www.w3.org/2000/svg" xmlns:xlink="http://www.w3.org/1999/xlink">
    <title>拼多多</title>
    <g id="pc" stroke="none" stroke-width="1" fill="none" fill-rule="evenodd">
        <g id="桃子搜索-pc-02" transform="translate(-82.000000, -702.000000)" fill-rule="nonzero">
            <g id="编组-47备份-4" transform="translate(82.000000, 702.000000)">
                <g id="京东" transform="translate(0.500000, 0.400000)">
                    <path d="M1.58400184,0 L11.0880129,0 C12.1440137,0 12.6720147,0.528001027 12.6720147,1.58400184 L12.6720147,11.0880129 C12.6720147,12.1440137 12.1440137,12.6720147 11.0880129,12.6720147 L1.58400184,12.6720147 C0.528001027,12.6720147 0,12.1440137 0,11.0880129 L0,1.58400184 C0,0.528001027 0.528001027,0 1.58400184,0 Z" id="路径" fill="#F40009"></path>
                    <g id="编组-49" transform="translate(1.500000, 2.100000)">
                        <path d="M2.30654439,7.28306304e-14 L1.18593888e-05,1.62895821 L2.30654439,3.32083047 L2.30654439,7.28306304e-14 Z M2.4887046,7.32747196e-14 L2.4887046,3.32083047 L4.86559888,1.67643134 L2.4887046,7.32747196e-14 Z M-4.4408921e-14,1.86576648 L-4.4408921e-14,5.16258169 L2.26707634,3.51458917 L-4.4408921e-14,1.86576648 L-4.4408921e-14,1.86576648 Z M2.30654439,3.68404797 L2.30654439,6.98888013 L1.18593888e-05,5.30113493 L2.30654439,3.68404797 Z M2.4887046,3.68404797 L2.4887046,6.98888013 L4.75135739,5.33646405 L2.4887046,3.68404797 Z M2.56764069,7.1315723 L4.90536341,8.8157241 L4.8932194,5.49130023 L2.56764069,7.1315723 Z M5.05550327,5.49130023 L5.05550327,8.8157241 L7.38494814,7.12742151 L5.05550327,5.49130023 L5.05550327,5.49130023 Z M5.19736528,5.34860807 L7.46856869,3.67273412 L7.48043994,6.98888013 L5.19736528,5.34860807 L5.19736528,5.34860807 Z M7.63002241,3.67273412 L7.63002241,6.98888013 L9.96058206,5.31907819 L7.63002241,3.67273412 L7.63002241,3.67273412 Z M7.68578526,3.50243329 L9.96058206,5.16258169 L9.96058206,1.85444077 L7.68578526,3.50244515 L7.68578526,3.50243329 Z M7.63002241,7.32747196e-14 L7.63002241,3.32083047 L9.96058206,1.63669053 L7.63002241,7.32747196e-14 L7.63002241,7.32747196e-14 Z M7.48043994,7.34967642e-14 L5.06737452,1.6841518 L7.48043994,3.32084233 L7.48043994,7.34967642e-14 Z" id="形状" fill="#FFFFFF"></path>
                        <path d="M3.4977607,1.07722386 C3.49360991,1.15919596 3.41743705,1.22406681 3.3241511,1.22406681 C3.23030776,1.22406681 3.15468044,1.15919596 3.15055337,1.07722386 C2.95458883,1.11034714 2.88227028,1.17272752 2.73075472,1.24973053 L2.73075472,1.24973053 C2.71518192,1.25777347 2.70907777,1.27691783 2.71712069,1.29249063 C2.71865352,1.2954585 2.72064528,1.29816576 2.72302243,1.30051245 L2.8455655,1.48267266 L2.90987896,1.41781366 L2.90987896,2.07111181 L2.90987896,2.0711128 C2.90977468,2.10773887 2.93938144,2.13751483 2.97600762,2.13761929 C2.97604331,2.13761929 2.976079,2.13761929 2.97611468,2.13761929 L3.66584488,2.13761929 C3.70531292,2.13761929 3.73759418,2.10505341 3.73759418,2.06558536 L3.73759418,1.41699539 L3.80190764,1.48212715 L3.91700301,1.33170266 C3.93632196,1.31237186 3.94321226,1.25607534 3.9183787,1.24394319 C3.77100208,1.16913416 3.67715873,1.09903331 3.49776176,1.07722386 L3.4977607,1.07722386 Z M1.2767818,2.10810123 C1.27954504,2.11279755 1.32535785,2.18786748 1.41284457,2.19144902 L1.41284456,2.19144902 C1.45973457,2.19200075 1.50473703,2.17300376 1.53704794,2.13901866 C1.54561042,2.14673912 1.60356725,2.19421226 1.68552748,2.1828984 L1.68552749,2.1828984 C1.73506748,2.17540243 1.77967812,2.14874004 1.80974273,2.10865862 C1.81608751,2.11279755 1.88425527,2.15557437 1.94304226,2.12632911 C2.00652557,2.09458153 2.01425789,2.00847051 2.00238664,1.95740398 C1.99521171,1.9278741 1.98305584,1.91793593 1.94856874,1.86852972 C1.94083642,1.85721586 1.90771314,1.80008919 1.84147846,1.68470919 L1.84147801,1.68470842 C1.80886054,1.62846218 1.77666135,1.57197437 1.74488329,1.51524961 L1.74488314,1.51525033 C1.75622838,1.45961284 1.76911234,1.4043003 1.7835202,1.34937662 C1.79897298,1.28865655 1.80835376,1.26161714 1.79537959,1.22793648 C1.79124066,1.21690725 1.78710173,1.21000508 1.75122708,1.15342394 C1.77716356,1.0998788 1.77578788,1.05240566 1.75399032,1.03749841 C1.74047062,1.0283904 1.72141258,1.03417778 1.71810381,1.03473518 C1.68691362,1.04412781 1.66483143,1.08303847 1.66483143,1.13244468 L1.66483144,1.13244468 C1.61581339,1.13480603 1.57079135,1.16018367 1.5433913,1.20089707 L1.54339131,1.20089708 C1.51249926,1.16105143 1.46615929,1.1361747 1.41587916,1.13244469 C1.41781224,1.08634724 1.39877792,1.0490969 1.36841788,1.03777119 C1.3642671,1.0363955 1.34660847,1.02922057 1.33253137,1.03694103 C1.30934627,1.04964244 1.3030015,1.0976611 1.32479905,1.15645995 L1.32479905,1.15645995 C1.30846915,1.18378161 1.29742189,1.21393008 1.29223317,1.24533421 C1.282295,1.30329105 1.29499641,1.35351556 1.30437718,1.38746899 C1.32121752,1.45178245 1.338888,1.46502939 1.33390706,1.50339451 L1.33390706,1.50339451 C1.32963128,1.53254548 1.31608359,1.55954516 1.29526917,1.58039752 C1.22185956,1.71232136 1.14899547,1.84534813 1.075574,1.97728383 C1.06371461,2.03247742 1.08771801,2.0887858 1.13491838,2.11639446 L1.13491837,2.11639445 C1.17939155,2.14314627 1.23572579,2.13985434 1.27678038,2.10810475 L1.2767818,2.10810123 Z M0.610521335,3.16629078 C0.619629346,3.04042708 0.715678536,2.94079636 0.829931888,2.92892511 C0.961310197,2.91484802 1.09048266,3.01917506 1.10234205,3.16629078 L1.10234206,3.16629078 C1.15772458,3.17147358 1.21006682,3.19397237 1.25193639,3.23059239 C1.27457596,3.25184441 1.30631169,3.28910661 1.33805927,3.42932016 C1.36509868,3.54799707 1.37117069,3.64735503 1.38110887,3.80633013 L1.38110887,3.80633008 C1.3622407,3.88716249 1.29486952,3.94758845 1.21246836,3.95758473 L0.507570005,3.95758473 L0.507569985,3.95758473 C0.417523069,3.94462763 0.345899239,3.87545063 0.329821466,3.78590821 C0.328161151,3.75831142 0.318234843,3.47209693 0.401037095,3.32029675 C0.413726641,3.29766904 0.436081589,3.25516499 0.484112114,3.21927848 L0.484112121,3.21927847 C0.521458404,3.19185565 0.564783716,3.17369478 0.610521347,3.16629072 L0.610521335,3.16629078 Z" id="形状" fill="#F40009"></path>
                        <path d="M0.696632358,3.16351568 L1.02258766,3.16351568 C1.02258766,3.16351568 0.990294543,3.02138091 0.859746391,3.02138091 C0.729198239,3.02138091 0.696632358,3.16351568 0.696632358,3.16351568 L0.696632358,3.16351568 Z" id="路径" fill="#FFFFFF"></path>
                        <path d="M1.91682115,5.78166551 L1.99383602,5.78166551 C1.99383602,5.78166551 1.98472801,5.4325251 1.99383602,5.37813795 C2.01425789,5.25946104 2.12520247,5.05742449 2.11251293,4.98401488 C2.08547352,4.82724562 1.93725488,4.72899058 1.91683301,4.73809859 C1.89639928,4.7472066 1.721414,4.94288652 1.66786886,5.08778453 C1.61405096,5.2326944 1.51662608,5.43471909 1.50200345,5.43748233 C1.4870962,5.44024556 1.33032694,5.46149759 1.18790754,5.5147581 C1.05652923,5.56389155 0.950553731,5.61550361 0.974841759,5.66297675 C0.998572396,5.71017711 1.13767117,5.78165365 1.33335108,5.78165365 C1.56740798,5.78165365 1.64717423,5.7667464 1.68884812,5.59148835 C1.72997648,5.4198237 1.73411541,5.3386699 1.81028826,5.25946104 C1.81581474,5.25394643 1.85914894,5.20922467 1.88452804,5.22082315 C1.88452804,5.22082315 1.89005451,5.22358639 1.91405791,5.25946104 L1.91682115,5.78165365 L1.91682115,5.78166551 Z M2.80830327,5.73997976 L3.84220478,5.73997976 L3.84220478,5.73997976 C3.85519817,5.73692574 3.86729688,5.73087433 3.8775339,5.72230927 L3.8775339,5.72230927 C3.89272447,5.70934767 3.9031235,5.69166105 3.90706378,5.67208476 L3.90706378,4.98125164 L3.90706378,4.98125164 C3.90048269,4.96531476 3.89038841,4.95106926 3.8775339,4.93957775 L3.8775339,4.93957775 C3.8582701,4.92335031 3.83423479,4.91385616 3.80908151,4.91253834 L3.64900348,4.91253834 C3.63823515,4.88934138 3.61920083,4.87719736 3.5747637,4.8151016 C3.55848076,4.79247389 3.53253242,4.78694742 3.51541932,4.77977249 L3.1339858,4.77977249 C3.12046609,4.78694742 3.09865668,4.7919165 3.08954867,4.80958699 C3.05698279,4.87168275 3.02745291,4.88796569 3.01807213,4.91335664 C2.94824405,4.91611988 2.87785858,4.91888312 2.80775773,4.92246465 L2.80775773,4.92246465 C2.77353402,4.92955022 2.74804381,4.9582972 2.74510457,4.99312289 L2.74510457,5.67759937 L2.74510457,5.67759936 C2.75202141,5.70914296 2.77692794,5.73361671 2.80858788,5.73997976 L2.80830327,5.73997976 Z M4.10275556,6.41624758 L4.04064794,6.51590562 L4.16761455,6.51590562 L4.1027437,6.41590562 L4.10275556,6.41624758 Z M3.45690508,7.10976288 C3.46326173,7.06450745 3.49995468,6.81996686 3.72076464,6.65905867 L3.72076464,6.65905867 C3.89908241,6.5301993 4.12987323,6.49863435 4.3362432,6.57488073 C4.44636948,6.61876047 4.53331066,6.69632087 4.54738776,6.70901042 C4.59872705,6.75593802 4.64260679,6.79540607 4.67517267,6.8630283 C4.75190292,7.0233791 4.72651197,7.10894459 4.75190292,7.10894459 L4.75190292,7.10894459 C4.65255777,7.04989278 4.52887407,7.04989278 4.42952916,7.10894458 L4.42952916,7.10894459 C4.35254904,7.05740617 4.25606307,7.04435978 4.16816009,7.07360361 L4.16816009,7.57730743 L4.1681601,7.57730741 C4.15812709,7.60784119 4.14154905,7.63581654 4.11958404,7.65927951 L4.11958405,7.6592795 C4.06104942,7.71960027 3.97412627,7.74292045 3.89325947,7.71999957 C3.78010904,7.68550061 3.73567191,7.56736924 3.7370476,7.51521165 L3.7370476,7.51521172 C3.73774451,7.49996019 3.74159691,7.48501902 3.74836141,7.47133199 C3.75112464,7.4671812 3.77458251,7.42468901 3.81046903,7.4260647 C3.84303491,7.42772501 3.86483246,7.46359966 3.87256478,7.48540908 C3.88304848,7.51438157 3.87035894,7.52513803 3.8816728,7.5447416 C3.90017344,7.57869503 3.96089351,7.59443244 3.99125355,7.57455611 C4.00670633,7.56406055 4.03762376,7.51438157 4.02629804,7.53011898 L4.04120529,7.07002213 L4.04120529,7.07002213 C3.95299575,7.04355861 3.85759586,7.05750596 3.78065452,7.10811448 L3.78065455,7.1081145 C3.73124561,7.07923618 3.67505452,7.06399532 3.61782514,7.06395014 L3.61782513,7.06395014 C3.56119584,7.06550957 3.50586444,7.081262 3.45690508,7.10976296 L3.45690508,7.10976288 Z M5.45846159,6.91601605 L5.45846159,7.50747935 L5.45846158,7.50747878 C5.45875942,7.56192737 5.50282483,7.6059933 5.55727342,7.6062918 L6.13742286,7.6062918 L6.13742285,7.6062918 C6.1834546,7.6062918 6.22077064,7.56897576 6.22077064,7.52294402 C6.22077064,7.52294402 6.22077064,7.52294402 6.22077064,7.52294402 L6.22077064,6.91823378 L6.22077064,6.91822192 C6.22077064,6.88316106 6.19234819,6.85473862 6.15728733,6.85473862 C6.15728733,6.85473862 6.15728733,6.85473862 6.15728733,6.85473862 L5.5191692,6.85473862 C5.48604592,6.85473862 5.45844913,6.88234727 5.45844913,6.91601608 L5.45846159,6.91601605 Z M5.5183515,6.78581171 L6.17826719,6.78581171 C6.19759799,6.78581171 6.2141537,6.76760318 6.21635955,6.74382028 C6.21856539,6.71631581 6.21001477,6.68584047 6.15923287,6.68584047 L5.51863612,6.68584047 L5.51863613,6.68584047 C5.49806198,6.68521998 5.48100984,6.70718008 5.48054911,6.73488963 C5.48054697,6.73501808 5.4805452,6.73514654 5.4805438,6.735275 C5.47998641,6.76277947 5.4976569,6.78582764 5.51863616,6.78582764 L5.5183515,6.78581171 Z M5.548166,6.68555255 C5.548166,6.68555255 5.63371963,6.51415767 5.79711829,6.51415767 C6.10485757,6.5133305 6.13798085,6.68583717 6.13798085,6.68583717 L5.548166,6.68583717 L5.548166,6.68555255 Z" id="形状" fill="#F40009"></path>
                        <path d="M5.87466684,6.57211878 L5.8233394,6.57211878 L5.8233394,6.57211878 C5.80550513,6.57227533 5.79091963,6.55794576 5.79076051,6.54011137 C5.79076051,6.53992477 5.79076051,6.53973816 5.79076051,6.53955155 L5.79076051,6.4746807 C5.79076051,6.45702207 5.80511154,6.44212659 5.82333942,6.44212659 L5.87495148,6.44212659 L5.87495148,6.44212659 C5.89274709,6.44208636 5.90720605,6.45647986 5.90724646,6.47427558 C5.90724646,6.47441458 5.90724646,6.47455358 5.90724462,6.47469258 L5.90724462,6.53955158 L5.90724462,6.53955169 C5.9073952,6.55738607 5.89305973,6.57196577 5.87522534,6.57211626 C5.87513404,6.57211704 5.87504273,6.57211742 5.87495142,6.57211742 L5.87466684,6.57211878 Z M6.49015726,4.90977511 C6.52217761,4.88769292 6.59696291,4.84407409 6.70074442,4.83855947 C6.83046242,4.83138454 6.9242939,4.88852308 6.95548409,4.90977511 L6.90525958,4.72953611 L6.90525958,4.72953612 C6.89790226,4.70286352 6.87358363,4.68443024 6.8459152,4.68455179 L6.59117553,4.68455179 L6.59117553,4.68455179 C6.56660797,4.68436115 6.54502887,4.70083094 6.53873331,4.72457889 L6.49043002,4.90977511 L6.49015726,4.90977511 Z M6.9546658,5.7018874 C6.92291821,5.72369682 6.84812105,5.76730379 6.74435139,5.77310303 C6.6146334,5.77999334 6.52079006,5.72286666 6.48959986,5.70161463 L6.53983623,5.88184177 L6.53983624,5.88184178 C6.54705872,5.90852504 6.57125247,5.92706886 6.59889599,5.92710906 L6.85363567,5.92710906 C6.87848108,5.92710906 6.90056327,5.90999596 6.90608974,5.88681086 L6.9546658,5.70188741 L6.9546658,5.7018874 Z" id="形状" fill="#F40009"></path>
                        <path d="M6.34773786,5.29975925 L6.34773785,5.29975958 C6.34205525,5.50516064 6.50395802,5.6762762 6.70935907,5.68195922 C6.91476013,5.68764181 7.08587569,5.52573905 7.09155871,5.32033799 C7.09174846,5.31347959 7.09174845,5.30661727 7.09155869,5.29975887 L7.0915587,5.29975855 C7.09724131,5.0943575 6.93533853,4.92324193 6.72993747,4.91755891 C6.52453642,4.91187631 6.35342086,5.07377908 6.34773784,5.27918014 C6.34754809,5.28603854 6.3475481,5.29290086 6.34773785,5.29975926 L6.34773786,5.29975925 Z M8.12145506,4.83000885 L8.08121956,4.83000885 L8.08121956,4.83000885 C8.06474906,4.82985923 8.05148137,4.81717581 8.05148137,4.8015819 L8.05148137,4.66247127 L8.05148137,4.66247126 C8.05155,4.6469491 8.0648241,4.63438206 8.08121956,4.63431707 L8.12145506,4.63431707 L8.12145506,4.63431707 C8.13790677,4.63436122 8.15127618,4.64689704 8.15148137,4.66247126 L8.15148137,4.80158189 L8.15148137,4.80158189 C8.15148137,4.81728171 8.13803818,4.83000885 8.12145506,4.83000885 C8.12145506,4.83000885 8.12145506,4.83000885 8.12145506,4.83000885 L8.12145506,4.83000885 Z M8.44726475,4.83000885 L8.40642102,4.83000885 L8.40642102,4.83000885 C8.38965362,4.83000885 8.37606098,4.81641622 8.37606098,4.79964882 L8.37606098,4.63128108 L8.37606098,4.63128107 C8.37606098,4.61451368 8.38965362,4.60092104 8.40642102,4.60092104 L8.44726475,4.60092104 L8.44726475,4.60092104 C8.46403215,4.60092104 8.47762478,4.61451368 8.47762478,4.63128107 L8.47762478,4.79964881 L8.47762478,4.79964881 C8.47762478,4.81641621 8.46403215,4.83000885 8.44726475,4.83000885 L8.44726475,4.83000885 Z M8.77984945,4.83000886 L8.73679987,4.83000886 L8.73679987,4.83000886 C8.71927276,4.83001541 8.70505228,4.8158121 8.70505228,4.79828499 C8.70505228,4.79827708 8.70505228,4.79826917 8.70505228,4.79826127 L8.70505228,4.6652345 L8.70505228,4.6652345 C8.70505228,4.6477074 8.7192609,4.63349878 8.73678801,4.63349878 C8.73679197,4.63349878 8.73679592,4.63349878 8.73679987,4.63349878 L8.77984945,4.63349878 L8.77984945,4.63349878 C8.79737656,4.63349878 8.81158518,4.6477074 8.81158518,4.66523451 C8.81158518,4.66523451 8.81158518,4.66523451 8.81158518,4.66523451 L8.81158518,4.79826127 L8.81158518,4.79826124 C8.81115466,4.81560892 8.79719701,4.8295718 8.77984945,4.83000886 L8.77984945,4.83000886 Z M8.80579779,5.8437498 L8.05699598,5.8437498 L8.05699598,5.8437498 C8.00455886,5.84389437 7.96193254,5.80150318 7.96178726,5.74906595 C7.96178726,5.74879649 7.96178726,5.74852703 7.96178726,5.74825758 L7.96178726,4.96552606 L7.96178726,4.96552606 C7.96178726,4.94449284 7.97883611,4.9274331 7.99986932,4.9274331 L8.86928112,4.9274331 L8.86928112,4.9274331 C8.88837331,4.92732233 8.90394089,4.94270931 8.90405279,4.96180162 C8.90405279,4.96184927 8.90405279,4.96189692 8.90405279,4.96194457 L8.90405279,5.74577901 L8.90405279,5.74576753 C8.90405279,5.79988169 8.86018467,5.8437498 8.80607052,5.8437498 C8.80598342,5.8437498 8.80589633,5.8437498 8.80580923,5.8437498 L8.80579779,5.8437498 Z" id="形状" fill="#F40009"></path>
                        <path d="M8.88638234,5.14989215 C8.88638234,5.14989215 9.05917364,5.16921109 9.11711861,5.26580581 C9.18198947,5.37399902 9.14886619,5.50040824 9.07572934,5.55892247 C8.99844171,5.62130285 8.90405283,5.62130285 8.90405283,5.62130285 L8.90405283,5.53215583 C8.90405283,5.53215583 9.06688224,5.48495546 9.05225961,5.37179317 C9.03736422,5.25863088 8.88638234,5.24124502 8.88638234,5.24124502 L8.88638234,5.15016491 L8.88638234,5.14989215 Z M8.44754938,3.46158956 L8.44754937,3.46158957 C8.43141906,3.49072939 8.43194254,3.52623581 8.44892506,3.55488738 C8.48839311,3.62250961 8.57643721,3.7193771 8.67800102,3.78672657 C8.81379102,3.87560083 8.92364454,3.85793034 8.92364454,3.85793034 C8.92364454,3.85793034 9.09255781,4.01193636 9.14333971,4.02380761 C9.19412162,4.03595162 9.20821057,4.00890036 9.20821057,3.96749923 L9.20821057,3.80134919 C9.20821057,3.80134919 9.32688747,3.75691207 9.38898323,3.69454354 C9.45107899,3.63243592 9.48640811,3.59077389 9.52228276,3.60290604 C9.55816928,3.61476543 9.64648614,3.7364902 9.71493854,3.74836145 C9.78339093,3.76022083 9.83361544,3.71854694 9.80961204,3.64734317 C9.78559677,3.57585478 9.74446841,3.50878993 9.74446841,3.50878993 C9.74446841,3.50878993 9.81595681,3.41274074 9.81595681,3.34484574 C9.81595681,3.27640521 9.74750442,3.2234056 9.68540866,3.25597148 C9.6233129,3.28854922 9.55486051,3.39784535 9.51373215,3.39784535 C9.47288841,3.39784535 9.38677739,3.28358014 9.30341774,3.24604517 C9.22006996,3.20849835 9.2026841,3.19635433 9.2026841,3.19635433 C9.2026841,3.19635433 9.22310596,3.01861767 9.2026841,2.99183917 C9.1819776,2.96479977 9.10525922,2.99460241 9.05722869,3.03048892 C9.00919817,3.06663634 8.92668054,3.15192906 8.92668054,3.15192906 C8.92668054,3.15192906 8.77847376,3.14916583 8.60679725,3.26784273 C8.53145455,3.32028495 8.47707925,3.40778352 8.44726475,3.46160142 L8.44754938,3.46158956 Z M7.93225893,1.69739874 L7.93225893,1.69739872 C7.92289035,1.97649757 8.14154987,2.21034574 8.42064754,2.21971466 C8.6997464,2.22908325 8.93359457,2.01042372 8.94296349,1.73132605 C8.94334299,1.72002038 8.94334299,1.7087051 8.94296349,1.69739943 L8.94296349,1.69739945 C8.95233207,1.4183006 8.73367255,1.18445243 8.45457488,1.17508351 C8.17547602,1.16571492 7.94162785,1.38437444 7.93225894,1.66347211 C7.93187943,1.67477779 7.93187943,1.68609307 7.93225893,1.69739874 L7.93225893,1.69739874 Z" id="形状" fill="#F40009"></path>
                        <path d="M8.05369907,0.913279672 C8.05369907,0.913279672 8.18065383,0.884307185 8.27310963,0.922387683 C8.39454977,0.972624054 8.40642102,1.14236749 8.40642102,1.14236749 C8.40642102,1.14236749 8.29436165,1.20722648 8.17568475,1.11835222 C8.05700784,1.0292052 8.05369907,0.913279672 8.05369907,0.913279672 Z M8.71499045,0.973999743 C8.71499045,0.973999743 8.61894126,0.952202186 8.54911318,0.981186532 C8.45720292,1.01926703 8.44809491,1.14705194 8.44809491,1.14705194 C8.44809491,1.14705194 8.5336604,1.19674278 8.62308019,1.12939331 C8.71278461,1.06232847 8.71499045,0.973999743 8.71499045,0.973999743 L8.71499045,0.973999743 Z M6.47055369,2.1390068 L6.98943752,2.1390068 C6.99357645,2.1390068 6.99550953,2.13348033 6.9913706,2.13127448 L6.99137061,2.13127448 C6.94910482,2.10727013 6.9049854,2.08668769 6.85943491,2.06972426 C6.77608712,2.04019438 6.75290202,2.01977251 6.75290202,2.01977251 L6.75290202,1.84312691 C6.75290202,1.84312691 6.85943491,1.75343436 6.93065054,1.6982289 C7.00186617,1.64302345 7.11694968,1.49205343 7.11694968,1.3648259 C7.11694968,1.23785929 7.06974931,1.03417428 7.06974931,1.03417428 L6.36264511,1.03417428 C6.36264511,1.03417428 6.31240874,1.31679538 6.33862985,1.43547228 C6.38278235,1.58672693 6.51636651,1.69602305 6.58427337,1.75840344 C6.65188375,1.8204992 6.68500702,1.84726584 6.68500702,1.84726584 L6.68500702,2.02805036 L6.46779045,2.1263054 C6.46144568,2.12906864 6.46337876,2.13899495 6.47055369,2.13899495 L6.47055369,2.1390068 Z" id="形状" fill="#F40009"></path>
                        <polygon id="路径" fill="#FFFFFF" points="4.0878483 2.81078188 4.31858457 2.31840378 4.496594 2.79863787 4.68621377 2.82292589 4.68621377 2.99183917 4.97629442 2.93250665 4.76598001 2.33358379 5.32847083 2.5709376 5.19736528 2.970599 5.47116299 2.90849138 5.71404327 2.31840378 6.11423835 2.63028198 5.71955789 2.93525802 6.11423835 2.93250665 6.21139046 3.23748269 5.95967493 3.23748269 5.87052791 3.60566927 6.19373183 3.67273412 6.29750148 3.96391769 5.9122018 4.00835482 5.8233394 4.62797231 5.613025 4.76486523 5.47972547 3.98213371 5.22579224 3.96391769 5.06737452 4.6315657 4.84574626 4.76486523 4.81979792 4.00559158 4.62990539 3.98489695 4.55566561 3.7530459 4.46955459 3.86620819 4.35087769 4.77922695 3.88029714 4.44415178 4.18250995 4.35859815 4.12677082 3.91920779 3.96088169 4.05913672 3.81818952 3.58440539 4.14718083 3.5314295 4.10854294 3.19939033 4.01084529 3.17813831 3.85351864 2.89083275"></polygon>
                        <path d="M4.58548012,3.06856941 L4.49356985,3.19000956 L4.44664225,3.5314295 L4.73092366,3.51458917 L4.6448245,3.70309415 L4.92909405,3.60207588 L4.86561074,3.30620785 L4.67434252,3.25238994 L4.58546826,3.06884218 L4.58548012,3.06856941 Z M5.29894095,3.30261445 L5.53905799,3.2496267 L5.57216941,3.58718049 L5.24594134,3.6501064 L5.29892909,3.30234169 L5.29894095,3.30261445 Z" id="形状" fill="#F40009"></path>
                    </g>
                </g>
            </g>
        </g>
    </g>
</svg>