<?xml version="1.0" encoding="UTF-8"?>
<svg width="40px" height="41px" viewBox="0 0 40 41" version="1.1" xmlns="http://www.w3.org/2000/svg" xmlns:xlink="http://www.w3.org/1999/xlink">
    <title>QQ</title>
    <g id="pc" stroke="none" stroke-width="1" fill="none" fill-rule="evenodd">
        <g id="桃子搜索-pc-05" transform="translate(-749.000000, -700.000000)" fill="#249BE5" fill-rule="nonzero">
            <g id="编组-57" transform="translate(519.000000, 230.000000)">
                <g id="编组-56" transform="translate(133.000000, 470.000000)">
                    <g id="QQ" transform="translate(97.000000, 0.950000)">
                        <path d="M19.9500243,0.35625152 C9.12846524,0.35625152 0.35625152,9.12846524 0.35625152,19.9500243 C0.35625152,30.7715834 9.12846524,39.5437971 19.9500243,39.5437971 C30.7715834,39.5437971 39.5437971,30.7715834 39.5437971,19.9500243 C39.5437971,9.12846524 30.7715834,0.35625152 19.9500243,0.35625152 Z M31.0197712,25.9529848 C30.1881257,26.6663451 29.1082884,23.605361 28.9529915,24.0763382 C28.5749043,25.221484 28.3978346,25.9870943 27.2831652,27.2338379 C27.2236581,27.3006021 28.5712762,27.7875416 28.9529915,28.8274648 C29.3187419,29.8231183 30.0299224,31.4015069 25.3753155,31.8971558 C22.6445232,32.1874339 20.6706465,30.4421386 20.4739741,30.458826 C20.1089494,30.4907565 20.2715051,30.458826 19.8796296,30.458826 C19.5588722,30.458826 19.5378273,30.4820482 19.2359374,30.458826 C19.153208,30.4522947 18.245362,31.8971558 14.1858058,31.8971558 C11.0391928,31.8971558 10.2242347,29.9167316 10.8570401,28.8274648 C11.4898455,27.738198 12.5457335,27.4210687 12.3969637,27.2483536 C11.6640097,26.3992901 11.1589271,25.4914453 10.8570401,24.6706826 C10.7822936,24.4660367 10.7198837,24.2671962 10.6705364,24.0763382 C10.5558765,23.6380173 9.67996096,26.6482005 8.73945987,25.9529848 C7.79895877,25.2577692 7.88313852,23.4877984 8.49199786,21.7940433 C9.10593608,20.0864827 10.6531175,18.4420549 10.6705356,18.0792109 C10.7322196,16.7286938 10.5370077,16.5044512 10.6705356,16.1495876 C10.9673449,15.3549499 11.3287394,15.6597433 11.3287394,15.2475474 C11.3287394,10.0530342 15.1887126,5.84253648 19.9499994,5.84253648 C24.7112862,5.84253648 28.5712595,10.0537281 28.5712595,15.2475474 C28.5712595,15.4463879 29.088682,15.2475474 29.3361432,16.1495876 C29.3869417,16.3360913 29.4217753,17.0552567 29.3615426,18.0792109 C29.3332404,18.5712309 30.6728721,19.1699309 31.365912,21.7940433 C32.0596786,24.4181556 31.365912,25.6561922 31.0197554,25.9529848 L31.0197712,25.9529848 Z" id="形状"></path>
                    </g>
                </g>
            </g>
        </g>
    </g>
</svg>