<?xml version="1.0" encoding="UTF-8"?>
<svg width="33px" height="33px" viewBox="0 0 33 33" version="1.1" xmlns="http://www.w3.org/2000/svg" xmlns:xlink="http://www.w3.org/1999/xlink">
    <title>qq</title>
    <g id="呆萌价" stroke="none" stroke-width="1" fill="none" fill-rule="evenodd">
        <g id="pc" transform="translate(-1757.000000, -1009.000000)" fill-rule="nonzero">
            <g id="编组-3" transform="translate(1743.000000, 934.000000)">
                <g id="编组备份" transform="translate(0.000000, 61.500000)">
                    <g id="qq-2" transform="translate(14.000000, 13.500000)">
                        <g id="qq" transform="translate(5.000000, 3.000000)">
                            <path d="M13.8036251,23.8875405 C12.7685067,23.8875405 11.8610056,23.9158999 11.1094813,23.9820718 C10.3626836,23.9111733 9.4551825,23.8875405 8.4200641,23.8875405 C5.44705283,23.8875405 2.80017475,25.0124637 2.80017475,25.8443396 C2.80017475,26.6431296 4.99802887,26.5533248 7.96158701,26.5202389 C9.15268214,26.5060592 10.2539725,26.3831684 11.1472938,26.1893791 C12.0264355,26.3737152 13.0946399,26.4918794 14.252649,26.5013326 C17.2162072,26.529692 19.4140613,26.6194968 19.4140613,25.8301599 C19.4140613,25.0077371 16.7719098,23.8875405 13.8036251,23.8875405 L13.8036251,23.8875405 Z" id="路径" fill="#F9AE07"></path>
                            <path d="M21.1959774,15.7058513 C20.6382424,14.2075292 20.0332417,12.7233869 19.3762487,11.2676039 C19.4093347,10.9083848 19.4235144,10.5491656 19.4235144,10.194673 C19.4235144,4.60786961 16.5639408,0.075090896 11.1283876,0.075090896 C5.69283437,0.075090896 2.82853416,4.60314304 2.82853416,10.1899464 C2.82853416,10.5302593 2.84271386,10.8658456 2.87107327,11.1967054 C2.44568215,12.1467456 1.74142352,13.7774115 1.02298518,15.7153044 C-0.120844272,18.815933 -0.17283652,21.6235144 0.224195192,21.8314834 C0.507789272,21.978007 1.54290766,20.8956229 2.52603381,19.1373396 C3.17830019,23.2730866 5.92916277,26.3689887 11.123661,26.3689887 C16.3039795,26.3689887 19.0548421,23.2919929 19.7118351,19.1704256 C20.6902346,20.8908964 21.7111733,21.9496476 21.9900408,21.803124 C22.3965257,21.5998816 22.3445334,18.8017533 21.1959774,15.7058513 L21.1959774,15.7058513 Z" id="路径" fill="#000000"></path>
                            <path d="M8.90217404,3.38841506 C8.09393091,3.40259477 7.4605708,4.35263494 7.48420364,5.5106441 C7.50783648,6.66865326 8.17900914,7.59506058 8.98725226,7.57615431 C9.79549539,7.56197461 10.4288555,6.61193444 10.4052227,5.45392528 C10.3815898,4.29591612 9.71041717,3.36950879 8.90217404,3.38841506 Z M13.3640542,3.40732134 C12.546358,3.39314163 11.8704587,4.31009582 11.8468259,5.46337842 C11.8231931,6.61666101 12.4660063,7.56197461 13.2837026,7.57615431 C14.1013988,7.59033402 14.7772981,6.67337982 14.8009309,5.52009723 C14.8198372,4.37154121 14.1770239,3.42622761 13.3640542,3.40732134 Z M16.4268703,12.6855743 C14.8481966,12.9597153 13.0190148,13.115692 11.0716688,13.115692 C9.16213528,13.115692 7.36603944,12.9644418 5.806272,12.699754 C4.7286145,14.0326462 4.64353627,15.9941719 4.64353627,18.1825729 C4.64353627,22.2001557 6.91701548,25.4567611 11.1189344,25.4567611 C15.32558,25.4567611 17.5943326,22.2001557 17.5943326,18.1825729 C17.6037857,15.9894454 17.5187075,14.0231931 16.4268703,12.6855743 L16.4268703,12.6855743 Z" id="形状" fill="#FFFFFF"></path>
                            <path d="M11.123661,8.2567801 C8.29717334,8.2567801 6.00951442,8.82396826 6.00951442,9.27771879 C6.00951442,9.73146932 9.00143197,10.9840098 11.123661,10.9840098 C13.24589,10.9840098 16.2378076,9.70310991 16.2378076,9.27771879 C16.2378076,8.85705424 13.9501487,8.2567801 11.123661,8.2567801 Z" id="路径" fill="#F9AE07"></path>
                            <path d="M19.3762487,11.2676039 L19.3762487,11.2345179 C17.3012854,11.9198703 14.3708132,12.349988 11.123661,12.349988 C7.86705565,12.349988 4.93185692,11.9198703 2.85689357,11.2297914 C2.41732274,12.2129175 1.99665819,13.2102234 1.59962648,14.2169824 C2.88052641,14.6423735 4.31267651,14.9779598 5.85826425,15.2190148 L5.85826425,19.0191754 C5.85826425,19.0191754 6.95482802,19.2224179 7.98521985,19.264957 C8.71783789,19.2933164 9.49299504,19.1704256 9.49299504,19.1704256 L9.49299504,15.5687808 C10.0270972,15.5924136 10.5706525,15.6065933 11.123661,15.6065933 C14.6922198,15.6065933 17.9866377,15.0913974 20.6240627,14.2217089 C20.2317575,13.2291296 19.811093,12.2412769 19.3762487,11.2676039 L19.3762487,11.2676039 Z" id="路径" fill="#E91F1F"></path>
                            <path d="M9.37955741,4.84892458 C9.02506481,4.84892458 8.73674416,5.22232345 8.73674416,5.68080054 C8.73674416,6.13927764 9.02506481,6.51267651 9.37955741,6.51267651 C9.73405001,6.51267651 10.0223707,6.13927764 10.0223707,5.68080054 C10.0270972,5.22232345 9.73877658,4.84892458 9.37955741,4.84892458 Z M14.1155785,5.37830019 C14.1155785,5.37830019 13.8556173,5.07107327 13.2080775,5.15142493 C12.5652642,5.23177658 12.3147561,5.60517546 12.2674905,5.642988 C12.2674905,5.642988 12.1115137,5.85568356 12.2202248,5.9833009 C12.3289358,6.11091823 12.5227251,5.90767581 12.5227251,5.90767581 C12.5227251,5.90767581 12.8204989,5.5390035 13.2033509,5.52955037 C13.5862029,5.51537066 13.8083516,5.68080054 13.8083516,5.68080054 C13.8083516,5.68080054 13.9974143,5.81787102 14.110852,5.68080054 C14.2290162,5.54373007 14.1155785,5.37830019 14.1155785,5.37830019 L14.1155785,5.37830019 Z" id="形状" fill="#000000"></path>
                        </g>
                    </g>
                </g>
            </g>
        </g>
    </g>
</svg>