<?xml version="1.0" encoding="UTF-8"?>
<svg width="11px" height="13px" viewBox="0 0 11 13" version="1.1" xmlns="http://www.w3.org/2000/svg" xmlns:xlink="http://www.w3.org/1999/xlink">
    <title>路径</title>
    <g id="pc" stroke="none" stroke-width="1" fill="none" fill-rule="evenodd">
        <g id="10" transform="translate(-838.000000, -99.000000)">
            <rect fill="#FFFFFF" x="0" y="0" width="1440" height="2003"></rect>
            <g id="编组-8" transform="translate(349.000000, 76.000000)" fill-rule="nonzero">
                <g id="编组-7" transform="translate(0.000000, 19.000000)">
                    <g id="编组-31" transform="translate(24.000000, 0.000000)">
                        <g id="编组-26备份-2" transform="translate(464.000000, 0.000000)">
                            <g id="qq" transform="translate(0.000000, 4.000000)">
                                <rect id="矩形" fill="#000000" opacity="0" x="0" y="0" width="12.8" height="12.8"></rect>
                                <path d="M10.8685714,7.84571429 C10.64,7.11142858 10.3771429,6.49428571 9.97285714,5.48428571 C10.0357143,2.83142857 8.93285714,0.685714287 6.39285714,0.685714287 C3.82428571,0.685714287 2.74571429,2.87428571 2.81428571,5.48428571 C2.40857143,6.49571429 2.14714285,7.10857143 1.91857143,7.84571429 C1.43285714,9.41 1.59,10.0571429 1.71,10.0714286 C1.96714286,10.1028572 2.71142858,8.89428571 2.71142858,8.89428571 C2.71142858,9.59428571 3.07142858,10.5071429 3.85142858,11.1657143 C3.47428571,11.2814286 2.62714286,11.5928572 2.82857143,11.9342857 C2.99142856,12.21 5.63142856,12.11 6.39285714,12.0242857 C7.15428571,12.11 9.79428571,12.21 9.95714286,11.9342857 C10.1585714,11.5942857 9.31,11.2814286 8.93428571,11.1657143 C9.71428571,10.5057143 10.0742857,9.59285715 10.0742857,8.89428571 C10.0742857,8.89428571 10.8185714,10.1028571 11.0757143,10.0714286 C11.1971429,10.0557143 11.3542857,9.40857144 10.8685714,7.84571429 Z" id="路径" fill="#C0C0C0"></path>
                            </g>
                        </g>
                    </g>
                </g>
            </g>
        </g>
    </g>
</svg>