<?xml version="1.0" encoding="UTF-8"?>
<svg width="15px" height="15px" viewBox="0 0 15 15" version="1.1" xmlns="http://www.w3.org/2000/svg" xmlns:xlink="http://www.w3.org/1999/xlink">
    <title>形状结合</title>
    <g id="pc" stroke="none" stroke-width="1" fill="none" fill-rule="evenodd">
        <g id="桃子搜索-pc-02" transform="translate(-1226.000000, -260.000000)" fill="#999999" fill-rule="nonzero" stroke="#999999" stroke-width="0.3">
            <g id="编组-10" transform="translate(1137.000000, 252.500000)">
                <g id="编组-7备份" transform="translate(59.500000, 7.000000)">
                    <g id="销量" transform="translate(29.000000, 0.500000)">
                        <path d="M12.5914617,5.85960862 C12.8096403,5.8568056 12.9914558,6.02708424 12.9970502,6.24844647 L12.9970502,6.24844647 L12.9970502,12.5970072 C12.9970502,12.8183695 12.820829,13 12.6026504,13 C12.3844718,13 12.2082506,12.8183695 12.2082506,12.5970072 L12.2082506,12.5970072 L12.2082506,6.26831785 C12.2026563,6.05263158 12.3732831,5.86532508 12.5914617,5.85960862 Z M6.46287789,5.87099826 C6.68105649,5.87099826 6.85727767,6.04979083 6.85727767,6.27115306 L6.85727767,6.27115306 L6.85727767,12.5970017 C6.85727767,12.8183639 6.68105649,12.9999945 6.46287789,12.9999945 C6.24469928,12.9999945 6.0684781,12.8183639 6.0684781,12.5970017 L6.0684781,12.5970017 L6.0684781,6.27115306 C6.0684781,6.04979083 6.24469928,5.87099826 6.46287789,5.87099826 Z M3.39439979,7.03173375 C3.61257839,7.03173375 3.78879958,7.21053186 3.79159674,7.43189409 L3.79159674,7.43189409 L3.79159674,12.594172 C3.78320525,12.8155342 3.60978123,12.9858129 3.39719695,12.9858129 L3.39719695,12.9858129 L3.38321114,12.9858129 C3.17342402,12.977299 3.00839148,12.8070203 3,12.599848 L3,12.599848 L3,7.43188854 C3,7.21052632 3.17622118,7.03173375 3.39439979,7.03173375 Z M9.53415588,7.03173097 C9.75233448,7.03173097 9.92855566,7.21052909 9.93135283,7.43189132 L9.93135283,7.43189132 L9.93135283,12.5941692 C9.92296134,12.8155315 9.74953732,12.9858101 9.53695304,12.9858101 L9.53695304,12.9858101 L9.52296723,12.9858101 C9.31318011,12.9772962 9.14535041,12.8070175 9.13975609,12.5998452 L9.13975609,12.5998452 L9.13975609,7.43188577 C9.13975609,7.21052354 9.31597727,7.03173097 9.53415588,7.03173097 Z M10.4516467,2 L12.6558046,2.00851393 C12.6865734,2.01135191 12.7173422,2.01702786 12.7453138,2.02837977 C12.7816769,2.04540764 12.8096485,2.06527348 12.8320258,2.08513932 C12.8460116,2.09081527 12.8599974,2.10216718 12.8739832,2.11351909 C12.904752,2.14473684 12.9271293,2.17595459 12.9439123,2.21001032 L12.9439123,2.21001032 L12.9662896,2.24690402 C12.9746811,2.26393189 12.9774782,2.27812178 12.9774782,2.29231166 C12.9886614,2.315001 12.9970529,2.35757066 12.99985,2.40014032 L12.99985,2.40014032 L12.99985,4.60241347 C13.0026472,4.70741863 12.9662841,4.80674784 12.8935579,4.8862112 C12.8208317,4.96283659 12.722931,5.00824423 12.6166389,5.0110822 C12.3981789,5.0177739 12.2155517,4.84390345 12.2082533,4.62227932 L12.2082533,4.62227932 L12.2082533,3.40762565 L9.62926483,6.13776535 C9.55653863,6.21439074 9.45304365,6.25979838 9.34675151,6.25979838 C9.26283666,6.25979838 9.18171898,6.23425658 9.1145871,6.18317299 L9.1145871,6.18317299 L6.39015442,4.17389061 L3.6265642,6.18601374 C3.53425787,6.24844924 3.43076289,6.26831508 3.32726791,6.24844924 C3.22377293,6.22574542 3.13426376,6.1661479 3.07552336,6.0781706 C2.95804258,5.89654006 2.99720284,5.65814996 3.16223537,5.53044098 L3.16223537,5.53044098 L6.1579982,3.34803922 C6.29505911,3.24587203 6.48246894,3.24587203 6.61952986,3.34803922 L6.61952986,3.34803922 L9.29641899,5.32327419 L11.6740064,2.80882353 L10.4544439,2.80882353 C10.2362653,2.80882353 10.0544498,2.62435501 10.0544498,2.40299278 C10.0544498,2.18163055 10.2334681,2 10.4516467,2 L10.4516467,2 Z" id="形状结合"></path>
                    </g>
                </g>
            </g>
        </g>
    </g>
</svg>