<?xml version="1.0" encoding="UTF-8"?>
<svg width="19px" height="18px" viewBox="0 0 19 18" version="1.1" xmlns="http://www.w3.org/2000/svg" xmlns:xlink="http://www.w3.org/1999/xlink">
    <!-- Generator: Sketch 60.1 (88133) - https://sketch.com -->
    <title>形状</title>
    <desc>Created with Sketch.</desc>
    <g id="pc" stroke="none" stroke-width="1" fill="none" fill-rule="evenodd">
        <g id="桃子搜索-pc-03" transform="translate(-795.000000, -149.000000)" fill="#FF117D" fill-rule="nonzero">
            <g id="编组-45" transform="translate(0.000000, 134.000000)">
                <g id="编组-4" transform="translate(304.000000, 7.000000)">
                    <g id="搜索" transform="translate(491.000000, 8.000000)">
                        <path d="M17.7502197,15.5584181 L15.7328174,13.5630158 L15.7328174,13.5630158 C15.6022685,13.4383281 15.4450209,13.3450316 15.2730168,13.2902155 L15.2730172,13.290215 C16.3926483,11.8486667 17.0002942,10.0752894 17.0000192,8.25000912 C17.0000192,3.69270381 13.3073149,-4.82222731e-07 8.7500096,-4.82222731e-07 C4.1927043,-4.82222731e-07 0.5,3.69270381 0.5,8.25000912 C0.5,12.8073144 4.1927043,16.5000187 8.7500096,16.5000187 C10.6420118,16.5000187 12.3789138,15.856518 13.7693154,14.7862167 C13.8265155,14.9512169 13.9112156,15.1096171 14.0443158,15.2416173 L16.0628181,17.2359196 C16.2949184,17.4669198 16.6007187,17.58242 16.9054191,17.58242 C17.2112194,17.58242 17.5181198,17.4669198 17.7502201,17.2359196 L17.7502201,17.2359196 C18.2134495,16.7772878 18.2171758,16.029971 17.7585446,15.5667415 C17.7557836,15.5639529 17.7530087,15.561178 17.7502201,15.558417 L17.7502197,15.5584181 Z M8.75000924,14.2989166 C5.41370536,14.2989166 2.7000022,11.5863135 2.7000022,8.2500096 C2.7000022,4.91370572 5.41370536,2.20000256 8.75000924,2.20000256 C12.0863131,2.20000256 14.7989163,4.91260572 14.7989163,8.2500096 C14.7989163,11.5874135 12.0863131,14.2989166 8.75000924,14.2989166 Z" id="形状"></path>
                    </g>
                </g>
            </g>
        </g>
    </g>
</svg>