<?xml version="1.0" encoding="UTF-8"?>
<svg width="20px" height="20px" viewBox="0 0 20 20" version="1.1" xmlns="http://www.w3.org/2000/svg" xmlns:xlink="http://www.w3.org/1999/xlink">
    <title>形状结合</title>
    <g id="pc" stroke="none" stroke-width="1" fill="none" fill-rule="evenodd" stroke-linejoin="round">
        <g id="10" transform="translate(-1294.000000, -95.000000)" fill="#92929D" fill-rule="nonzero" stroke="#92929D" stroke-width="0.7632">
            <g id="编组-8" transform="translate(349.000000, 76.000000)">
                <g id="编组-7" transform="translate(0.000000, 19.000000)">
                    <g id="btn_Dropdown_outline备份-9" transform="translate(946.000000, 0.000000)">
                        <g id="形状结合-2" transform="translate(0.000000, 1.000000)">
                            <path d="M10.8869596,-1.50990331e-13 L11.2745415,0.098877225 C12.12199,0.314812396 12.9342488,0.650702566 13.6866998,1.09636999 L13.6866998,1.09636999 L14.032285,1.30090877 L13.8688084,1.66769429 C13.5501873,2.38247428 13.6997947,3.19987546 14.2499198,3.750001 C14.5976854,4.10070778 15.0715179,4.29737812 15.565414,4.29601325 L15.565414,4.29601325 L15.7235552,4.28955551 C15.9335795,4.27208523 16.1395507,4.21933022 16.3326992,4.13315176 L16.3326992,4.13315176 L16.6987813,3.97029026 L16.9033204,4.31487458 C17.3495393,5.06654582 17.6855382,5.87838176 17.9010355,6.72554098 L17.9010355,6.72554098 L18,7.11389363 L17.6257441,7.25750705 C16.8948281,7.53810693 16.4224686,8.22203728 16.4224686,9.0000107 L16.4224686,9.0000107 L16.4287021,9.15420662 C16.4865797,9.8671525 16.943403,10.4805095 17.6256569,10.7423371 L17.6256569,10.7423371 L17.9996843,10.8860911 L17.9009656,11.2744626 C17.6854806,12.1221861 17.3486749,12.9343385 16.9009811,13.6857618 L16.9009811,13.6857618 L16.6964424,14.02908 L16.3311513,13.8670095 C16.0890478,13.7597828 15.8312822,13.7052379 15.5653954,13.7052379 C15.0669325,13.7052379 14.5990907,13.8987205 14.2479676,14.2498439 C13.698159,14.7997233 13.5487097,15.6172124 13.8669441,16.3325373 L13.8669441,16.3325373 L14.0299461,16.6987779 L13.6852918,16.9034754 C12.933572,17.3495611 12.1217491,17.6855023 11.2746276,17.9010349 L11.2746276,17.9010349 L10.8862559,18 L10.7425723,17.625902 C10.4618145,16.8948271 9.77790231,16.4224672 9,16.4224672 C8.22366197,16.4224672 7.53966192,16.8950556 7.25695292,17.6264469 L7.25695292,17.6264469 L7.11295291,17.9996836 L6.72528492,17.9009472 C5.8778417,17.685121 5.06560395,17.3492625 4.31321445,16.9035634 L4.31321445,16.9035634 L3.96762936,16.6990071 L4.13110593,16.3321512 C4.44965673,15.6173712 4.30013719,14.7999701 3.74983637,14.2497566 C3.39864299,13.8977016 2.93166249,13.7039905 2.43451793,13.7039905 C2.17016049,13.7036075 1.90870696,13.7591076 1.66730303,13.866852 L1.66730303,13.866852 L1.30106277,14.0297838 L1.0965237,13.6851467 C0.650375036,12.9334807 0.314400795,12.1216817 0.0988771479,11.2745682 L0.0988771479,11.2745682 L-4.79616347e-14,10.8862663 L0.374097681,10.7425123 C1.10524226,10.4617366 1.57761924,9.7777535 1.57761924,8.99993829 C1.57761924,8.22366996 1.10508406,7.53959898 0.373869165,7.25720613 L0.373869165,7.25720613 L0.000615234415,7.11320599 L0.0992812565,6.72555522 C0.314724044,5.87779834 0.651524457,5.06561787 1.09924812,4.31418569 L1.09924812,4.31418569 L1.303875,3.97093746 L1.66909573,4.13284972 C1.91007953,4.24000063 2.1709442,4.29514697 2.43467586,4.29469168 L2.43467586,4.29469168 L2.5996095,4.2875753 C3.03578352,4.24975196 3.44023841,4.06220317 3.75233218,3.75001537 C4.30192987,3.20027655 4.45153731,2.38271716 4.13337322,1.66732193 L4.13337322,1.66732193 L3.97059977,1.30123955 L4.3151662,1.09670029 C5.06676996,0.650389501 5.87858584,0.314349917 6.72574253,0.0988770509 L6.72574253,0.0988770509 L7.11413124,-1.50990331e-13 L7.25781484,0.374027707 C7.53843205,1.10517295 8.22241451,1.57753278 9.00022902,1.57753278 C9.77640876,1.57753278 10.460567,1.10485654 10.7429596,0.373324582 L10.7429596,0.373324582 L10.8869596,-1.50990331e-13 Z M11.4077148,1.07174224 L11.311382,1.2303687 C10.8059569,2.00388173 9.94981121,2.47917135 8.99993322,2.47917135 C7.98507768,2.47917135 7.07829247,1.93823918 6.59165962,1.07174224 C6.07444787,1.22839161 5.57391249,1.43556935 5.09729039,1.69028191 L5.09729039,1.69028191 L5.14395143,1.88239106 C5.32909531,2.78201451 5.05903529,3.71803683 4.38959463,4.38756013 C3.86820983,4.90910361 3.17385626,5.19624256 2.43452028,5.19624256 C2.18365581,5.19656512 1.93390228,5.16290755 1.69207296,5.09618777 L1.69207296,5.09618777 L1.5444081,5.3851721 C1.35526329,5.77420102 1.19721512,6.17778138 1.07182849,6.59214038 L1.07182849,6.59214038 L1.23042406,6.68844844 C2.00379348,7.19376855 2.47909812,8.0501128 2.47909812,8.99994222 C2.47909812,10.014869 1.93830707,10.9217253 1.07182849,11.4083586 C1.22850936,11.9257361 1.43574141,12.4264319 1.6905258,12.9032038 L1.6905258,12.9032038 L1.87286148,12.859201 C2.05655921,12.8214473 2.2442145,12.8024629 2.43467789,12.8024629 C3.17315255,12.8024629 3.86680298,13.090305 4.38794169,13.6128328 C5.09314095,14.3178921 5.35496714,15.3597135 5.09447689,16.3087925 C5.57222223,16.5638496 6.07387383,16.7713436 6.59220355,16.9282814 L6.59220355,16.9282814 L6.68852513,16.7696828 C7.19390754,15.9963 8.05017377,15.5210104 9.00000233,15.5210104 C10.0149598,15.5210104 10.9217275,16.0617844 11.4083287,16.9282814 C11.9255369,16.7715089 12.4261004,16.5643364 12.9028192,16.3097399 L12.9028192,16.3097399 L12.8561645,16.1176447 C12.6710448,15.2180781 12.9409626,14.2820514 13.6103377,13.6124625 C14.1317225,13.090919 14.8259178,12.80378 15.5653944,12.80378 C15.8162923,12.8034744 16.066074,12.8371555 16.3079297,12.9039051 L16.3079297,12.9039051 L16.4554582,12.6149236 C16.6445526,12.2260017 16.8026219,11.8225602 16.9281062,11.4083559 L16.9281062,11.4083559 L16.7695209,11.3122644 C15.9962045,10.8079439 15.5209771,9.95143382 15.5209771,8.99993997 C15.5209771,7.98499563 16.0616099,7.07820959 16.9281062,6.5918224 C16.7713742,6.07443615 16.564144,5.57371574 16.3094088,5.0968893 L16.3094088,5.0968893 L16.1262627,5.14101282 C15.9418299,5.17886878 15.7538595,5.1978779 15.5652563,5.1976469 L15.5652563,5.1976469 L15.3650767,5.19055188 C14.7021429,5.14338448 14.085723,4.862371 13.6118167,4.3873297 C12.9067757,3.6821298 12.6448089,2.64030848 12.9054573,1.69122943 C12.4276856,1.43621629 11.9260322,1.22872513 11.4077148,1.07174224 L11.4077148,1.07174224 Z M8.99999941,6.23377363 C10.5253237,6.23377363 11.766234,7.47468499 11.766234,9.0000107 C11.766234,10.5253364 10.5253237,11.7662478 8.99999941,11.7662478 C7.47467509,11.7662478 6.23376485,10.5253364 6.23376485,9.0000107 C6.23376485,7.47468499 7.47460478,6.23377363 8.99999941,6.23377363 Z M8.9999291,7.13252646 C7.97034309,7.13252646 7.13251686,7.97026555 7.13251686,8.99994038 C7.13251686,10.0296679 7.97027278,10.8674949 8.99999941,10.8674949 C10.0298139,10.8674949 10.867482,10.0297558 10.867482,8.99994038 C10.867482,7.97035345 10.0297436,7.13252646 8.9999291,7.13252646 Z" id="形状结合"></path>
                        </g>
                    </g>
                </g>
            </g>
        </g>
    </g>
</svg>