<?xml version="1.0" encoding="UTF-8"?>
<svg width="20px" height="20px" viewBox="0 0 20 20" version="1.1" xmlns="http://www.w3.org/2000/svg" xmlns:xlink="http://www.w3.org/1999/xlink">
    <title>形状结合备份 3</title>
    <g id="pc" stroke="none" stroke-width="1" fill="none" fill-rule="evenodd" stroke-linejoin="round">
        <g id="10" transform="translate(-1359.000000, -95.000000)" fill="#FF117D" fill-rule="nonzero" stroke="#FF127D" stroke-width="0.7632">
            <g id="编组-8" transform="translate(349.000000, 76.000000)">
                <g id="编组-7" transform="translate(0.000000, 19.000000)">
                    <g id="设-置" transform="translate(946.000000, 0.000000)">
                        <path d="M75.8869596,1 L76.2745415,1.09887723 C77.12199,1.3148124 77.9342488,1.65070257 78.6866998,2.09636999 L78.6866998,2.09636999 L79.032285,2.30090877 L78.8688084,2.66769429 C78.5501873,3.38247428 78.6997947,4.19987546 79.2499198,4.750001 C79.5976854,5.10070778 80.0715179,5.29737812 80.565414,5.29601325 L80.565414,5.29601325 L80.7235552,5.28955551 C80.9335795,5.27208523 81.1395507,5.21933022 81.3326992,5.13315176 L81.3326992,5.13315176 L81.6987813,4.97029026 L81.9033204,5.31487458 C82.3495393,6.06654582 82.6855382,6.87838176 82.9010355,7.72554098 L82.9010355,7.72554098 L83,8.11389363 L82.6257441,8.25750705 C81.8948281,8.53810693 81.4224686,9.22203728 81.4224686,10.0000107 L81.4224686,10.0000107 L81.4287021,10.1542066 C81.4865797,10.8671525 81.943403,11.4805095 82.6256569,11.7423371 L82.6256569,11.7423371 L82.9996843,11.8860911 L82.9009656,12.2744626 C82.6854806,13.1221861 82.3486749,13.9343385 81.9009811,14.6857618 L81.9009811,14.6857618 L81.6964424,15.02908 L81.3311513,14.8670095 C81.0890478,14.7597828 80.8312822,14.7052379 80.5653954,14.7052379 C80.0669325,14.7052379 79.5990907,14.8987205 79.2479676,15.2498439 C78.698159,15.7997233 78.5487097,16.6172124 78.8669441,17.3325373 L78.8669441,17.3325373 L79.0299461,17.6987779 L78.6852918,17.9034754 C77.933572,18.3495611 77.1217491,18.6855023 76.2746276,18.9010349 L76.2746276,18.9010349 L75.8862559,19 L75.7425723,18.625902 C75.4618145,17.8948271 74.7779023,17.4224672 74,17.4224672 C73.223662,17.4224672 72.5396619,17.8950556 72.2569529,18.6264469 L72.2569529,18.6264469 L72.1129529,18.9996836 L71.7252849,18.9009472 C70.8778417,18.685121 70.0656039,18.3492625 69.3132144,17.9035634 L69.3132144,17.9035634 L68.9676294,17.6990071 L69.1311059,17.3321512 C69.4496567,16.6173712 69.3001372,15.7999701 68.7498364,15.2497566 C68.398643,14.8977016 67.9316625,14.7039905 67.4345179,14.7039905 C67.1701605,14.7036075 66.908707,14.7591076 66.667303,14.866852 L66.667303,14.866852 L66.3010628,15.0297838 L66.0965237,14.6851467 C65.650375,13.9334807 65.3144008,13.1216817 65.0988771,12.2745682 L65.0988771,12.2745682 L65,11.8862663 L65.3740977,11.7425123 C66.1052423,11.4617366 66.5776192,10.7777535 66.5776192,9.99993829 C66.5776192,9.22366996 66.1050841,8.53959898 65.3738692,8.25720613 L65.3738692,8.25720613 L65.0006152,8.11320599 L65.0992813,7.72555522 C65.314724,6.87779834 65.6515245,6.06561787 66.0992481,5.31418569 L66.0992481,5.31418569 L66.303875,4.97093746 L66.6690957,5.13284972 C66.9100795,5.24000063 67.1709442,5.29514697 67.4346759,5.29469168 L67.4346759,5.29469168 L67.5996095,5.2875753 C68.0357835,5.24975196 68.4402384,5.06220317 68.7523322,4.75001537 C69.3019299,4.20027655 69.4515373,3.38271716 69.1333732,2.66732193 L69.1333732,2.66732193 L68.9705998,2.30123955 L69.3151662,2.09670029 C70.06677,1.6503895 70.8785858,1.31434992 71.7257425,1.09887705 L71.7257425,1.09887705 L72.1141312,1 L72.2578148,1.37402771 C72.538432,2.10517295 73.2224145,2.57753278 74.000229,2.57753278 C74.7764088,2.57753278 75.460567,2.10485654 75.7429596,1.37332458 L75.7429596,1.37332458 L75.8869596,1 Z M76.4077148,2.07174224 L76.311382,2.2303687 C75.8059569,3.00388173 74.9498112,3.47917135 73.9999332,3.47917135 C72.9850777,3.47917135 72.0782925,2.93823918 71.5916596,2.07174224 C71.0744479,2.22839161 70.5739125,2.43556935 70.0972904,2.69028191 L70.0972904,2.69028191 L70.1439514,2.88239106 C70.3290953,3.78201451 70.0590353,4.71803683 69.3895946,5.38756013 C68.8682098,5.90910361 68.1738563,6.19624256 67.4345203,6.19624256 C67.1836558,6.19656512 66.9339023,6.16290755 66.692073,6.09618777 L66.692073,6.09618777 L66.5444081,6.3851721 C66.3552633,6.77420102 66.1972151,7.17778138 66.0718285,7.59214038 L66.0718285,7.59214038 L66.2304241,7.68844844 C67.0037935,8.19376855 67.4790981,9.0501128 67.4790981,9.99994222 C67.4790981,11.014869 66.9383071,11.9217253 66.0718285,12.4083586 C66.2285094,12.9257361 66.4357414,13.4264319 66.6905258,13.9032038 L66.6905258,13.9032038 L66.8728615,13.859201 C67.0565592,13.8214473 67.2442145,13.8024629 67.4346779,13.8024629 C68.1731525,13.8024629 68.866803,14.090305 69.3879417,14.6128328 C70.093141,15.3178921 70.3549671,16.3597135 70.0944769,17.3087925 C70.5722222,17.5638496 71.0738738,17.7713436 71.5922036,17.9282814 L71.5922036,17.9282814 L71.6885251,17.7696828 C72.1939075,16.9963 73.0501738,16.5210104 74.0000023,16.5210104 C75.0149598,16.5210104 75.9217275,17.0617844 76.4083287,17.9282814 C76.9255369,17.7715089 77.4261004,17.5643364 77.9028192,17.3097399 L77.9028192,17.3097399 L77.8561645,17.1176447 C77.6710448,16.2180781 77.9409626,15.2820514 78.6103377,14.6124625 C79.1317225,14.090919 79.8259178,13.80378 80.5653944,13.80378 C80.8162923,13.8034744 81.066074,13.8371555 81.3079297,13.9039051 L81.3079297,13.9039051 L81.4554582,13.6149236 C81.6445526,13.2260017 81.8026219,12.8225602 81.9281062,12.4083559 L81.9281062,12.4083559 L81.7695209,12.3122644 C80.9962045,11.8079439 80.5209771,10.9514338 80.5209771,9.99993997 C80.5209771,8.98499563 81.0616099,8.07820959 81.9281062,7.5918224 C81.7713742,7.07443615 81.564144,6.57371574 81.3094088,6.0968893 L81.3094088,6.0968893 L81.1262627,6.14101282 C80.9418299,6.17886878 80.7538595,6.1978779 80.5652563,6.1976469 L80.5652563,6.1976469 L80.3650767,6.19055188 C79.7021429,6.14338448 79.085723,5.862371 78.6118167,5.3873297 C77.9067757,4.6821298 77.6448089,3.64030848 77.9054573,2.69122943 C77.4276856,2.43621629 76.9260322,2.22872513 76.4077148,2.07174224 L76.4077148,2.07174224 Z M73.9999994,7.23377363 C75.5253237,7.23377363 76.766234,8.47468499 76.766234,10.0000107 C76.766234,11.5253364 75.5253237,12.7662478 73.9999994,12.7662478 C72.4746751,12.7662478 71.2337649,11.5253364 71.2337649,10.0000107 C71.2337649,8.47468499 72.4746048,7.23377363 73.9999994,7.23377363 Z M73.9999291,8.13252646 C72.9703431,8.13252646 72.1325169,8.97026555 72.1325169,9.99994038 C72.1325169,11.0296679 72.9702728,11.8674949 73.9999994,11.8674949 C75.0298139,11.8674949 75.867482,11.0297558 75.867482,9.99994038 C75.867482,8.97035345 75.0297436,8.13252646 73.9999291,8.13252646 Z" id="形状结合备份-3"></path>
                    </g>
                </g>
            </g>
        </g>
    </g>
</svg>