<?xml version="1.0" encoding="UTF-8"?>
<svg width="11px" height="15px" viewBox="0 0 11 15" version="1.1" xmlns="http://www.w3.org/2000/svg" xmlns:xlink="http://www.w3.org/1999/xlink">
    <title>形状</title>
    <g id="pc" stroke="none" stroke-width="1" fill="none" fill-rule="evenodd">
        <g id="10" transform="translate(-375.000000, -98.000000)" fill-rule="nonzero">
            <g id="编组-8" transform="translate(349.000000, 76.000000)">
                <g id="编组-7" transform="translate(0.000000, 19.000000)">
                    <g id="编组-31" transform="translate(24.000000, 0.000000)">
                        <g id="手机" transform="translate(0.000000, 3.000000)">
                            <rect id="矩形" fill="#000000" opacity="0" x="0" y="0" width="14.4" height="14.4"></rect>
                            <path d="M10.8,0 L3.6,0 C2.80470996,0 2.16,0.64470996 2.16,1.44 L2.16,12.96 C2.16,13.75529 2.80470996,14.4 3.6,14.4 L10.8,14.4 C11.59529,14.4 12.24,13.75529 12.24,12.96 L12.24,1.44 C12.24,0.64470996 11.59529,0 10.8,0 L10.8,0 Z M7.2,13.68 C6.80235498,13.68 6.48,13.357645 6.48,12.96 C6.48,12.562355 6.80235498,12.24 7.2,12.24 C7.59764502,12.24 7.92,12.562355 7.92,12.96 C7.92,13.357645 7.59764502,13.68 7.2,13.68 L7.2,13.68 Z M10.8,11.52 L3.6,11.52 L3.6,1.44 L10.8,1.44 L10.8,11.52 Z" id="形状" fill="#C0C0C0"></path>
                        </g>
                    </g>
                </g>
            </g>
        </g>
    </g>
</svg>