<?xml version="1.0" encoding="UTF-8"?>
<svg width="14px" height="14px" viewBox="0 0 14 14" version="1.1" xmlns="http://www.w3.org/2000/svg" xmlns:xlink="http://www.w3.org/1999/xlink">
    <title>拼多多</title>
    <g id="pc" stroke="none" stroke-width="1" fill="none" fill-rule="evenodd">
        <g id="桃子搜索-pc-02" transform="translate(-82.000000, -721.000000)" fill-rule="nonzero">
            <g id="编组-47备份-5" transform="translate(82.000000, 721.000000)">
                <g id="苏宁" transform="translate(0.500000, 0.500000)">
                    <path d="M12.180343,5.53513357 L10.9993113,4.35663619 L10.9993113,2.689004 C10.9993113,2.09341931 10.5152403,1.60934835 9.91965562,1.60934835 L8.25202343,1.60934835 L7.07352606,0.430850976 C6.87077382,0.22809874 6.60719591,0.121653817 6.3410836,0.114050608 L6.28025793,0.114050608 C6.01414562,0.121653817 5.75056772,0.22809874 5.54781548,0.430850976 L4.36931811,1.60934835 L2.70168592,1.60934835 C2.10356682,1.60934835 1.62203026,2.09341931 1.62203026,2.689004 L1.62203026,4.35663619 L0.443532891,5.53513357 C0.233177446,5.74548901 0.126732522,6.02173893 0.126732522,6.30052326 C0.126732522,6.57677318 0.233177446,6.8530231 0.443532891,7.06337854 L1.62203026,8.24187592 L1.62203026,9.90950811 C1.62203026,10.5050928 2.10610123,10.9891638 2.70168592,10.9891638 L4.36931811,10.9891638 L5.54781548,12.1676611 C5.97106077,12.588372 6.65281517,12.588372 7.07605551,12.1676611 L8.25455288,10.9891638 L9.92218507,10.9891638 C10.5177698,10.9891638 11.0018407,10.5050928 11.0018407,9.90950811 L11.0018407,8.24187592 L12.1803381,7.06337854 C12.601049,6.64266765 12.601049,5.95837886 12.1803381,5.53513852 L12.180343,5.53513357 Z" id="路径" fill="#F7B400"></path>
                    <path d="M8.13543347,7.16728659 C8.02645414,6.25236713 7.24839243,5.54273182 6.30306508,5.54273182 C5.36026719,5.54273182 4.58220796,6.25236465 4.47322121,7.16728659 C3.71036592,7.19009622 3.09704535,7.81862815 3.09704535,8.58655224 C3.09704535,9.37221716 3.73318049,10.0058179 4.51884788,10.0058179 L8.10502806,10.0058179 C8.89069297,10.0058179 9.52429371,9.36968275 9.52429371,8.58655224 C9.52429371,7.81355934 8.90589939,7.18503236 8.13544584,7.16728659 L8.13543347,7.16728659 Z" id="路径" fill="#FFFFFF"></path>
                    <path d="M7.7755433,5.49205614 C7.7755433,5.74549644 7.98082994,5.95078307 8.23427023,5.95078307 C8.48771053,5.95078307 8.69299717,5.74549644 8.69299717,5.49205614 C8.69299717,5.23861585 8.48771053,5.03332921 8.23427023,5.03332921 C7.98082994,5.03332921 7.7755433,5.23861585 7.7755433,5.49205614 Z M3.91311568,5.49205614 C3.91311568,5.74549644 4.11840232,5.95078307 4.37184261,5.95078307 C4.62528291,5.95078307 4.83056955,5.74549644 4.83056955,5.49205614 C4.83056955,5.23861585 4.62528291,5.03332921 4.37184261,5.03332921 C4.11840232,5.03332921 3.91311568,5.23861585 3.91311568,5.49205614 Z M7.42072689,7.16729897 L5.18537853,7.16729897 C4.97755749,7.16729897 4.79254608,7.44861769 5.09414003,7.67164515 L5.83165129,8.22414499 C5.83165129,8.22414499 6.03440352,8.37114037 6.30051583,8.36860596 C6.56662814,8.37114037 6.76938038,8.22414499 6.76938038,8.22414499 L7.50689164,7.67164515 C7.81101999,7.44861769 7.62854298,7.16729897 7.42072194,7.16729897 L7.42072689,7.16729897 Z" id="形状" fill="#000000"></path>
                </g>
            </g>
        </g>
    </g>
</svg>