<?xml version="1.0" encoding="UTF-8"?>
<svg width="14px" height="14px" viewBox="0 0 14 14" version="1.1" xmlns="http://www.w3.org/2000/svg" xmlns:xlink="http://www.w3.org/1999/xlink">
    <title>拼多多</title>
    <g id="pc" stroke="none" stroke-width="1" fill="none" fill-rule="evenodd">
        <g id="桃子搜索-pc-02" transform="translate(-82.000000, -740.000000)" fill-rule="nonzero">
            <g id="编组-47备份-7" transform="translate(82.000000, 740.000000)">
                <g id="天猫" transform="translate(0.500000, 0.500000)">
                    <path d="M1.717652,0 C0.771606898,0 -7.83871978e-06,0.757746882 -7.83871978e-06,1.714484 L-7.83871978e-06,10.9327807 C-0.00163201263,11.8781577 0.763403456,12.6458429 1.70875432,12.647479 C1.71179486,12.647479 1.71483541,12.647479 1.71787594,12.647479 L10.9543887,12.647479 C11.9002358,12.647479 12.6722387,11.889523 12.6722387,10.9327859 L12.6722387,1.71448915 C12.6720146,0.757752037 11.9002098,0 10.9541659,0 L1.717652,0 Z" id="路径" fill="#FF002B"></path>
                    <path d="M11.4893605,12.5727671 L11.4893605,12.5727671 C11.3276179,12.6500693 11.159924,12.690464 10.991192,12.6927671 C11.1410781,12.6927671 11.3026463,12.6523427 11.4893605,12.5727671 L11.4893605,12.5727671 Z" id="路径" fill="#FFFFFF"></path>
                    <path d="M0.0538144728,1.714484 L0.0538144728,10.1130598 L0.0538144728,1.714484 Z M1.18245936,12.5728166 C1.36937157,12.6523922 1.53093976,12.6928166 1.70537796,12.6928166 C1.53093976,12.6928166 1.36937157,12.6523922 1.18245936,12.5728166 L1.18245936,12.5728166 Z" id="形状" fill="#111111"></path>
                    <path d="M11.5887555,12.013664 C11.5887555,11.2808651 11.0040608,10.6470664 10.2692819,10.6223164 C10.2445319,10.5975663 10.2197819,10.5975663 10.1946359,10.5975663 C10.1698858,10.5975663 10.1447398,10.5975663 10.1199898,10.6223164 L10.281558,10.6223164 C10.4934182,10.7217125 10.6551844,11.3056152 10.6551844,12.013664 C10.6551844,12.2498783 10.6304344,12.4607485 10.6056843,12.6474627 L10.9789148,12.6474627 C11.165629,12.6474627 11.3273952,12.6223167 11.4770834,12.5728166 C11.5640055,12.3864984 11.5887555,12.1999822 11.5887555,12.013664 L11.5887555,12.013664 Z" id="路径" fill="#FFFFFF"></path>
                    <path d="M2.56430098,10.7173683 C2.53935295,10.5973683 2.51440493,10.5973683 2.4894569,10.5973683 C2.46450887,10.5973683 2.43975884,10.5973683 2.41500881,10.7173683 L2.56430098,10.7173683 Z" id="路径" fill="#111111"></path>
                    <g id="编组-48" transform="translate(0.000000, 8.364740)">
                        <path d="M2.4023368,2.25737818 C1.66775594,2.28212821 1.08286326,2.91592695 1.08286326,3.6487258 C1.08286326,3.83504402 1.13256132,4.02156023 1.21968142,4.20787845 C1.38144761,4.25737818 1.53073978,4.28252454 1.717652,4.28252454 L2.09108043,4.28252454 C2.0661324,4.09581032 2.04138238,3.88494007 2.04138238,3.6487258 C2.02910636,2.94087498 2.19067455,2.3567743 2.4023368,2.25737818 Z M10.1077138,2.25737818 C9.37333091,2.28212821 8.78824023,2.91592695 8.78824023,3.6487258 C8.78824023,3.88494007 8.83813628,4.09581032 8.94980841,4.28252454 L9.7962594,4.28252454 C9.77150937,4.09581032 9.74636334,3.88494007 9.74636334,3.6487258 C9.74656134,2.94087498 9.89605152,2.3567743 10.1077138,2.25737818 Z M6.59736768,3.36301147 L6.07444907,3.36301147 C5.91268288,3.36301147 5.86298482,3.43765755 5.93763091,3.54932968 L6.0993971,3.76039793 C6.14909516,3.83504402 6.23641326,3.94671615 6.26136129,3.9964142 C6.28611131,4.02136223 6.28611131,4.02136223 6.33600737,4.02136223 C6.38590343,4.02136223 6.41065346,3.9964142 6.41065346,3.9964142 C6.46054952,3.94671615 6.51024758,3.83504402 6.57241965,3.76039793 L6.70923781,3.54932968 C6.80883192,3.43765755 6.75913387,3.36301147 6.59736768,3.36301147 L6.59736768,3.36301147 Z M2.56430098,2.25737812 C2.77576523,2.3567743 2.96267745,2.94067698 2.96267745,3.6487258 C2.96267745,3.88494007 2.93772942,4.09581032 2.91278139,4.28252454 L3.75923237,4.28252454 L3.75923241,4.28252454 C3.86496911,4.08798678 3.92050236,3.87014197 3.92080059,3.64872574 C3.88377455,2.91612489 3.29868387,2.28212815 2.56430098,2.25737812 L2.56430098,2.25737812 Z M11.4893594,4.20807645 C11.7255736,4.13343036 11.9623819,3.9968102 12.1490961,3.83524202 C11.9376319,3.9968102 11.7257716,4.12115435 11.4893594,4.20807645 Z" id="形状" fill="#FFFFFF"></path>
                        <path d="M12.1116741,0.0958096651 C11.6139015,-0.190102668 11.1034569,0.331627939 11.0288108,0.44349807 C10.3690741,1.20124495 9.63469121,2.12095602 8.31521768,2.12095602 L4.35659907,2.12095602 C3.03712553,2.12095602 2.32749271,1.17649492 1.64300591,0.431222055 C1.5432138,0.33182594 1.05791523,-0.202576682 0.559944652,0.0831376503 C0.11187013,0.356575969 0.0247500288,1.17649492 -6.39488462e-15,1.72337156 L-6.39488462e-15,2.59279057 C-6.39488462e-15,3.08977115 0.211464246,3.53725167 0.585090681,3.85999205 L0.585090479,3.85999187 C0.772273709,4.0218088 0.987386109,4.14815274 1.21987922,4.2328263 C1.14503513,4.07125812 1.08306106,3.8851379 1.08306106,3.67367365 C1.08306106,2.9408748 1.66795374,2.30727406 2.40253459,2.28232603 C2.42748262,2.25757601 2.45223265,2.25757601 2.47718068,2.25757601 C2.50212871,2.25757601 2.52707674,2.25757601 2.55182677,2.28232603 C3.28601162,2.30727406 3.8714983,2.9408748 3.8714983,3.67367365 C3.8714983,3.90988793 3.82160224,4.12115417 3.70973211,4.30727439 L8.9375322,4.30727439 L8.93753219,4.30727439 C8.83196663,4.11274904 8.77650726,3.89499705 8.776162,3.67367363 C8.776162,2.94087478 9.36125268,2.30727404 10.0956355,2.28232601 C10.1203856,2.25757598 10.1451356,2.25757598 10.1702816,2.25757598 C10.1950316,2.25757598 10.2201777,2.25757598 10.2449277,2.28232601 C10.9793106,2.30727404 11.5644012,2.94087478 11.5644012,3.67367363 C11.5644012,3.85999185 11.5145052,4.04650807 11.4275831,4.23282628 C11.6641934,4.1581802 11.9006056,4.02175804 12.0873199,3.85999185 L12.0873198,3.85999188 C12.4428626,3.54482996 12.646647,3.09265808 12.6472645,2.61754044 L12.6472645,1.74812142 C12.6468685,1.17649476 12.5599464,0.356575804 12.1116738,0.0958095007 L12.1116741,0.0958096651 Z M6.73438384,3.54952768 L6.59756568,3.7358459 C6.52291959,3.81049199 6.46054952,3.92216412 6.43560149,3.97166418 C6.41065346,3.9966122 6.38590343,4.02156023 6.33600737,4.02156023 C6.28611131,4.02156023 6.26136129,3.9966122 6.26136129,3.9966122 C6.21146523,3.94691415 6.16176717,3.83524202 6.0993971,3.76059593 L5.93763091,3.54952768 C5.86298482,3.45013157 5.93763091,3.36320907 6.07444907,3.36320907 L6.59736768,3.36320907 C6.75913387,3.36301147 6.80883192,3.43765755 6.73438384,3.54952768 L6.73438384,3.54952768 Z" id="形状" fill="#111111"></path>
                    </g>
                    <path d="M0.585093156,12.1999822 C0.23641475,11.8768458 2.47500293e-06,11.4297613 2.47500293e-06,10.9327807 L2.47500293e-06,10.0881117 L2.47500293e-06,10.9327807 C2.47500293e-06,11.4297613 0.211466721,11.8768458 0.585093156,12.1999822 Z M1.18245985,12.5728166 C0.946047576,12.4981705 0.73438533,12.3864984 0.547671112,12.1999822 C0.734187329,12.3615504 0.983271619,12.4858945 1.18245985,12.5728166 Z" id="形状" fill="#111111"></path>
                    <path d="M10.2692819,10.6221184 L10.1077138,10.6221184 C9.89624952,10.7215145 9.73408733,11.3054172 9.73408733,12.013466 C9.73408733,12.2496803 9.75923336,12.4605505 9.78398338,12.6472647 L10.6056843,12.6472647 C10.6304344,12.4605505 10.6551844,12.2496803 10.6551844,12.013466 C10.6429084,11.3056152 10.4813402,10.7215145 10.2692819,10.6221184 Z M2.56430098,10.6221184 L2.4025348,10.6221184 C2.19087255,10.7215145 2.00415833,11.3054172 2.00415833,12.013466 C2.00415833,12.2496803 2.02910636,12.4605505 2.05385639,12.6472647 L2.87535935,12.6472647 C2.90030737,12.4605505 2.9252554,12.2496803 2.9252554,12.013466 C2.9252554,11.3056152 2.77576523,10.7215145 2.56430098,10.6221184 L2.56430098,10.6221184 Z" id="形状" fill="#111111"></path>
                    <path d="M4.21978091,4.37303309 L6.03722503,4.37303309 L6.03722503,3.90100054 L4.16988485,3.90100054 L4.16988485,2.89476337 L5.86298482,2.89476337 L5.86298482,2.39758479 L2.00415833,2.39758479 L2.00415833,2.86961734 L3.6970603,2.86961734 L3.6970603,3.87605251 L1.81724611,3.87605251 L1.81724611,4.34808506 L3.63469023,4.34808506 C3.44817401,5.05613388 2.87535935,5.66498459 1.81724611,6.2738353 L2.05365839,6.69636779 C2.71339516,6.32353336 3.53489811,5.77685472 3.95822261,4.93198774 C4.05781672,5.14325398 4.19463488,5.35432223 4.3815471,5.56578648 C4.7300275,5.96337094 5.20305005,6.32353336 5.86278682,6.69636779 L6.0991991,6.2738353 C4.99138781,5.68993262 4.40649513,5.08127991 4.21978091,4.37303309 L4.21978091,4.37303309 Z M8.42708781,3.55291613 L8.90050636,3.55291613 L8.90050636,3.15533167 L9.93347356,3.15533167 L9.93347356,3.55291613 L10.4064961,3.55291613 L10.4064961,3.15533167 L10.8799147,3.15533167 L10.8799147,2.68329912 L10.4064961,2.68329912 L10.4064961,2.39758479 L9.93347356,2.39758479 L9.93347356,2.70804915 L8.90050636,2.70804915 L8.90050636,2.39758479 L8.42708781,2.39758479 L8.42708781,2.70804915 L7.97921128,2.70804915 L7.97921128,3.1802797 L8.42708781,3.1802797 L8.42708781,3.55291613 Z M7.46876669,2.63379906 C7.20740639,2.37283476 6.78408189,2.37283476 6.54766962,2.39758479 L6.49797156,2.39758479 L6.49797156,2.86961734 L6.57241965,2.86961734 C6.73438384,2.86961734 7.02069217,2.86961734 7.15751033,2.96901345 C7.18265636,2.99396148 7.23215642,3.04365954 7.23215642,3.20502973 L7.23215642,3.36639992 L6.49797156,3.81368244 L6.73458184,4.23601693 L7.23235442,3.9503026 L7.23235442,4.4720332 L6.49816956,4.91931572 L6.73477984,5.34165022 L7.23255242,5.05593588 L7.23255242,5.45352035 C7.23255242,5.55271846 7.18305236,5.73923468 7.09573426,5.82615678 C6.85932198,6.11187111 6.48589355,6.32313736 6.48589355,6.32313736 L6.72250382,6.74566985 C6.74725385,6.74566985 7.19552637,6.48470555 7.45688668,6.13662114 C7.59370484,5.95069892 7.69349695,5.68953662 7.69349695,5.45352035 L7.69349695,3.24245177 C7.68023094,2.98168547 7.60558485,2.79536725 7.46876669,2.63379906 L7.46876669,2.63379906 Z M7.96673727,3.87625051 L7.96673727,6.03781903 C7.96673727,6.43540349 8.27759763,6.74606585 8.6759741,6.74606585 L10.1574118,6.74606585 C10.5557883,6.74606585 10.8670446,6.43540349 10.8670446,6.03781903 L10.8670446,3.87625051 L7.96673727,3.87625051 Z M9.18641869,6.24908527 L8.68825011,6.24908527 C8.55143195,6.24908527 8.45203584,6.14968916 8.45203584,6.013069 L8.45203584,5.54103645 L9.18641869,5.54103645 L9.18641869,6.24908527 L9.18641869,6.24908527 Z M9.18641869,5.05633188 L8.45203584,5.05633188 L8.45203584,4.34828306 L9.18641869,4.34828306 L9.18641869,5.05633188 Z M10.4062981,6.03781903 C10.4062981,6.17443918 10.306902,6.2738353 10.1700838,6.2738353 L9.67191525,6.2738353 L9.67191525,5.54083845 L10.4062981,5.54083845 L10.4062981,6.03781903 L10.4062981,6.03781903 Z M10.4062981,5.05633188 L9.67191525,5.05633188 L9.67191525,4.34828306 L10.4062981,4.34828306 L10.4062981,5.05633188 Z" id="形状" fill="#FFFFFF"></path>
                </g>
            </g>
        </g>
    </g>
</svg>