<?xml version="1.0" encoding="UTF-8"?>
<svg width="18px" height="19px" viewBox="0 0 18 19" version="1.1" xmlns="http://www.w3.org/2000/svg" xmlns:xlink="http://www.w3.org/1999/xlink">
    <title>形状结合</title>
    <g id="pc" stroke="none" stroke-width="1" fill="none" fill-rule="evenodd">
        <g id="14" transform="translate(-536.000000, -145.000000)" fill="#92929D" fill-rule="nonzero">
            <g id="编组-53" transform="translate(101.000000, 76.000000)">
                <g id="编组-7" transform="translate(22.000000, 61.000000)">
                    <g id="编组-91" transform="translate(82.000000, 0.000000)">
                        <g id="编组-44备份-2" transform="translate(197.500000, 0.000000)">
                            <g id="日期" transform="translate(133.500000, 8.000000)">
                                <path d="M13.6546502,1 C14.0339717,1 14.3401691,1.3135161 14.3401691,1.70190008 L14.3401691,1.70190008 L14.3401691,2.55353765 L15.5924027,2.55353418 C16.3693228,2.55353418 17,3.19928204 17,3.9947674 L17,3.9947674 L17,16.5587668 C17,17.3542521 16.3693228,18 15.5924027,18 L15.5924027,18 L2.40759727,18 C1.6306772,18 1,17.3542521 1,16.5587668 L1,16.5587668 L1,3.9947674 C1,3.19928204 1.6306772,2.55353418 2.40759727,2.55353418 L2.40759727,2.55353418 L3.82433399,2.55353418 L3.82433399,4.97741987 C3.82433399,5.36580559 4.13053315,5.67931995 4.5098529,5.67931995 C4.88917435,5.67931995 5.19537181,5.36580385 5.19537181,4.97741987 L5.19537181,4.97741987 L5.19537181,2.55353418 L3.82889607,2.55353765 L3.82889607,1.70190008 C3.82889607,1.31351436 4.13509523,1 4.51441499,1 C4.89373644,1 5.1999339,1.3135161 5.1999339,1.70190008 L5.1999339,1.70190008 L5.1999339,2.55353765 L12.9645726,2.55353418 L12.9645726,4.97741987 C12.9645726,5.36580559 13.2707718,5.67931995 13.6500915,5.67931995 C14.029413,5.67931995 14.3356104,5.36580385 14.3356104,4.97741987 L14.3356104,4.97741987 L14.3356104,2.55353418 L12.9691313,2.55353765 L12.9691313,1.70190008 C12.9691313,1.31351436 13.2753304,1 13.6546502,1 Z M15.8574617,7.55105869 L2.14709361,7.55105869 L2.14709361,15.9738561 C2.14709361,16.4885822 2.55840394,16.9097212 3.06111713,16.9097212 L3.06111713,16.9097212 L14.9434382,16.9097212 C15.4461514,16.9097212 15.8574617,16.4885822 15.8574617,15.9738561 L15.8574617,15.9738561 L15.8574617,7.55105869 Z M5.36455742,14.1022317 C5.61185817,14.1074012 5.80824409,14.3168594 5.80319618,14.5700696 L5.80319618,14.5700696 L5.79428154,14.6539 C5.75140134,14.8716273 5.56047297,15.0380032 5.33704413,15.0380032 L5.33704413,15.0380032 L3.96600717,15.0380032 C3.71465142,15.0380032 3.51356557,14.8274335 3.5181357,14.5700696 C3.52270626,14.3127058 3.7329303,14.1021362 3.98428774,14.1021362 L3.98428774,14.1021362 Z M9.70617211,14.1022317 C9.95347286,14.1074012 10.1498588,14.3168594 10.1448109,14.5700696 L10.1448109,14.5700696 L10.1358962,14.6539 C10.093016,14.8716273 9.90208766,15.0380032 9.67865882,15.0380032 L9.67865882,15.0380032 L8.30762187,15.0380032 C8.05626612,15.0380032 7.85518027,14.8274335 7.85975039,14.5700696 C7.86432096,14.3127058 8.07454499,14.1021362 8.32590244,14.1021362 L8.32590244,14.1021362 Z M14.0477868,14.1022317 C14.2950876,14.1074012 14.4914735,14.3168594 14.4864256,14.5700696 L14.4864256,14.5700696 L14.4775109,14.6539 C14.4346307,14.8716273 14.2437024,15.0380032 14.0202735,15.0380032 L14.0202735,15.0380032 L12.6492366,15.0380032 C12.3978808,15.0380032 12.196795,14.8274335 12.2013651,14.5700696 C12.2059357,14.3127058 12.4161597,14.1021362 12.6675171,14.1021362 L12.6675171,14.1021362 Z M5.36455742,11.5285929 C5.61185817,11.5337624 5.80824409,11.7432206 5.80319618,11.9964308 L5.80319618,11.9964308 L5.79428154,12.0802612 C5.75140134,12.2979885 5.56047297,12.4643644 5.33704413,12.4643644 L5.33704413,12.4643644 L3.96600719,12.4643644 C3.71465144,12.4643644 3.51356559,12.2537947 3.51813571,11.9964308 C3.52270628,11.739067 3.73293032,11.5284974 3.98428776,11.5284974 L3.98428776,11.5284974 Z M9.70617211,11.5285929 C9.95347286,11.5337624 10.1498588,11.7432206 10.1448109,11.9964308 L10.1448109,11.9964308 L10.1358962,12.0802612 C10.093016,12.2979885 9.90208766,12.4643644 9.67865882,12.4643644 L9.67865882,12.4643644 L8.30762188,12.4643644 C8.05626614,12.4643644 7.85518028,12.2537947 7.85975041,11.9964308 C7.86432098,11.739067 8.07454501,11.5284974 8.32590245,11.5284974 L8.32590245,11.5284974 Z M14.0477868,11.5285929 C14.2950876,11.5337624 14.4914735,11.7432206 14.4864256,11.9964308 L14.4864256,11.9964308 L14.4775109,12.0802612 C14.4346307,12.2979885 14.2437024,12.4643644 14.0202735,12.4643644 L14.0202735,12.4643644 L12.6492366,12.4643644 C12.3978808,12.4643644 12.196795,12.2537947 12.2013651,11.9964308 C12.2059357,11.739067 12.4161597,11.5284974 12.6675171,11.5284974 L12.6675171,11.5284974 Z M5.36455742,8.95495413 C5.61185817,8.9601236 5.80824409,9.16958176 5.80319618,9.42279201 L5.80319618,9.42279201 L5.79428154,9.5066224 C5.75140134,9.72434971 5.56047297,9.89072561 5.33704413,9.89072561 L5.33704413,9.89072561 L3.96600719,9.89072561 C3.71465144,9.89072561 3.51356559,9.6801559 3.51813571,9.42279202 C3.52270628,9.16542814 3.73293032,8.95485863 3.98428776,8.95485863 L3.98428776,8.95485863 Z M9.70617211,8.95495413 C9.95347286,8.9601236 10.1498588,9.16958176 10.1448109,9.42279201 L10.1448109,9.42279201 L10.1358962,9.5066224 C10.093016,9.72434971 9.90208766,9.89072561 9.67865882,9.89072561 L9.67865882,9.89072561 L8.30762188,9.89072561 C8.05626614,9.89072561 7.85518028,9.6801559 7.85975041,9.42279202 C7.86432098,9.16542814 8.07454501,8.95485863 8.32590245,8.95485863 L8.32590245,8.95485863 Z M14.0477868,8.95495413 C14.2950876,8.9601236 14.4914735,9.16958176 14.4864256,9.42279201 L14.4864256,9.42279201 L14.4775109,9.5066224 C14.4346307,9.72434971 14.2437024,9.89072561 14.0202735,9.89072561 L14.0202735,9.89072561 L12.6492366,9.89072561 C12.3978808,9.89072561 12.196795,9.6801559 12.2013651,9.42279202 C12.2059357,9.16542814 12.4161597,8.95485863 12.6675171,8.95485863 L12.6675171,8.95485863 Z" id="形状结合"></path>
                            </g>
                        </g>
                    </g>
                </g>
            </g>
        </g>
    </g>
</svg>