<?xml version="1.0" encoding="UTF-8"?>
<svg width="15px" height="15px" viewBox="0 0 15 15" version="1.1" xmlns="http://www.w3.org/2000/svg" xmlns:xlink="http://www.w3.org/1999/xlink">
    <title>形状</title>
    <g id="pc" stroke="none" stroke-width="1" fill="none" fill-rule="evenodd">
        <g id="10" transform="translate(-203.000000, -445.000000)" fill-rule="nonzero">
            <g id="编组-53" transform="translate(101.000000, 351.000000)">
                <g id="编组-50" transform="translate(22.000000, 80.000000)">
                    <g id="提示" transform="translate(77.500000, 11.000000)">
                        <rect id="矩形" fill="#000000" opacity="0" x="0" y="0" width="20.8" height="20.8"></rect>
                        <path d="M10.4,17.3333333 C6.58666667,17.3333333 3.46666667,14.2133333 3.46666667,10.4 C3.46666667,6.58666667 6.58666667,3.46666667 10.4,3.46666667 C14.2133333,3.46666667 17.3333333,6.58666667 17.3333333,10.4 C17.3333333,14.2133333 14.2133333,17.3333333 10.4,17.3333333 Z M10.4,15.6 C13.26,15.6 15.6,13.26 15.6,10.4 C15.6,7.54 13.26,5.2 10.4,5.2 C7.54,5.2 5.2,7.54 5.2,10.4 C5.2,13.26 7.54,15.6 10.4,15.6 Z M11.2666667,12.1333333 L11.2666667,13.8666667 L9.53333333,13.8666667 L9.53333333,12.1333333 L11.2666667,12.1333333 Z M11.2666667,6.93333333 L11.2666667,11.2666667 L9.53333333,11.2666667 L9.53333333,6.93333333 L11.2666667,6.93333333 L11.2666667,6.93333333 Z" id="形状" fill="#D1D1D1"></path>
                    </g>
                </g>
            </g>
        </g>
    </g>
</svg>