<?xml version="1.0" encoding="UTF-8"?>
<svg width="18px" height="16px" viewBox="0 0 18 16" version="1.1" xmlns="http://www.w3.org/2000/svg" xmlns:xlink="http://www.w3.org/1999/xlink">
    <title>编组 35</title>
    <g id="pc" stroke="none" stroke-width="1" fill="none" fill-rule="evenodd">
        <g id="10" transform="translate(-1034.000000, -275.000000)" fill="#FF117D" fill-rule="nonzero">
            <g id="编组-8" transform="translate(349.000000, 76.000000)">
                <g id="编组-47备份-3" transform="translate(648.000000, 189.000000)">
                    <g id="编组-64" transform="translate(37.000000, 10.000000)">
                        <g id="编组-35" transform="translate(0.000031, 0.000000)">
                            <path d="M16.4056417,0.838286796 C16.4056417,0.375042628 16.0382903,-5.72875081e-13 15.5855286,-5.72875081e-13 L0.820128567,-5.72875081e-13 C0.366917169,-5.72875081e-13 -1.0658141e-14,0.375678398 -1.0658141e-14,0.838286796 L-1.0658141e-14,2.72668054 L16.4024163,2.72668054 L16.4056417,0.838286796 Z M13.9420771,7.64740543 L13.942077,7.64740543 C14.813382,7.64736935 15.6669226,7.89377894 16.4041529,8.35818145 L16.4024472,4.91366938 L3.08917036e-05,4.91366938 L3.08917036e-05,11.7371316 C3.08917036e-05,12.2001587 0.367382246,12.5751858 0.820159459,12.5751858 L9.30841027,12.5751858 C9.303076,12.48165 9.29431477,12.3893857 9.29431477,12.2947645 C9.29431477,9.7282671 11.3755951,7.64740543 13.942108,7.64740543 L13.9420771,7.64740543 Z M6.56098204,8.20120814 L6.56098204,8.20120814 C6.56098204,8.49986216 6.31887437,8.7419698 6.02022036,8.7419698 C6.02021519,8.7419698 6.02021002,8.7419698 6.02020485,8.7419698 L2.72776601,8.7419698 L2.72776601,8.7419698 C2.429112,8.7419698 2.18698884,8.49987766 2.18698884,8.20122365 C2.18698884,8.20121848 2.18698884,8.20121331 2.18698884,8.20120814 L2.18698884,8.18923705 L2.18698884,8.18923713 C2.18698884,7.89058311 2.42909649,7.64847547 2.7277505,7.64847547 C2.72775567,7.64847547 2.72776084,7.64847547 2.72776601,7.64847547 L6.02020486,7.64847547 L6.02020487,7.64847547 C6.31885888,7.64847547 6.56098204,7.89056761 6.56098204,8.18922162 C6.56098204,8.18922679 6.56098204,8.18923196 6.56098204,8.18923713 L6.56098204,8.20120814 Z" id="形状"></path>
                            <path d="M14.2252431,9.29043824 C12.40987,9.29043824 10.931083,10.7681552 10.931083,12.5845983 C10.931083,14.4010414 12.4085829,15.8787584 14.2252586,15.8787584 C16.0419344,15.8787584 17.5194187,14.4010414 17.5194187,12.583761 C17.5194187,10.7664805 16.0417018,9.29043824 14.2252586,9.29043824 L14.2252431,9.29043824 Z M16.1424791,12.9282401 L14.7869387,14.283796 L14.7869387,14.2837961 C14.5976217,14.4733487 14.2904871,14.4735395 14.1009345,14.2842225 C13.9113818,14.0949055 13.911191,13.7877709 14.100508,13.5982182 L14.6276084,13.0706837 L12.7383463,13.0706837 L12.7383463,13.0706837 C12.4701193,13.0706837 12.2526795,12.853244 12.2526795,12.585017 C12.2526795,12.31679 12.4701193,12.0993503 12.7383463,12.0993503 L14.6276084,12.0993503 L14.100508,11.5722654 L14.100508,11.5722654 C13.9077392,11.3859288 13.9025259,11.0786035 14.0888628,10.8858347 C14.2751994,10.693066 14.5825247,10.6878527 14.7752934,10.8741895 C14.7792408,10.8780052 14.7831231,10.8818875 14.7869387,10.8858348 L16.1424947,12.2413908 L16.1424947,12.2413908 C16.3317698,12.4310582 16.3317698,12.738154 16.1424947,12.9278214 L16.1424791,12.9282401 Z" id="形状"></path>
                        </g>
                    </g>
                </g>
            </g>
        </g>
    </g>
</svg>