<?xml version="1.0" encoding="UTF-8"?>
<svg width="44px" height="41px" viewBox="0 0 44 41" version="1.1" xmlns="http://www.w3.org/2000/svg" xmlns:xlink="http://www.w3.org/1999/xlink">
    <title>vipdiamond-f</title>
    <defs>
        <path d="M27.3024,8.40960001 L21.312,2.53440001 C21.0816,2.4192 20.8512,2.30399999 20.5056,2.30399999 L7.14239999,2.30399999 C6.912,2.30399999 6.5664,2.4192 6.33600001,2.64959999 L0.3456,8.40960001 C0.115200009,8.64 -1.91846539e-14,8.9856 -1.91846539e-14,9.21599999 L-1.91846539e-14,11.52 C-1.91846539e-14,11.7504 0.115200009,12.096 0.230399991,12.2112 L12.9024,26.0352 C13.3632,26.496 14.0544,26.496 14.5152,26.1504 L14.6304,26.0352 L27.3024,12.2112 C27.5328,11.9808 27.648,11.7504 27.5328,11.52 L27.5328,9.21599999 C27.648,8.9856 27.5328,8.64 27.3024,8.40960001 Z" id="path-1"></path>
        <filter x="-38.4%" y="-35.7%" width="177.1%" height="188.0%" filterUnits="objectBoundingBox" id="filter-2">
            <feMorphology radius="3.6" operator="dilate" in="SourceAlpha" result="shadowSpreadOuter1"></feMorphology>
            <feOffset dx="0" dy="2" in="shadowSpreadOuter1" result="shadowOffsetOuter1"></feOffset>
            <feGaussianBlur stdDeviation="2" in="shadowOffsetOuter1" result="shadowBlurOuter1"></feGaussianBlur>
            <feComposite in="shadowBlurOuter1" in2="SourceAlpha" operator="out" result="shadowBlurOuter1"></feComposite>
            <feColorMatrix values="0 0 0 0 0.642385289   0 0 0 0 0.669175742   0 0 0 0 0.749547101  0 0 0 0.304714816 0" type="matrix" in="shadowBlurOuter1"></feColorMatrix>
        </filter>
    </defs>
    <g id="pc" stroke="none" stroke-width="1" fill="none" fill-rule="evenodd">
        <g id="10" transform="translate(-197.000000, -185.000000)">
            <g id="编组-27" transform="translate(101.000000, 76.000000)">
                <g id="编组-2" transform="translate(72.000000, 32.000000)">
                    <g id="vipdiamond-f" transform="translate(32.000000, 81.000000)">
                        <rect id="矩形" fill="#000000" fill-rule="nonzero" opacity="0" x="0" y="0" width="27.648" height="27.648"></rect>
                        <g id="路径">
                            <use fill="black" fill-opacity="1" filter="url(#filter-2)" xlink:href="#path-1"></use>
                            <path stroke="#FFFFFF" stroke-width="3.6" d="M20.5056,0.503999991 C21.3166802,0.503999991 21.8243549,0.772191863 22.3763297,1.05703542 L22.3763297,1.05703542 L29.0473434,7.59976034 L29.3841459,12.1465946 L15.8956307,27.3211742 C15.0160393,28.097762 14.2681707,28.2400239 13.5541819,28.1890247 C12.8523819,28.1388961 12.1530982,27.8476596 11.596539,27.2744314 L11.596539,27.2744314 L-1.09647746,13.4275043 C-1.36972432,13.15666 -1.8,12.2003999 -1.8,11.52 L-1.8,11.52 L-1.8,9.21599999 C-1.8,8.62011572 -1.51604433,7.71421383 -0.910555848,7.12033141 L-0.910555848,7.12033141 L5.07979558,1.36037811 C5.67381514,0.777611806 6.55746976,0.503999991 7.14239999,0.503999991 L7.14239999,0.503999991 Z" fill="#FFFFFF" fill-rule="evenodd"></path>
                        </g>
                        <path d="M27.3024,8.40960001 L21.312,2.53440001 C21.0816,2.4192 20.8512,2.30399999 20.5056,2.30399999 L7.14239999,2.30399999 C6.912,2.30399999 6.5664,2.4192 6.33600001,2.64959999 L0.3456,8.40960001 C0.115200009,8.64 0,8.9856 0,9.21599999 L0,11.52 C0,11.7504 0.115200009,12.096 0.230399991,12.2112 L12.9024,26.0352 C13.3632,26.496 14.0544,26.496 14.5152,26.1504 L14.6304,26.0352 L27.3024,12.2112 C27.5328,11.9808 27.648,11.7504 27.5328,11.52 L27.5328,9.21599999 C27.648,8.9856 27.5328,8.64 27.3024,8.40960001 Z M13.824,19.4688 L6.10559999,9.3312 L10.5984,9.3312 L10.368,10.2528 L13.824,14.976 L17.28,10.2528 L16.9344,9.3312 L21.4272,9.3312 C21.5424,9.3312 13.824,19.4688 13.824,19.4688 Z" id="形状" fill="#FECE0A" fill-rule="nonzero"></path>
                    </g>
                </g>
            </g>
        </g>
    </g>
</svg>