<?xml version="1.0" encoding="UTF-8"?>
<svg width="51px" height="51px" viewBox="0 0 51 51" version="1.1" xmlns="http://www.w3.org/2000/svg" xmlns:xlink="http://www.w3.org/1999/xlink">
    <title>编组 52</title>
    <defs>
        <circle id="path-1" cx="17.5" cy="17.5" r="17.5"></circle>
        <filter x="-37.1%" y="-31.4%" width="174.3%" height="174.3%" filterUnits="objectBoundingBox" id="filter-2">
            <feOffset dx="0" dy="2" in="SourceAlpha" result="shadowOffsetOuter1"></feOffset>
            <feGaussianBlur stdDeviation="4" in="shadowOffsetOuter1" result="shadowBlurOuter1"></feGaussianBlur>
            <feColorMatrix values="0 0 0 0 0.620329484   0 0 0 0 0.44248121   0 0 0 0 0.489283387  0 0 0 0.149393575 0" type="matrix" in="shadowBlurOuter1"></feColorMatrix>
        </filter>
    </defs>
    <g id="pc" stroke="none" stroke-width="1" fill="none" fill-rule="evenodd">
        <g id="桃子搜索-pc-06" transform="translate(-660.000000, -63.000000)">
            <g id="编组-53-+-编组-53备份-+-编组-53备份-2蒙版" transform="translate(428.000000, 48.000000)">
                <g id="编组-52" transform="translate(240.000000, 21.000000)">
                    <g id="椭圆形">
                        <use fill="black" fill-opacity="1" filter="url(#filter-2)" xlink:href="#path-1"></use>
                        <use fill="#FFFFFF" fill-rule="evenodd" xlink:href="#path-1"></use>
                    </g>
                    <g id="收-藏-(2)" transform="translate(8.500000, 10.000000)" fill-rule="nonzero" stroke="#484949" stroke-width="2">
                        <path d="M12.7818159,1.0018021 C13.8425909,1.0018021 14.7987272,1.48192867 15.4932316,2.24123469 C16.2191015,3.03483278 16.6625216,4.13203035 16.6625216,5.33790831 C16.6625216,6.86067557 15.9523298,7.92275105 15.4050761,8.77783584 C13.6330456,11.5406791 9.19434574,14.9781955 9.00391222,15.1210206 C8.76616533,14.9782615 4.31926611,11.5524181 2.55587444,8.77865924 C2.0080932,7.92275105 1.29790139,6.86067557 1.29790139,5.33790831 C1.29790139,4.13203035 1.74132153,3.03483278 2.4671914,2.24123469 C3.1616958,1.48192867 4.11783206,1.0018021 5.17860707,1.0018021 C6.36128279,1.0018021 7.45698636,1.6091302 8.17483189,2.5844638 L8.17483189,2.5844638 L8.97586638,3.67282587 L9.7825162,2.58861911 C10.5089091,1.61228457 11.5971695,1.0018021 12.7818159,1.0018021 Z" id="路径"></path>
                    </g>
                </g>
            </g>
        </g>
    </g>
</svg>