<?xml version="1.0" encoding="UTF-8"?>
<svg width="42px" height="42px" viewBox="0 0 42 42" version="1.1" xmlns="http://www.w3.org/2000/svg" xmlns:xlink="http://www.w3.org/1999/xlink">
    <title>微信</title>
    <g id="pc" stroke="none" stroke-width="1" fill="none" fill-rule="evenodd">
        <g id="桃子搜索-pc-05" transform="translate(-652.000000, -700.000000)" fill="#3BB430" fill-rule="nonzero">
            <g id="编组-57" transform="translate(519.000000, 230.000000)">
                <g id="微信" transform="translate(133.000000, 470.000000)">
                    <path d="M20.5342739,16.6677694 C21.2657747,16.6677694 21.7882754,16.1452688 21.7882754,15.4137679 C21.7882754,14.6822671 21.3180248,14.1597665 20.5342739,14.1597665 C19.802773,14.1597665 19.0190221,14.630017 19.0190221,15.4137679 C19.0190221,16.1452688 19.750523,16.6677694 20.5342739,16.6677694 L20.5342739,16.6677694 Z" id="路径"></path>
                    <path d="M23.7737777,21.4225249 C23.3035271,21.4225249 22.7810265,21.9450255 22.7810265,22.4152761 C22.7810265,22.9377767 23.3035271,23.4080272 23.7737777,23.4080272 C24.5575286,23.4080272 25.0277791,22.9377767 25.0277791,22.4152761 C25.0277791,21.9450255 24.5052785,21.4225249 23.7737777,21.4225249 Z" id="路径"></path>
                    <path d="M20.9000243,0 C9.35276088,0 0,9.35276088 0,20.9000243 C0,32.4472878 9.35276088,41.8000486 20.9000243,41.8000486 C32.4472878,41.8000486 41.8000486,32.4472878 41.8000486,20.9000243 C41.8000486,9.35276088 32.4472878,0 20.9000243,0 Z M16.7722695,26.9087813 C15.5182681,26.9087813 14.5255169,26.647531 13.2715154,26.3862807 L9.77076137,28.1105327 L10.7635125,25.1322792 C8.25550961,23.4080272 6.7925079,21.1090246 6.7925079,18.3920214 C6.7925079,13.6895159 11.2860131,9.92751155 16.7722695,9.92751155 C21.6837752,9.92751155 25.9682802,12.905765 26.8565313,16.9290197 C26.5430309,16.8767696 26.2295305,16.8767696 25.9160302,16.8767696 C21.1612746,16.8767696 17.4515203,20.4297738 17.4515203,24.7665288 C17.4515203,25.4980297 17.5560204,26.1772805 17.7650207,26.8565313 C17.3992702,26.9087813 17.0857699,26.9087813 16.7722695,26.9087813 Z M31.5067867,30.4095354 L32.2382875,32.9175383 L29.5212844,31.4022865 C28.5285332,31.6635368 27.535782,31.9247871 26.5430309,31.9247871 C21.7882754,31.9247871 18.026271,28.6852834 18.026271,24.6620287 C18.026271,20.6910241 21.7882754,17.3992702 26.5430309,17.3992702 C31.0365361,17.3992702 35.0075407,20.638774 35.0075407,24.6620287 C35.0075407,26.9087813 33.492289,28.8942836 31.5067867,30.4095354 L31.5067867,30.4095354 Z" id="形状"></path>
                    <path d="M29.260034,21.4225249 C28.7897835,21.4225249 28.2672829,21.9450255 28.2672829,22.4152761 C28.2672829,22.9377767 28.7897835,23.4080272 29.260034,23.4080272 C29.9915349,23.4080272 30.5140355,22.9377767 30.5140355,22.4152761 C30.5140355,21.9450255 29.9915349,21.4225249 29.260034,21.4225249 Z" id="路径"></path>
                    <path d="M13.5327657,14.1597665 C12.8012649,14.1597665 12.017514,14.630017 12.017514,15.4137679 C12.017514,16.1452688 12.7490148,16.6677694 13.5327657,16.6677694 C14.2642666,16.6677694 14.7867672,16.1452688 14.7867672,15.4137679 C14.7867672,14.6822671 14.2642666,14.1597665 13.5327657,14.1597665 Z" id="路径"></path>
                </g>
            </g>
        </g>
    </g>
</svg>