<?xml version="1.0" encoding="UTF-8"?>
<svg width="34px" height="34px" viewBox="0 0 34 34" version="1.1" xmlns="http://www.w3.org/2000/svg" xmlns:xlink="http://www.w3.org/1999/xlink">
    <title>编组 42备份</title>
    <g id="pc" stroke="none" stroke-width="1" fill="none" fill-rule="evenodd">
        <g id="桃子搜索-pc-02" transform="translate(-1357.000000, -733.000000)" fill="#C5C5C5" fill-rule="nonzero">
            <g id="编组-39" transform="translate(1350.500000, 632.000000)">
                <g id="编组-15备份-2" transform="translate(0.000000, 95.000000)">
                    <g id="问题" transform="translate(6.000000, 6.000000)">
                        <path d="M9.25403737,7.00039537 L25.4343992,7.00039537 L25.4343991,7.00039537 C26.6557565,6.98210781 27.6606926,7.95738974 27.6790033,9.17874509 C27.6790033,9.17952571 27.6790033,9.18030633 27.6790033,9.18108697 L27.6790033,22.4598233 L27.6790033,22.4598165 C27.6609699,23.6809962 26.6565235,24.6564228 25.4353418,24.6386307 L20.4836676,24.6386307 L18.3433861,27.2122234 L18.3433861,27.2122233 C17.8861354,27.7546398 17.08122,27.83696 16.5236349,27.3983343 L16.5236349,27.3983342 C16.4533607,27.3451209 16.3907372,27.2824974 16.3375239,27.2122233 L14.1972424,24.6386307 L9.25400983,24.6386307 L9.25400995,24.6386307 C8.0311561,24.6606157 7.02202142,23.6871193 7,22.4642594 C7,22.4637171 7,22.4631748 7,22.4626325 L7,9.1801398 L7,9.1801427 C7.01848043,7.9577493 8.0244064,6.9817794 9.24679172,7.00025813 C9.24919389,7.00029445 9.25159598,7.00033467 9.25399802,7.00037881 L9.25403737,7.00039537 Z M17.3395229,22.1176747 C17.6779058,22.1242544 18.0068899,21.9936008 18.2493975,21.7567316 L18.2493975,21.7567315 C18.7459382,21.2784918 18.7607737,20.4882786 18.2825359,19.9917379 C18.2716981,19.9804854 18.26065,19.9694372 18.2493975,19.9585996 L18.2493975,19.9585996 C17.7381788,19.4735197 16.9353193,19.4780818 16.4296463,19.9689391 L16.4296463,19.968939 C16.1842144,20.1993779 16.045634,20.5214814 16.0470841,20.8581357 C16.0376845,21.1993399 16.1777376,21.5273828 16.4296463,21.7567312 C16.6721539,21.9936002 17.0001989,22.1233129 17.3395209,22.1176743 L17.3395229,22.1176747 Z M18.993842,15.9139704 C19.4384403,15.5116692 19.8830386,15.1027904 20.3163578,14.6845107 C20.5682664,14.4279027 20.780695,14.1365183 20.9470662,13.8188134 L20.9470663,13.8188132 C21.1309719,13.4569027 21.2232779,13.0553992 21.2158925,12.6495113 L21.2158926,12.649482 C21.2178838,12.0919635 21.056091,11.5461381 20.7506002,11.0797631 L20.7506001,11.079763 C20.419643,10.5850399 19.9583714,10.1914308 19.4177443,9.94241827 L19.4177444,9.94241834 C18.7962834,9.65476203 18.117191,9.51328563 17.4325611,9.52883806 L17.432561,9.52883805 C16.6947183,9.5120218 15.9649073,9.68484622 15.3129595,10.0307729 L15.3129593,10.030773 C14.7514017,10.3255987 14.2769405,10.7624783 13.9368814,11.2978547 L13.9368812,11.2978549 C13.636928,11.7454058 13.4718452,12.2696949 13.4612649,12.808361 C13.4687845,13.0621478 13.5759393,13.3027772 13.7611111,13.4776082 C13.9509818,13.6796989 14.2169885,13.7924919 14.4942745,13.7877924 L14.4942745,13.7877924 C14.9992366,13.7740213 15.4219472,13.4007852 15.4981463,12.9014151 C15.6241001,12.4267379 15.8581483,11.9877801 16.1805527,11.6183771 L16.1805526,11.6183772 C16.515674,11.3009106 16.9708749,11.1424459 17.4306924,11.1831778 C17.8687111,11.1653187 18.2954506,11.3204112 18.6206743,11.6155559 C18.9214596,11.883443 19.0915912,12.2697637 19.0859506,12.673945 C19.0868905,12.8826154 19.0333133,13.0875253 18.9308581,13.268936 L18.9308581,13.2689359 C18.8288137,13.4509403 18.703707,13.619014 18.5586359,13.7689906 L18.5586369,13.7689896 C18.3278405,13.9976392 18.0895941,14.2186449 17.8442814,14.4316491 L17.8442816,14.4316489 C17.527334,14.7019049 17.2272414,14.9913263 16.9456881,15.2982833 L16.9456879,15.2982835 C16.7171999,15.5464619 16.5350966,15.8336235 16.4080336,16.1461221 C16.2670404,16.5080043 16.197483,16.8943249 16.2012434,17.2834668 C16.1796245,17.5748532 16.2811396,17.8624792 16.4804096,18.0767881 C16.6627608,18.2544394 16.9080883,18.3493746 17.1628161,18.342795 L17.162816,18.342795 C17.6410355,18.372633 18.0528992,18.0091479 18.0827358,17.5309284 C18.0828388,17.5292777 18.082937,17.5276268 18.0830306,17.5259756 C18.134728,17.2703087 18.1864255,17.0917173 18.2071045,16.9902014 C18.237183,16.8821067 18.2794809,16.7777728 18.3311784,16.6800172 C18.3969752,16.5578231 18.4768713,16.4450284 18.5689865,16.3416343 C18.70152,16.1912416 18.8434532,16.0474286 18.9919657,15.9130145 L18.9919657,15.9139545 L18.993842,15.9139704 Z" id="形状"></path>
                    </g>
                </g>
            </g>
        </g>
    </g>
</svg>