<?xml version="1.0" encoding="UTF-8"?>
<svg width="12px" height="12px" viewBox="0 0 12 12" version="1.1" xmlns="http://www.w3.org/2000/svg" xmlns:xlink="http://www.w3.org/1999/xlink">
    <title>形状</title>
    <g id="pc" stroke="none" stroke-width="1" fill="none" fill-rule="evenodd">
        <g id="10" transform="translate(-986.000000, -99.000000)" fill-rule="nonzero">
            <g id="编组-8" transform="translate(349.000000, 76.000000)">
                <g id="编组-7" transform="translate(0.000000, 19.000000)">
                    <g id="编组-31" transform="translate(24.000000, 0.000000)">
                        <g id="编组-26备份-3" transform="translate(613.000000, 0.000000)">
                            <g id="公共-旺旺-" transform="translate(0.500000, 4.000000)">
                                <rect id="矩形" fill="#000000" opacity="0" x="0" y="1" width="11.2" height="11.2"></rect>
                                <path d="M3.26903554,0.5 C3.26903554,0.5 3.72385787,1.23908629 3.83756345,2.09187817 C1.73401015,2.77411168 0.255837564,4.59340101 0.255837564,6.75380711 C0.255837564,9.48274112 2.64365482,11.7 5.6,11.7 C8.55634517,11.7 10.9441624,9.48274112 10.9441624,6.75380711 C10.9441624,4.19543148 8.84060914,2.09187817 6.16852791,1.80761421 C5.14517767,1.06852791 3.26903554,0.5 3.26903554,0.5 Z M6.11167513,7.09492386 L5.08832487,7.09492386 C5.42944162,6.35583756 5.20203045,5.3893401 4.80406091,5.10507614 C5.20203045,4.99137056 5.37258882,4.87766498 5.77055838,4.76395939 C6.39593909,5.33248731 6.39593909,6.64010153 6.11167513,7.09492386 L6.11167513,7.09492386 Z M8.89746193,6.75380711 L7.87411168,6.75380711 C8.32893401,5.90101523 8.04467006,5.04822336 7.53299492,4.76395939 C7.93096446,4.59340101 8.10152283,4.53654823 8.49949239,4.42284263 C9.23857868,5.04822335 9.1817259,6.29898477 8.89746193,6.75380711 L8.89746193,6.75380711 Z" id="形状" fill="#C0C0C0"></path>
                            </g>
                        </g>
                    </g>
                </g>
            </g>
        </g>
    </g>
</svg>