<?xml version="1.0" encoding="UTF-8"?>
<svg width="33px" height="34px" viewBox="0 0 33 34" version="1.1" xmlns="http://www.w3.org/2000/svg" xmlns:xlink="http://www.w3.org/1999/xlink">
    <title>微信</title>
    <g id="呆萌价" stroke="none" stroke-width="1" fill="none" fill-rule="evenodd">
        <g id="pc" transform="translate(-1757.000000, -1068.000000)" fill="#00C800" fill-rule="nonzero">
            <g id="编组-3" transform="translate(1743.000000, 934.000000)">
                <g id="编组备份-2" transform="translate(0.000000, 122.000000)">
                    <g id="微信-2" transform="translate(14.000000, 12.000000)">
                        <g id="微信" transform="translate(3.000000, 7.000000)">
                            <path d="M26.0597178,13.7906438 C26.0597178,10.1503271 22.416823,7.1854799 18.327912,7.1854799 C13.9966569,7.1854799 10.5857936,10.1529052 10.5857936,13.7906438 C10.5857936,17.4361168 13.9966569,20.3958078 18.327912,20.3958078 C19.235413,20.3958078 20.1506484,20.1663544 21.0607276,19.9394791 L23.5563555,21.305887 L22.8705735,19.0319781 C24.6984662,17.660414 26.0597178,15.8428337 26.0597178,13.7906438 Z M15.932831,12.7800177 C15.3630648,12.7800177 14.9015798,12.3185328 14.9015798,11.7487665 C14.9015798,11.1790002 15.3630648,10.7175153 15.932831,10.7175153 C16.5025973,10.7175153 16.9640822,11.1790002 16.9640822,11.7487665 C16.9640822,12.3159546 16.5025973,12.7800177 15.932831,12.7800177 Z M20.9421337,12.7722833 C20.3723675,12.7722833 19.9108825,12.3107984 19.9108825,11.7410321 C19.9108825,11.1712658 20.3723675,10.7097809 20.9421337,10.7097809 C21.5119,10.7097809 21.9733849,11.1712658 21.9733849,11.7410321 C21.9733849,12.3107984 21.5119,12.7722833 20.9421337,12.7722833 Z" id="形状"></path>
                            <path d="M9.44368286,0.356018832 C4.43953642,0.356018832 0.340312896,3.76688218 0.340312896,8.09813722 C0.340312896,10.5989214 1.70414261,12.6511113 3.98320776,14.2443944 L3.07312858,16.9823663 L6.25453853,15.3865051 C7.3940711,15.6108022 8.30672842,15.8428337 9.44368286,15.8428337 C9.72985507,15.8428337 10.0134492,15.8299431 10.2944651,15.8067399 C10.1165743,15.1983017 10.0134492,14.5615041 10.0134492,13.8989252 C10.0134492,9.92087371 13.4294688,6.69305746 17.7529894,6.69305746 C18.0494741,6.69305746 18.3408026,6.71368248 18.6295529,6.74719814 C17.8406458,3.08110013 13.9193131,0.356018832 9.44368286,0.356018832 L9.44368286,0.356018832 Z M6.38602306,6.60282298 C5.70281914,6.60282298 5.14852162,6.04852546 5.14852162,5.36532154 C5.14852162,4.68211762 5.70281914,4.1278201 6.38602306,4.1278201 C7.06922698,4.1278201 7.6235245,4.68211762 7.6235245,5.36532154 C7.6235245,6.04852546 7.06922698,6.60282298 6.38602306,6.60282298 L6.38602306,6.60282298 Z M12.7436867,6.60282298 C12.0604828,6.60282298 11.5061853,6.04852546 11.5061853,5.36532154 C11.5061853,4.68211762 12.0604828,4.1278201 12.7436867,4.1278201 C13.4268906,4.1278201 13.9811881,4.68211762 13.9811881,5.36532154 C13.9811881,6.04852546 13.4268906,6.60282298 12.7436867,6.60282298 L12.7436867,6.60282298 Z" id="形状"></path>
                        </g>
                    </g>
                </g>
            </g>
        </g>
    </g>
</svg>