<?xml version="1.0" encoding="UTF-8"?>
<svg width="15px" height="12px" viewBox="0 0 15 12" version="1.1" xmlns="http://www.w3.org/2000/svg" xmlns:xlink="http://www.w3.org/1999/xlink">
    <title>形状</title>
    <g id="pc" stroke="none" stroke-width="1" fill="none" fill-rule="evenodd">
        <g id="10" transform="translate(-641.000000, -99.000000)" fill-rule="nonzero">
            <g id="编组-8" transform="translate(349.000000, 76.000000)">
                <g id="编组-7" transform="translate(0.000000, 19.000000)">
                    <g id="编组-31" transform="translate(24.000000, 0.000000)">
                        <g id="编组-26备份" transform="translate(268.000000, 0.000000)">
                            <g id="公共-微信1" transform="translate(0.500000, 3.000000)">
                                <rect id="矩形" fill="#000000" opacity="0" x="0" y="0" width="14.4" height="14.4"></rect>
                                <path d="M5.22045,1.67985 C2.583,1.67985 0.422775,3.4776 0.422775,5.760225 C0.422775,7.077825 1.141425,8.1594 2.342025,8.9973 L1.862325,10.4409 L3.53925,9.5994 C4.13955,9.71865 4.620825,9.8406 5.219775,9.8406 C5.3703,9.8406 5.5197,9.833175 5.667525,9.821475 C5.57073575,9.49510063 5.52096019,9.1565965 5.5197,8.816175 C5.5197,6.721425 7.3197,5.020425 9.598725,5.020425 C9.753975,5.020425 9.907875,5.031675 10.060875,5.048775 C9.64575,3.116025 7.57935,1.67985 5.22045,1.67985 Z M3.661875,4.91895 C3.30255,4.91895 2.939625,4.6782 2.939625,4.318425 C2.939625,3.9573 3.30255,3.719925 3.661875,3.719925 C4.0212,3.719925 4.260825,3.957525 4.260825,4.318425 C4.260825,4.677975 4.0212,4.91895 3.661875,4.91895 Z M7.01955,4.91895 C6.66,4.91895 6.2991,4.6782 6.2991,4.318425 C6.2991,3.9573 6.66,3.719925 7.01955,3.719925 C7.3809,3.719925 7.620075,3.957525 7.620075,4.318425 C7.620075,4.677975 7.380675,4.91895 7.01955,4.91895 L7.01955,4.91895 Z M13.977675,8.7588 C13.977675,6.8418 12.058425,5.2785 9.9027,5.2785 C7.620075,5.2785 5.8221,6.842025 5.8221,8.7588 C5.8221,10.67985 7.61985,12.240225 9.9027,12.240225 C10.380375,12.240225 10.861875,12.11985 11.342025,11.999475 L12.658275,12.719925 L12.297375,11.5209 C13.260375,10.798875 13.977675,9.840825 13.977675,8.7588 Z M8.579475,8.1594 C8.340525,8.1594 8.09955,7.922025 8.09955,7.6797 C8.09955,7.4403 8.340525,7.19955 8.579475,7.19955 C8.942625,7.19955 9.180225,7.4403 9.180225,7.6797 C9.180225,7.922025 8.942625,8.1594 8.579475,8.1594 Z M11.218725,8.1594 C10.98135,8.1594 10.74195,7.922025 10.74195,7.6797 C10.74195,7.4403 10.98135,7.19955 11.218725,7.19955 C11.57805,7.19955 11.819025,7.4403 11.819025,7.6797 C11.819025,7.922025 11.57805,8.1594 11.218725,8.1594 Z" id="形状" fill="#C0C0C0"></path>
                            </g>
                        </g>
                    </g>
                </g>
            </g>
        </g>
    </g>
</svg>