<?xml version="1.0" encoding="UTF-8"?>
<svg width="23px" height="20px" viewBox="0 0 23 20" version="1.1" xmlns="http://www.w3.org/2000/svg" xmlns:xlink="http://www.w3.org/1999/xlink">
    <title>形状</title>
    <g id="pc" stroke="none" stroke-width="1" fill="none" fill-rule="evenodd">
        <g id="10" transform="translate(-705.000000, -987.000000)" fill="#999999" fill-rule="nonzero">
            <g id="编组-52备份" transform="translate(101.000000, 856.000000)">
                <g id="编组-61" transform="translate(21.000000, 80.250000)">
                    <g id="编组-60" transform="translate(0.000000, 0.750000)">
                        <g id="编组-29" transform="translate(172.000000, 2.000000)">
                            <g id="编组-56" transform="translate(2.000000, 44.000000)">
                                <g id="关注" transform="translate(409.000000, 4.000000)">
                                    <path d="M16.3124994,2.2222426 C17.3652007,2.2222426 18.3595965,2.65224235 19.1097927,3.43113057 C19.8775924,4.22890744 20.2999939,5.29335213 20.2999939,6.42890225 C20.2999939,7.5633469 19.8775943,8.62778768 19.1053938,9.43112705 L11.4999843,17.3988958 L3.88908335,9.42444737 C3.12238197,8.62667049 2.69998233,7.56333713 2.69998233,6.42890225 C2.69998233,5.29334823 3.12238197,4.22890354 3.88908335,3.43224385 C4.64038365,2.65224431 5.63478519,2.2222426 6.68747882,2.2222426 C7.65327862,2.2222426 8.41118022,2.57113302 9.19658913,3.37002123 L9.80048954,4.11224345 C10.2184903,4.62668846 10.8421907,4.9233543 11.4999901,4.9233543 C11.5109901,4.9233543 11.5219901,4.9233543 11.5329901,4.9233543 C12.20289,4.91335431 12.8309913,4.59557715 13.2401922,4.06113215 L13.8231924,3.29890994 C14.5766931,2.5455764 15.3268932,2.2222426 16.3125027,2.2222426 M16.3125027,0 C14.6592015,0 13.3348049,0.616684951 12.1666041,1.83112955 C12.1655041,1.83224066 12.1655041,1.83224066 12.1644041,1.83335178 L12.1644041,1.83335178 L11.5,2.70112861 L10.8356028,1.8855744 C10.8356028,1.8855744 10.8345028,1.88446331 10.8345028,1.8833522 L10.8334028,1.88224108 C9.66520197,0.668907811 8.34080536,0 6.68750423,0 C5.0342031,0 3.48100419,0.668907811 2.31170124,1.88224108 C1.14350044,3.09668569 0.5,4.71112615 0.5,6.42889858 C0.5,8.14445226 1.14350044,9.75778335 2.30950081,10.9722358 L10.5243021,19.5777776 C10.7817023,19.8477774 11.1337017,20 11.5,20 C11.8663022,20 12.2183016,19.8477778 12.476802,19.5777776 L20.689399,10.9733295 C21.8564996,9.75888491 22.5,8.14555773 22.5,6.42887905 C22.5,4.71110271 21.8564996,3.09665444 20.6882988,1.88222155 C19.5189977,0.66888828 17.9657969,0 16.3124958,0 L16.3124958,0 L16.3125027,0 Z" id="形状"></path>
                                </g>
                            </g>
                        </g>
                    </g>
                </g>
            </g>
        </g>
    </g>
</svg>