<?xml version="1.0" encoding="UTF-8"?>
<svg width="23px" height="21px" viewBox="0 0 23 21" version="1.1" xmlns="http://www.w3.org/2000/svg" xmlns:xlink="http://www.w3.org/1999/xlink">
    <title>形状</title>
    <g id="pc" stroke="none" stroke-width="1" fill="none" fill-rule="evenodd">
        <g id="10" transform="translate(-705.000000, -1200.000000)" fill="#FF117D" fill-rule="nonzero">
            <g id="编组-52备份" transform="translate(101.000000, 856.000000)">
                <g id="编组-61备份" transform="translate(21.000000, 294.000000)">
                    <g id="编组-60" transform="translate(0.000000, 0.750000)">
                        <g id="编组-29" transform="translate(172.000000, 2.000000)">
                            <g id="编组-56" transform="translate(2.000000, 44.000000)">
                                <g id="关注" transform="translate(409.000000, 3.000000)">
                                    <path d="M16.3124994,3.2222426 C17.3652007,3.2222426 18.3595965,3.65224235 19.1097927,4.43113057 C19.8775924,5.22890744 20.2999939,6.29335213 20.2999939,7.42890225 C20.2999939,8.5633469 19.8775943,9.62778768 19.1053938,10.4311271 L11.4999843,18.3988958 L3.88908335,10.4244474 C3.12238197,9.62667049 2.69998233,8.56333713 2.69998233,7.42890225 C2.69998233,6.29334823 3.12238197,5.22890354 3.88908335,4.43224385 C4.64038365,3.65224431 5.63478519,3.2222426 6.68747882,3.2222426 C7.65327862,3.2222426 8.41118022,3.57113302 9.19658913,4.37002123 L9.80048954,5.11224345 C10.2184903,5.62668846 10.8421907,5.9233543 11.4999901,5.9233543 C11.5109901,5.9233543 11.5219901,5.9233543 11.5329901,5.9233543 C12.20289,5.91335431 12.8309913,5.59557715 13.2401922,5.06113215 L13.8231924,4.29890994 C14.5766931,3.5455764 15.3268932,3.2222426 16.3125027,3.2222426" id="形状"></path>
                                </g>
                            </g>
                        </g>
                    </g>
                </g>
            </g>
        </g>
    </g>
</svg>