<?xml version="1.0" encoding="UTF-8"?>
<svg width="34px" height="34px" viewBox="0 0 34 34" version="1.1" xmlns="http://www.w3.org/2000/svg" xmlns:xlink="http://www.w3.org/1999/xlink">
    <title>编组 40</title>
    <defs>
        <rect id="path-1" x="0" y="0" width="47" height="47"></rect>
        <filter x="-1.1%" y="-1.1%" width="102.1%" height="104.3%" filterUnits="objectBoundingBox" id="filter-2">
            <feOffset dx="0" dy="1" in="SourceAlpha" result="shadowOffsetOuter1"></feOffset>
            <feColorMatrix values="0 0 0 0 0.875509511   0 0 0 0 0.875509511   0 0 0 0 0.875509511  0 0 0 0.5 0" type="matrix" in="shadowOffsetOuter1"></feColorMatrix>
        </filter>
    </defs>
    <g id="pc" stroke="none" stroke-width="1" fill="none" fill-rule="evenodd">
        <g id="桃子搜索-pc-02" transform="translate(-1358.000000, -639.000000)">
            <g id="编组-40" transform="translate(1350.500000, 632.000000)">
                <g id="矩形备份-7">
                    <use fill="black" fill-opacity="1" filter="url(#filter-2)" xlink:href="#path-1"></use>
                    <use fill="#FFFFFF" fill-rule="evenodd" xlink:href="#path-1"></use>
                </g>
                <path d="M30.6128406,37 C30.2467933,37 29.8356096,36.8908895 29.4539578,36.692828 L24.0078007,33.8645001 L18.5279184,36.6882036 C18.1808813,36.8800399 17.7836249,36.9809636 17.3785407,36.9809636 C16.8521778,36.9829963 16.3392084,36.808565 15.9159527,36.4836375 C15.1490147,35.8864803 14.7560279,34.8515551 14.9374377,33.9094737 L16.0581986,27.8728804 L11.7624358,23.7152666 C11.09891,23.0172619 10.8443314,22.0047981 11.0945133,21.0590832 L11.1031035,21.0284148 C11.4153987,20.0565797 12.190139,19.3756497 13.1295155,19.2449977 L19.0978674,18.1182198 L21.7766991,12.4691358 C22.20702,11.5747467 23.0822498,11 24.0078007,11 C24.9733034,11 25.8711523,11.5963441 26.2475942,12.4853467 L28.9178611,18.1165936 L34.887128,19.2001512 C35.8343321,19.3426945 36.6129355,20.0489062 36.8761804,21.0043527 C37.1708634,21.9434359 36.9301612,22.974753 36.2541822,23.669607 L36.2394925,23.6848777 L31.9558526,27.8731853 L33.038466,33.9205519 C33.2128105,34.8879151 32.8423665,35.8643238 32.0711334,36.4731183 C31.6582216,36.8183474 31.1429395,37.0044667 30.6128406,37 Z" id="路径" fill="#FF127D" fill-rule="nonzero"></path>
            </g>
        </g>
    </g>
</svg>