<?xml version="1.0" encoding="UTF-8"?>
<svg width="34px" height="34px" viewBox="0 0 34 34" version="1.1" xmlns="http://www.w3.org/2000/svg" xmlns:xlink="http://www.w3.org/1999/xlink">
    <title>电  话</title>
    <g id="呆萌价" stroke="none" stroke-width="1" fill="none" fill-rule="evenodd">
        <g id="pc" transform="translate(-1756.000000, -1130.000000)" fill="#FF951C" fill-rule="nonzero">
            <g id="编组-3" transform="translate(1743.000000, 934.000000)">
                <g id="编组备份-3" transform="translate(0.000000, 182.500000)">
                    <g id="电--话-2" transform="translate(13.000000, 14.000000)">
                        <g id="电--话" transform="translate(8.000000, 5.000000)">
                            <path d="M11.55184,15.700675 C11.5923527,15.6755228 12.0367859,15.3974098 12.1667932,15.3191224 C12.4071778,15.1737546 12.6056576,15.0647462 12.8041141,14.9752981 C14.1989716,14.3407615 15.4289011,14.7894176 17.0557669,16.6902198 C18.0620876,17.8670373 18.359784,18.9110863 17.9712241,19.8405118 C17.681904,20.5351445 17.1242394,21.0145448 16.1319102,21.6071301 C16.0676375,21.6448817 15.4959814,21.9775221 15.3492447,22.0683624 C13.0389068,23.4939641 7.74325145,20.2304407 3.93463967,14.6538416 C0.116259371,9.06325094 -0.871893263,3.10226838 1.46918876,1.65571427 L1.77806912,1.46004209 L2.11349388,1.24200207 C3.2973187,0.476089229 4.054832,0.170016451 4.95351328,0.322345144 C5.85082558,0.476089229 6.61393084,1.13997781 7.25965136,2.34893164 C8.62095708,4.90661509 8.32045306,6.11979189 6.56919516,7.22252169 C6.44343408,7.3035935 5.99617012,7.57335335 5.95424202,7.59989775 C5.52516934,7.86545783 6.25193846,9.64467552 7.94170801,12.1185028 C9.65243,14.6202898 11.0822082,15.9886029 11.5504246,15.700675 L11.55184,15.700675 Z" id="路径"></path>
                        </g>
                    </g>
                </g>
            </g>
        </g>
    </g>
</svg>