<?xml version="1.0" encoding="UTF-8"?>
<svg width="33px" height="33px" viewBox="0 0 33 33" version="1.1" xmlns="http://www.w3.org/2000/svg" xmlns:xlink="http://www.w3.org/1999/xlink">
    <title>视频</title>
    <g id="呆萌价" stroke="none" stroke-width="1" fill="none" fill-rule="evenodd">
        <g id="pc" transform="translate(-1756.000000, -947.000000)" fill="#078FFF" fill-rule="nonzero">
            <g id="编组-3" transform="translate(1743.000000, 934.000000)">
                <g id="编组" transform="translate(0.000000, 1.000000)">
                    <g id="视频-2" transform="translate(13.000000, 12.000000)">
                        <g id="视频" transform="translate(6.000000, 10.000000)">
                            <path d="M6.62358208,4.58920807 L10.5463791,7.53105836 L6.62358208,10.4720424 L6.62358208,4.58920807 L6.62358208,4.58920807 Z M21.1200246,2.14970085 L21.1200246,13.0919361 C21.1200246,13.4622996 20.9757319,13.7763775 20.6854141,14.0341284 C20.4276631,14.2434931 20.1294253,14.3481857 19.791608,14.3481857 C19.4854295,14.3481857 19.2109517,14.2514337 18.9699071,14.0578678 L15.7069458,11.5462143 L15.7069458,12.4154147 C15.7069458,13.1719612 15.4368611,13.8212163 14.8975992,14.3604988 C14.3574092,14.8997813 13.7090616,15.169866 12.9524944,15.169866 L2.75451321,15.169866 C1.99703857,15.169866 1.34867032,14.8997813 0.809387817,14.3604988 C0.269197813,13.8212163 2.0625024e-05,13.1719612 2.0625024e-05,12.4154147 L2.0625024e-05,2.94673428 C2.0625024e-05,2.19014652 0.269218438,1.54177827 0.809387817,1.00160889 C1.34869094,0.462347014 1.99703857,0.193128576 2.75451321,0.193128576 L12.9524944,0.193128576 C13.7090616,0.193128576 14.3582755,0.462347014 14.8975992,1.00160889 C15.4368611,1.54177827 15.7069458,2.19014652 15.7069458,2.94673428 L15.7069458,3.6953814 L18.9690408,1.18284098 C19.2109517,0.990162003 19.4854295,0.893410016 19.791608,0.893410016 C20.1619922,0.893410016 20.4760082,1.01835641 20.7337798,1.26732108 C20.9915307,1.51803887 21.1200246,1.81186296 21.1200246,2.14970085 Z M12.6251959,7.58913843 C12.6251959,5.0009248 10.5261254,2.90276173 7.93704549,2.90276173 C5.34798622,2.90276173 3.24891566,5.0009248 3.24891566,7.58913843 C3.24891566,10.1773314 5.34798622,12.2755358 7.93704549,12.2755358 C10.5261254,12.2755358 12.6251959,10.1773314 12.6251959,7.58913843 L12.6251959,7.58913843 Z" id="形状"></path>
                        </g>
                    </g>
                </g>
            </g>
        </g>
    </g>
</svg>